G04*
G04 #@! TF.GenerationSoftware,Altium Limited,Altium Designer,22.9.1 (49)*
G04*
G04 Layer_Physical_Order=4*
G04 Layer_Color=16711680*
%FSLAX25Y25*%
%MOIN*%
G70*
G04*
G04 #@! TF.SameCoordinates,714AFEBF-1B90-43D1-B325-1FA160A26AE1*
G04*
G04*
G04 #@! TF.FilePolarity,Positive*
G04*
G01*
G75*
%ADD12C,0.01000*%
%ADD14R,0.03543X0.03740*%
%ADD24C,0.02000*%
%ADD26C,0.01500*%
%ADD27C,0.06496*%
%ADD28R,0.06201X0.06201*%
%ADD29C,0.06201*%
%ADD30C,0.10039*%
%ADD31C,0.02500*%
%ADD40R,0.09843X0.09055*%
%ADD41R,0.07874X0.02402*%
%ADD42R,0.14173X0.10551*%
%ADD43R,0.02756X0.02756*%
%ADD44R,0.04528X0.02362*%
%ADD45R,0.06299X0.22441*%
%ADD46R,0.03898X0.03071*%
D12*
X9500Y83500D02*
X56000Y37000D01*
X124000D02*
X134500Y26500D01*
X56000Y37000D02*
X124000D01*
X7500Y82672D02*
X55172Y35000D01*
X117500D02*
X124172Y28328D01*
X55172Y35000D02*
X117500D01*
X124172Y17798D02*
Y28328D01*
X134500Y20500D02*
Y26500D01*
X116357Y173500D02*
X124500Y165357D01*
X100000Y173500D02*
X116357D01*
X49500Y224000D02*
X100000Y173500D01*
X28289Y224000D02*
X49500D01*
X112172Y158500D02*
X127500D01*
X136460Y167460D01*
X50672Y220000D02*
X112172Y158500D01*
X3500Y81015D02*
Y222500D01*
X37500Y20500D02*
Y47015D01*
X3500Y81015D02*
X37500Y47015D01*
X21000Y240000D02*
X30024D01*
X19828Y236000D02*
X30024D01*
X32752Y180252D02*
X35500Y183000D01*
X32752Y163533D02*
Y180252D01*
X42500Y190012D02*
Y208672D01*
X35500Y183000D02*
Y183012D01*
X42500Y190012D01*
X30024Y212169D02*
X39002D01*
X42500Y208672D01*
X38000Y216000D02*
X44500Y209500D01*
X37500Y182183D02*
X44500Y189183D01*
Y209500D01*
X29772Y220000D02*
X50672D01*
X29984Y216000D02*
X38000D01*
X9500Y220015D02*
X17829Y228344D01*
X9500Y83500D02*
Y220015D01*
X17829Y228344D02*
X29195D01*
X17966Y231309D02*
X29218D01*
X7500Y82672D02*
Y220843D01*
X17966Y231309D01*
X5500Y221672D02*
X19828Y236000D01*
X5500Y81843D02*
Y221672D01*
X3500Y222500D02*
X21000Y240000D01*
X42752Y160752D02*
X47500Y165500D01*
X35533Y160752D02*
X42752D01*
X32752Y163533D02*
X35533Y160752D01*
X47500Y20500D02*
Y39843D01*
X5500Y81843D02*
X47500Y39843D01*
X37500Y165500D02*
Y182183D01*
X98000Y228500D02*
Y230594D01*
X100650Y233244D01*
X115000Y238756D02*
X115016Y238740D01*
D14*
X162350Y185000D02*
D03*
X168650D02*
D03*
D24*
X161295Y69795D02*
X167000Y75500D01*
X147000Y69795D02*
X161295D01*
X147000Y93724D02*
X163224D01*
X175421Y224323D02*
X180323D01*
X174098Y223000D02*
X175421Y224323D01*
X180323D02*
X184500Y228500D01*
X162724Y243724D02*
X165000D01*
X180776D01*
X219028Y205472D01*
X154000Y235000D02*
X162724Y243724D01*
X147618Y235000D02*
X154000D01*
X126199Y88000D02*
X131923Y93724D01*
X147000D01*
X163224D02*
X193500Y124000D01*
X116736Y88000D02*
X126199D01*
X219028Y188972D02*
Y205472D01*
Y188972D02*
X221000Y187000D01*
X193500Y124000D02*
Y177500D01*
X203000Y187000D01*
X147618Y231260D02*
Y235000D01*
X116736Y84260D02*
Y88000D01*
X79496Y228500D02*
Y235850D01*
Y220429D02*
Y228500D01*
Y220429D02*
X81646Y218280D01*
X81721D02*
X99000Y201000D01*
X127000D01*
X81646Y218280D02*
X81721D01*
X81646Y238000D02*
X88000D01*
X92500Y242500D02*
X142776D01*
X88000Y238000D02*
X92500Y242500D01*
X79496Y235850D02*
X81646Y238000D01*
X106250Y50488D02*
X121500D01*
X91000D02*
X106250D01*
X48049Y81553D02*
Y94549D01*
X53500Y100000D01*
X47996Y81500D02*
X48049Y81553D01*
X53500Y100000D02*
X121500D01*
X124500Y97000D01*
Y94000D02*
Y97000D01*
Y110500D01*
X117000Y118000D02*
X124500Y110500D01*
X84000Y77500D02*
X92488D01*
X99248Y84260D01*
X66500Y81500D02*
X76500D01*
X81744Y86744D01*
X99248Y84260D02*
X106500D01*
X81744Y86744D02*
X85500D01*
X96744D01*
X98000Y88000D01*
X106500D01*
X85500Y92256D02*
X104902D01*
X116736Y91740D02*
X122240D01*
X124500Y94000D01*
X127122Y200878D02*
X149378D01*
X98000Y228500D02*
X109843D01*
X168650Y185000D02*
X178350D01*
X184500Y191150D01*
X149628Y200628D02*
X177372D01*
X109843Y228500D02*
X114587Y233244D01*
X115000D02*
X125496D01*
X127252Y235000D01*
X137382D01*
X115016Y238740D02*
X137382D01*
X142776Y242500D02*
X146535Y238740D01*
D26*
X151750Y187250D02*
X154000Y185000D01*
X149500Y189500D02*
X151750Y187250D01*
X58500Y56000D02*
X91000D01*
X47996Y66504D02*
Y81500D01*
Y66504D02*
X58500Y56000D01*
X91000D02*
X121500D01*
X105417Y91740D02*
X106500D01*
X104902Y92256D02*
X105417Y91740D01*
X149500Y189500D02*
Y195244D01*
X149378Y195366D02*
X149500Y195244D01*
X127122Y195366D02*
X149378D01*
X127000Y195488D02*
X127122Y195366D01*
X149500Y200756D02*
X149628Y200628D01*
X149378Y200878D02*
X149500Y200756D01*
X127000Y201000D02*
X127122Y200878D01*
X126804Y226500D02*
X131564Y231260D01*
X154000Y185000D02*
X162350D01*
X177372Y200628D02*
X177500Y200500D01*
X131564Y231260D02*
X137382D01*
X114587Y233244D02*
X115000D01*
X146535Y238740D02*
X147618D01*
X148760D01*
D27*
X124500Y20500D02*
D03*
X184500Y130500D02*
D03*
X174500D02*
D03*
X164500D02*
D03*
X154500D02*
D03*
X144500D02*
D03*
X134500D02*
D03*
X124500D02*
D03*
X114500D02*
D03*
Y20500D02*
D03*
X184500D02*
D03*
X174500D02*
D03*
X164500D02*
D03*
X154500D02*
D03*
X144500D02*
D03*
X134500D02*
D03*
X124500Y165500D02*
D03*
X184500Y275500D02*
D03*
X174500D02*
D03*
X164500D02*
D03*
X154500D02*
D03*
X144500D02*
D03*
X134500D02*
D03*
X124500D02*
D03*
X114500D02*
D03*
Y165500D02*
D03*
X184500D02*
D03*
X174500D02*
D03*
X164500D02*
D03*
X154500D02*
D03*
X144500D02*
D03*
X134500D02*
D03*
X47500D02*
D03*
X57500D02*
D03*
X67500D02*
D03*
X77500D02*
D03*
X87500D02*
D03*
X97500D02*
D03*
X27500D02*
D03*
Y275500D02*
D03*
X37500D02*
D03*
X47500D02*
D03*
X57500D02*
D03*
X67500D02*
D03*
X77500D02*
D03*
X87500D02*
D03*
X97500D02*
D03*
X37500Y165500D02*
D03*
Y20500D02*
D03*
X97500Y130500D02*
D03*
X87500D02*
D03*
X77500D02*
D03*
X67500D02*
D03*
X57500D02*
D03*
X47500D02*
D03*
X37500D02*
D03*
X27500D02*
D03*
Y20500D02*
D03*
X97500D02*
D03*
X87500D02*
D03*
X77500D02*
D03*
X67500D02*
D03*
X57500D02*
D03*
X47500D02*
D03*
D28*
X203000Y187000D02*
D03*
X221000D02*
D03*
D29*
X203000Y131488D02*
D03*
X221000D02*
D03*
D30*
X238000Y227091D02*
D03*
Y211500D02*
D03*
Y144000D02*
D03*
Y128409D02*
D03*
X249500Y253000D02*
D03*
X265090D02*
D03*
X210409D02*
D03*
X226000D02*
D03*
X238000Y105000D02*
D03*
Y89410D02*
D03*
X209409Y62000D02*
D03*
X225000D02*
D03*
X250000D02*
D03*
X265591D02*
D03*
X238000Y167500D02*
D03*
Y183091D02*
D03*
D31*
X167000Y75500D02*
D03*
X184500Y228500D02*
D03*
X288500Y68500D02*
D03*
X106250Y50488D02*
D03*
X84000Y77500D02*
D03*
X117000Y118000D02*
D03*
X151750Y187250D02*
D03*
X184500Y191150D02*
D03*
X177500Y200500D02*
D03*
X126804Y226500D02*
D03*
D40*
X147000Y94205D02*
D03*
Y69795D02*
D03*
X171500Y245205D02*
D03*
Y220795D02*
D03*
D41*
X30024Y212169D02*
D03*
Y216106D02*
D03*
Y220043D02*
D03*
Y223980D02*
D03*
Y227917D02*
D03*
Y231854D02*
D03*
Y235791D02*
D03*
Y239728D02*
D03*
D42*
X19000Y200398D02*
D03*
Y251500D02*
D03*
D43*
X91000Y50488D02*
D03*
Y56000D02*
D03*
X121500Y50488D02*
D03*
Y56000D02*
D03*
X127000Y195488D02*
D03*
Y201000D02*
D03*
X149500Y195244D02*
D03*
Y200756D02*
D03*
D44*
X106500Y91740D02*
D03*
Y88000D02*
D03*
Y84260D02*
D03*
X116736D02*
D03*
Y88000D02*
D03*
Y91740D02*
D03*
X137382Y238740D02*
D03*
Y235000D02*
D03*
Y231260D02*
D03*
X147618D02*
D03*
Y235000D02*
D03*
Y238740D02*
D03*
D45*
X66500Y81500D02*
D03*
X47996D02*
D03*
X98000Y228500D02*
D03*
X79496D02*
D03*
D46*
X85500Y86744D02*
D03*
Y92256D02*
D03*
X115000Y233244D02*
D03*
Y238756D02*
D03*
M02*
