G04*
G04 #@! TF.GenerationSoftware,Altium Limited,Altium Designer,22.9.1 (49)*
G04*
G04 Layer_Color=2752767*
%FSLAX25Y25*%
%MOIN*%
G70*
G04*
G04 #@! TF.SameCoordinates,714AFEBF-1B90-43D1-B325-1FA160A26AE1*
G04*
G04*
G04 #@! TF.FilePolarity,Positive*
G04*
G01*
G75*
%ADD57C,0.00200*%
%ADD58C,0.00267*%
D57*
X123700Y19700D02*
Y21300D01*
X125300D01*
Y19700D01*
X123700D01*
X183700Y129700D02*
Y131300D01*
X185300D01*
Y129700D01*
X183700D01*
X173700D02*
Y131300D01*
X175300D01*
Y129700D01*
X173700D01*
X163700D02*
Y131300D01*
X165300D01*
Y129700D01*
X163700D01*
X153700D02*
Y131300D01*
X155300D01*
Y129700D01*
X153700D01*
X143700D02*
Y131300D01*
X145300D01*
Y129700D01*
X143700D01*
X133700D02*
Y131300D01*
X135300D01*
Y129700D01*
X133700D01*
X123700D02*
Y131300D01*
X125300D01*
Y129700D01*
X123700D01*
X113700D02*
Y131300D01*
X115300D01*
Y129700D01*
X113700D01*
Y19700D02*
Y21300D01*
X115300D01*
Y19700D01*
X113700D01*
X183700D02*
Y21300D01*
X185300D01*
Y19700D01*
X183700D01*
X173700D02*
Y21300D01*
X175300D01*
Y19700D01*
X173700D01*
X163700D02*
Y21300D01*
X165300D01*
Y19700D01*
X163700D01*
X153700D02*
Y21300D01*
X155300D01*
Y19700D01*
X153700D01*
X143700D02*
Y21300D01*
X145300D01*
Y19700D01*
X143700D01*
X133700D02*
Y21300D01*
X135300D01*
Y19700D01*
X133700D01*
X123700Y164700D02*
Y166300D01*
X125300D01*
Y164700D01*
X123700D01*
X183700Y274700D02*
Y276300D01*
X185300D01*
Y274700D01*
X183700D01*
X173700D02*
Y276300D01*
X175300D01*
Y274700D01*
X173700D01*
X163700D02*
Y276300D01*
X165300D01*
Y274700D01*
X163700D01*
X153700D02*
Y276300D01*
X155300D01*
Y274700D01*
X153700D01*
X143700D02*
Y276300D01*
X145300D01*
Y274700D01*
X143700D01*
X133700D02*
Y276300D01*
X135300D01*
Y274700D01*
X133700D01*
X123700D02*
Y276300D01*
X125300D01*
Y274700D01*
X123700D01*
X113700D02*
Y276300D01*
X115300D01*
Y274700D01*
X113700D01*
Y164700D02*
Y166300D01*
X115300D01*
Y164700D01*
X113700D01*
X183700D02*
Y166300D01*
X185300D01*
Y164700D01*
X183700D01*
X173700D02*
Y166300D01*
X175300D01*
Y164700D01*
X173700D01*
X163700D02*
Y166300D01*
X165300D01*
Y164700D01*
X163700D01*
X153700D02*
Y166300D01*
X155300D01*
Y164700D01*
X153700D01*
X143700D02*
Y166300D01*
X145300D01*
Y164700D01*
X143700D01*
X133700D02*
Y166300D01*
X135300D01*
Y164700D01*
X133700D01*
X203000Y186200D02*
X202200Y187800D01*
X203800D01*
X203000Y186200D01*
Y130688D02*
X202200Y132288D01*
X203800D01*
X203000Y130688D01*
X221000Y186200D02*
X220200Y187800D01*
X221800D01*
X221000Y186200D01*
Y130688D02*
X220200Y132288D01*
X221800D01*
X221000Y130688D01*
X46700Y164700D02*
Y166300D01*
X48300D01*
Y164700D01*
X46700D01*
X56700D02*
Y166300D01*
X58300D01*
Y164700D01*
X56700D01*
X66700D02*
Y166300D01*
X68300D01*
Y164700D01*
X66700D01*
X76700D02*
Y166300D01*
X78300D01*
Y164700D01*
X76700D01*
X86700D02*
Y166300D01*
X88300D01*
Y164700D01*
X86700D01*
X96700D02*
Y166300D01*
X98300D01*
Y164700D01*
X96700D01*
X26700D02*
Y166300D01*
X28300D01*
Y164700D01*
X26700D01*
Y274700D02*
Y276300D01*
X28300D01*
Y274700D01*
X26700D01*
X36700D02*
Y276300D01*
X38300D01*
Y274700D01*
X36700D01*
X46700D02*
Y276300D01*
X48300D01*
Y274700D01*
X46700D01*
X56700D02*
Y276300D01*
X58300D01*
Y274700D01*
X56700D01*
X66700D02*
Y276300D01*
X68300D01*
Y274700D01*
X66700D01*
X76700D02*
Y276300D01*
X78300D01*
Y274700D01*
X76700D01*
X86700D02*
Y276300D01*
X88300D01*
Y274700D01*
X86700D01*
X96700D02*
Y276300D01*
X98300D01*
Y274700D01*
X96700D01*
X36700Y164700D02*
Y166300D01*
X38300D01*
Y164700D01*
X36700D01*
Y19700D02*
Y21300D01*
X38300D01*
Y19700D01*
X36700D01*
X96700Y129700D02*
Y131300D01*
X98300D01*
Y129700D01*
X96700D01*
X86700D02*
Y131300D01*
X88300D01*
Y129700D01*
X86700D01*
X76700D02*
Y131300D01*
X78300D01*
Y129700D01*
X76700D01*
X66700D02*
Y131300D01*
X68300D01*
Y129700D01*
X66700D01*
X56700D02*
Y131300D01*
X58300D01*
Y129700D01*
X56700D01*
X46700D02*
Y131300D01*
X48300D01*
Y129700D01*
X46700D01*
X36700D02*
Y131300D01*
X38300D01*
Y129700D01*
X36700D01*
X26700D02*
Y131300D01*
X28300D01*
Y129700D01*
X26700D01*
Y19700D02*
Y21300D01*
X28300D01*
Y19700D01*
X26700D01*
X96700D02*
Y21300D01*
X98300D01*
Y19700D01*
X96700D01*
X86700D02*
Y21300D01*
X88300D01*
Y19700D01*
X86700D01*
X76700D02*
Y21300D01*
X78300D01*
Y19700D01*
X76700D01*
X66700D02*
Y21300D01*
X68300D01*
Y19700D01*
X66700D01*
X56700D02*
Y21300D01*
X58300D01*
Y19700D01*
X56700D01*
X46700D02*
Y21300D01*
X48300D01*
Y19700D01*
X46700D01*
X167000Y74700D02*
X167400Y75100D01*
X167800D01*
X167400Y75500D01*
X167800Y75900D01*
X167400D01*
X167000Y76300D01*
X166600Y75900D01*
X166200D01*
X166600Y75500D01*
X166200Y75100D01*
X166600D01*
X167000Y74700D01*
X184500Y227700D02*
X184900Y228100D01*
X185300D01*
X184900Y228500D01*
X185300Y228900D01*
X184900D01*
X184500Y229300D01*
X184100Y228900D01*
X183700D01*
X184100Y228500D01*
X183700Y228100D01*
X184100D01*
X184500Y227700D01*
X288500Y67700D02*
X288900Y68100D01*
X289300D01*
X288900Y68500D01*
X289300Y68900D01*
X288900D01*
X288500Y69300D01*
X288100Y68900D01*
X287700D01*
X288100Y68500D01*
X287700Y68100D01*
X288100D01*
X288500Y67700D01*
X106250Y49688D02*
X106650Y50088D01*
X107050D01*
X106650Y50488D01*
X107050Y50888D01*
X106650D01*
X106250Y51288D01*
X105850Y50888D01*
X105450D01*
X105850Y50488D01*
X105450Y50088D01*
X105850D01*
X106250Y49688D01*
X84000Y76700D02*
X84400Y77100D01*
X84800D01*
X84400Y77500D01*
X84800Y77900D01*
X84400D01*
X84000Y78300D01*
X83600Y77900D01*
X83200D01*
X83600Y77500D01*
X83200Y77100D01*
X83600D01*
X84000Y76700D01*
X117000Y117200D02*
X117400Y117600D01*
X117800D01*
X117400Y118000D01*
X117800Y118400D01*
X117400D01*
X117000Y118800D01*
X116600Y118400D01*
X116200D01*
X116600Y118000D01*
X116200Y117600D01*
X116600D01*
X117000Y117200D01*
X151750Y186450D02*
X152150Y186850D01*
X152550D01*
X152150Y187250D01*
X152550Y187650D01*
X152150D01*
X151750Y188050D01*
X151350Y187650D01*
X150950D01*
X151350Y187250D01*
X150950Y186850D01*
X151350D01*
X151750Y186450D01*
X184500Y190350D02*
X184900Y190750D01*
X185300D01*
X184900Y191150D01*
X185300Y191550D01*
X184900D01*
X184500Y191950D01*
X184100Y191550D01*
X183700D01*
X184100Y191150D01*
X183700Y190750D01*
X184100D01*
X184500Y190350D01*
X177500Y199700D02*
X177900Y200100D01*
X178300D01*
X177900Y200500D01*
X178300Y200900D01*
X177900D01*
X177500Y201300D01*
X177100Y200900D01*
X176700D01*
X177100Y200500D01*
X176700Y200100D01*
X177100D01*
X177500Y199700D01*
X126804Y225700D02*
X127204Y226100D01*
X127604D01*
X127204Y226500D01*
X127604Y226900D01*
X127204D01*
X126804Y227300D01*
X126404Y226900D01*
X126004D01*
X126404Y226500D01*
X126004Y226100D01*
X126404D01*
X126804Y225700D01*
D58*
X238800Y227091D02*
G03*
X238800Y227091I-800J0D01*
G01*
Y211500D02*
G03*
X238800Y211500I-800J0D01*
G01*
Y144000D02*
G03*
X238800Y144000I-800J0D01*
G01*
Y128409D02*
G03*
X238800Y128409I-800J0D01*
G01*
X250300Y253000D02*
G03*
X250300Y253000I-800J0D01*
G01*
X265891D02*
G03*
X265891Y253000I-800J0D01*
G01*
X211210D02*
G03*
X211210Y253000I-800J0D01*
G01*
X226800D02*
G03*
X226800Y253000I-800J0D01*
G01*
X238800Y105000D02*
G03*
X238800Y105000I-800J0D01*
G01*
Y89410D02*
G03*
X238800Y89410I-800J0D01*
G01*
X210209Y62000D02*
G03*
X210209Y62000I-800J0D01*
G01*
X225800D02*
G03*
X225800Y62000I-800J0D01*
G01*
X250800D02*
G03*
X250800Y62000I-800J0D01*
G01*
X266390D02*
G03*
X266390Y62000I-800J0D01*
G01*
X238800Y167500D02*
G03*
X238800Y167500I-800J0D01*
G01*
Y183091D02*
G03*
X238800Y183091I-800J0D01*
G01*
M02*
