G04*
G04 #@! TF.GenerationSoftware,Altium Limited,Altium Designer,22.9.1 (49)*
G04*
G04 Layer_Color=16711935*
%FSLAX25Y25*%
%MOIN*%
G70*
G04*
G04 #@! TF.SameCoordinates,714AFEBF-1B90-43D1-B325-1FA160A26AE1*
G04*
G04*
G04 #@! TF.FilePolarity,Negative*
G04*
G01*
G75*
%ADD17R,0.04343X0.04540*%
%ADD19C,0.07296*%
%ADD20R,0.07001X0.07001*%
%ADD21C,0.07001*%
%ADD22C,0.10839*%
%ADD23C,0.03300*%
%ADD45R,0.06299X0.22441*%
%ADD47R,0.10642X0.09855*%
%ADD48R,0.08674X0.03202*%
%ADD49R,0.14973X0.11351*%
%ADD50R,0.03556X0.03556*%
%ADD51R,0.05328X0.03162*%
%ADD52R,0.04698X0.03871*%
D17*
X162350Y185000D02*
D03*
X168650D02*
D03*
D19*
X124500Y20500D02*
D03*
X184500Y130500D02*
D03*
X174500D02*
D03*
X164500D02*
D03*
X154500D02*
D03*
X144500D02*
D03*
X134500D02*
D03*
X124500D02*
D03*
X114500D02*
D03*
Y20500D02*
D03*
X184500D02*
D03*
X174500D02*
D03*
X164500D02*
D03*
X154500D02*
D03*
X144500D02*
D03*
X134500D02*
D03*
X124500Y165500D02*
D03*
X184500Y275500D02*
D03*
X174500D02*
D03*
X164500D02*
D03*
X154500D02*
D03*
X144500D02*
D03*
X134500D02*
D03*
X124500D02*
D03*
X114500D02*
D03*
Y165500D02*
D03*
X184500D02*
D03*
X174500D02*
D03*
X164500D02*
D03*
X154500D02*
D03*
X144500D02*
D03*
X134500D02*
D03*
X47500D02*
D03*
X57500D02*
D03*
X67500D02*
D03*
X77500D02*
D03*
X87500D02*
D03*
X97500D02*
D03*
X27500D02*
D03*
Y275500D02*
D03*
X37500D02*
D03*
X47500D02*
D03*
X57500D02*
D03*
X67500D02*
D03*
X77500D02*
D03*
X87500D02*
D03*
X97500D02*
D03*
X37500Y165500D02*
D03*
Y20500D02*
D03*
X97500Y130500D02*
D03*
X87500D02*
D03*
X77500D02*
D03*
X67500D02*
D03*
X57500D02*
D03*
X47500D02*
D03*
X37500D02*
D03*
X27500D02*
D03*
Y20500D02*
D03*
X97500D02*
D03*
X87500D02*
D03*
X77500D02*
D03*
X67500D02*
D03*
X57500D02*
D03*
X47500D02*
D03*
D20*
X203000Y187000D02*
D03*
X221000D02*
D03*
D21*
X203000Y131488D02*
D03*
X221000D02*
D03*
D22*
X238000Y227091D02*
D03*
Y211500D02*
D03*
Y144000D02*
D03*
Y128409D02*
D03*
X249500Y253000D02*
D03*
X265090D02*
D03*
X210409D02*
D03*
X226000D02*
D03*
X238000Y105000D02*
D03*
Y89410D02*
D03*
X209409Y62000D02*
D03*
X225000D02*
D03*
X250000D02*
D03*
X265591D02*
D03*
X238000Y167500D02*
D03*
Y183091D02*
D03*
D23*
X167000Y75500D02*
D03*
X184500Y228500D02*
D03*
X288500Y68500D02*
D03*
X106250Y50488D02*
D03*
X84000Y77500D02*
D03*
X117000Y118000D02*
D03*
X151750Y187250D02*
D03*
X184500Y191150D02*
D03*
X177500Y200500D02*
D03*
X126804Y226500D02*
D03*
D45*
X66500Y81500D02*
D03*
X47996D02*
D03*
X98000Y228500D02*
D03*
X79496D02*
D03*
D47*
X147000Y94205D02*
D03*
Y69795D02*
D03*
X171500Y245205D02*
D03*
Y220795D02*
D03*
D48*
X30024Y212169D02*
D03*
Y216106D02*
D03*
Y220043D02*
D03*
Y223980D02*
D03*
Y227917D02*
D03*
Y231854D02*
D03*
Y235791D02*
D03*
Y239728D02*
D03*
D49*
X19000Y200398D02*
D03*
Y251500D02*
D03*
D50*
X91000Y50488D02*
D03*
Y56000D02*
D03*
X121500Y50488D02*
D03*
Y56000D02*
D03*
X127000Y195488D02*
D03*
Y201000D02*
D03*
X149500Y195244D02*
D03*
Y200756D02*
D03*
D51*
X106500Y91740D02*
D03*
Y88000D02*
D03*
Y84260D02*
D03*
X116736D02*
D03*
Y88000D02*
D03*
Y91740D02*
D03*
X137382Y238740D02*
D03*
Y235000D02*
D03*
Y231260D02*
D03*
X147618D02*
D03*
Y235000D02*
D03*
Y238740D02*
D03*
D52*
X85500Y86744D02*
D03*
Y92256D02*
D03*
X115000Y233244D02*
D03*
Y238756D02*
D03*
M02*
