G04*
G04 #@! TF.GenerationSoftware,Altium Limited,Altium Designer,22.9.1 (49)*
G04*
G04 Layer_Color=32896*
%FSLAX25Y25*%
%MOIN*%
G70*
G04*
G04 #@! TF.SameCoordinates,714AFEBF-1B90-43D1-B325-1FA160A26AE1*
G04*
G04*
G04 #@! TF.FilePolarity,Positive*
G04*
G01*
G75*
%ADD10C,0.00394*%
%ADD12C,0.01000*%
%ADD13C,0.00787*%
%ADD53C,0.00500*%
D10*
X4827Y194610D02*
X9551D01*
X4827D02*
Y257287D01*
X9551D01*
D12*
X149666Y104833D02*
X150332Y105499D01*
X151665D01*
X152332Y104833D01*
Y102167D01*
X151665Y101501D01*
X150332D01*
X149666Y102167D01*
X148333Y104833D02*
X147667Y105499D01*
X146334D01*
X145667Y104833D01*
Y104166D01*
X146334Y103500D01*
X147000D01*
X146334D01*
X145667Y102833D01*
Y102167D01*
X146334Y101501D01*
X147667D01*
X148333Y102167D01*
X141668Y105499D02*
X144334D01*
Y103500D01*
X143001Y104166D01*
X142335D01*
X141668Y103500D01*
Y102167D01*
X142335Y101501D01*
X143668D01*
X144334Y102167D01*
X173499Y255833D02*
X174166Y256499D01*
X175499D01*
X176165Y255833D01*
Y253167D01*
X175499Y252501D01*
X174166D01*
X173499Y253167D01*
X172167Y255833D02*
X171500Y256499D01*
X170167D01*
X169501Y255833D01*
Y255166D01*
X170167Y254500D01*
X170834D01*
X170167D01*
X169501Y253834D01*
Y253167D01*
X170167Y252501D01*
X171500D01*
X172167Y253167D01*
X168168Y252501D02*
X166835D01*
X167501D01*
Y256499D01*
X168168Y255833D01*
X28257Y260949D02*
Y264948D01*
X26258D01*
X25591Y264282D01*
Y262949D01*
X26258Y262282D01*
X28257D01*
X21592Y260949D02*
X24258D01*
X21592Y263615D01*
Y264282D01*
X22259Y264948D01*
X23592D01*
X24258Y264282D01*
X20259Y261616D02*
X19593Y260949D01*
X18260D01*
X17594Y261616D01*
Y264282D01*
X18260Y264948D01*
X19593D01*
X20259Y264282D01*
Y263615D01*
X19593Y262949D01*
X17594D01*
X119100Y101999D02*
Y98666D01*
X118433Y98000D01*
X117101D01*
X116434Y98666D01*
Y101999D01*
X112435D02*
X115101D01*
Y99999D01*
X113768Y100666D01*
X113102D01*
X112435Y99999D01*
Y98666D01*
X113102Y98000D01*
X114435D01*
X115101Y98666D01*
X150000Y248999D02*
Y245666D01*
X149334Y245000D01*
X148001D01*
X147334Y245666D01*
Y248999D01*
X144002Y245000D02*
Y248999D01*
X146001Y246999D01*
X143335D01*
X170500Y191100D02*
Y195099D01*
X168501D01*
X167834Y194432D01*
Y193099D01*
X168501Y192433D01*
X170500D01*
X169167D02*
X167834Y191100D01*
X166501Y194432D02*
X165835Y195099D01*
X164502D01*
X163836Y194432D01*
Y193766D01*
X164502Y193099D01*
X165168D01*
X164502D01*
X163836Y192433D01*
Y191767D01*
X164502Y191100D01*
X165835D01*
X166501Y191767D01*
X160503Y191100D02*
Y195099D01*
X162503Y193099D01*
X159837D01*
X69400Y101499D02*
Y97500D01*
X66734D01*
X62735D02*
X65401D01*
X62735Y100166D01*
Y100832D01*
X63402Y101499D01*
X64735D01*
X65401Y100832D01*
X100900Y248499D02*
Y244500D01*
X98234D01*
X96901D02*
X95568D01*
X96235D01*
Y248499D01*
X96901Y247832D01*
X96268Y71132D02*
X96935Y71798D01*
X98268D01*
X98934Y71132D01*
Y68466D01*
X98268Y67800D01*
X96935D01*
X96268Y68466D01*
X94936Y71132D02*
X94269Y71798D01*
X92936D01*
X92270Y71132D01*
Y70465D01*
X92936Y69799D01*
X93603D01*
X92936D01*
X92270Y69133D01*
Y68466D01*
X92936Y67800D01*
X94269D01*
X94936Y68466D01*
X90937Y71132D02*
X90270Y71798D01*
X88937D01*
X88271Y71132D01*
Y70465D01*
X88937Y69799D01*
X88271Y69133D01*
Y68466D01*
X88937Y67800D01*
X90270D01*
X90937Y68466D01*
Y69133D01*
X90270Y69799D01*
X90937Y70465D01*
Y71132D01*
X90270Y69799D02*
X88937D01*
X126768Y71076D02*
X127435Y71742D01*
X128768D01*
X129434Y71076D01*
Y68410D01*
X128768Y67744D01*
X127435D01*
X126768Y68410D01*
X125435Y71076D02*
X124769Y71742D01*
X123436D01*
X122770Y71076D01*
Y70410D01*
X123436Y69743D01*
X124103D01*
X123436D01*
X122770Y69077D01*
Y68410D01*
X123436Y67744D01*
X124769D01*
X125435Y68410D01*
X121437Y71742D02*
X118771D01*
Y71076D01*
X121437Y68410D01*
Y67744D01*
X94468Y101832D02*
X95135Y102498D01*
X96468D01*
X97134Y101832D01*
Y99166D01*
X96468Y98500D01*
X95135D01*
X94468Y99166D01*
X93135Y101832D02*
X92469Y102498D01*
X91136D01*
X90470Y101832D01*
Y101165D01*
X91136Y100499D01*
X91803D01*
X91136D01*
X90470Y99833D01*
Y99166D01*
X91136Y98500D01*
X92469D01*
X93135Y99166D01*
X86471Y102498D02*
X87804Y101832D01*
X89137Y100499D01*
Y99166D01*
X88470Y98500D01*
X87137D01*
X86471Y99166D01*
Y99833D01*
X87137Y100499D01*
X89137D01*
X132268Y216076D02*
X132935Y216742D01*
X134268D01*
X134934Y216076D01*
Y213410D01*
X134268Y212744D01*
X132935D01*
X132268Y213410D01*
X130936Y216076D02*
X130269Y216742D01*
X128936D01*
X128270Y216076D01*
Y215410D01*
X128936Y214743D01*
X129603D01*
X128936D01*
X128270Y214077D01*
Y213410D01*
X128936Y212744D01*
X130269D01*
X130936Y213410D01*
X124937Y212744D02*
Y216742D01*
X126937Y214743D01*
X124271D01*
X154768Y215832D02*
X155435Y216498D01*
X156768D01*
X157434Y215832D01*
Y213166D01*
X156768Y212500D01*
X155435D01*
X154768Y213166D01*
X153436Y215832D02*
X152769Y216498D01*
X151436D01*
X150770Y215832D01*
Y215165D01*
X151436Y214499D01*
X152103D01*
X151436D01*
X150770Y213833D01*
Y213166D01*
X151436Y212500D01*
X152769D01*
X153436Y213166D01*
X149437Y215832D02*
X148770Y216498D01*
X147437D01*
X146771Y215832D01*
Y215165D01*
X147437Y214499D01*
X148104D01*
X147437D01*
X146771Y213833D01*
Y213166D01*
X147437Y212500D01*
X148770D01*
X149437Y213166D01*
X123968Y248288D02*
X124635Y248954D01*
X125968D01*
X126634Y248288D01*
Y245622D01*
X125968Y244956D01*
X124635D01*
X123968Y245622D01*
X122635Y248288D02*
X121969Y248954D01*
X120636D01*
X119970Y248288D01*
Y247621D01*
X120636Y246955D01*
X121303D01*
X120636D01*
X119970Y246288D01*
Y245622D01*
X120636Y244956D01*
X121969D01*
X122635Y245622D01*
X115971Y244956D02*
X118637D01*
X115971Y247621D01*
Y248288D01*
X116637Y248954D01*
X117970D01*
X118637Y248288D01*
D13*
X91197Y59346D02*
G03*
X91197Y59346I-197J0D01*
G01*
X121697D02*
G03*
X121697Y59346I-197J0D01*
G01*
X127197Y204346D02*
G03*
X127197Y204346I-197J0D01*
G01*
X149697Y204102D02*
G03*
X149697Y204102I-197J0D01*
G01*
X138437Y67630D02*
Y98732D01*
X155563Y67630D02*
Y96370D01*
X162937Y218630D02*
Y249732D01*
X180063Y218630D02*
Y247370D01*
X114472Y94299D02*
X119000D01*
X113094Y82291D02*
Y93709D01*
X110142Y82291D02*
X113094D01*
X110142D02*
Y93709D01*
X113094D01*
X52622Y93705D02*
X61874D01*
X52622Y69295D02*
X61874D01*
X84122Y240705D02*
X93374D01*
X84122Y216295D02*
X93374D01*
X145354Y241299D02*
X149882D01*
X143976Y229291D02*
Y240709D01*
X141024Y229291D02*
X143976D01*
X141024D02*
Y240709D01*
X143976D01*
X165500Y183819D02*
Y186181D01*
D53*
X125500Y92999D02*
Y91666D01*
X124834Y91000D01*
X124167Y91666D01*
Y92999D01*
X122168D02*
X123501D01*
Y92000D01*
X122834Y92333D01*
X122501D01*
X122168Y92000D01*
Y91333D01*
X122501Y91000D01*
X123167D01*
X123501Y91333D01*
X125500Y85499D02*
Y84166D01*
X124834Y83500D01*
X124167Y84166D01*
Y85499D01*
X123501Y83500D02*
X122834D01*
X123167D01*
Y85499D01*
X123501Y85166D01*
X120502Y83500D02*
X121835D01*
X120502Y84833D01*
Y85166D01*
X120835Y85499D01*
X121501D01*
X121835Y85166D01*
X101167D02*
X101500Y85499D01*
X102167D01*
X102500Y85166D01*
Y83833D01*
X102167Y83500D01*
X101500D01*
X101167Y83833D01*
Y84500D01*
X101834D01*
X100501Y83500D02*
Y85499D01*
X99168Y83500D01*
Y85499D01*
X98501D02*
Y83500D01*
X97502D01*
X97168Y83833D01*
Y85166D01*
X97502Y85499D01*
X98501D01*
X101167Y88666D02*
X101500Y88999D01*
X102167D01*
X102500Y88666D01*
Y88333D01*
X102167Y88000D01*
X101500D01*
X101167Y87666D01*
Y87333D01*
X101500Y87000D01*
X102167D01*
X102500Y87333D01*
X100501Y88999D02*
Y87000D01*
X99834Y87666D01*
X99168Y87000D01*
Y88999D01*
X131667Y235666D02*
X132000Y235999D01*
X132667D01*
X133000Y235666D01*
Y235333D01*
X132667Y235000D01*
X132000D01*
X131667Y234666D01*
Y234333D01*
X132000Y234000D01*
X132667D01*
X133000Y234333D01*
X131001Y235999D02*
Y234000D01*
X130334Y234666D01*
X129668Y234000D01*
Y235999D01*
X131667Y232166D02*
X132000Y232499D01*
X132667D01*
X133000Y232166D01*
Y230833D01*
X132667Y230500D01*
X132000D01*
X131667Y230833D01*
Y231500D01*
X132334D01*
X131001Y230500D02*
Y232499D01*
X129668Y230500D01*
Y232499D01*
X129001D02*
Y230500D01*
X128002D01*
X127668Y230833D01*
Y232166D01*
X128002Y232499D01*
X129001D01*
X156000D02*
Y231166D01*
X155333Y230500D01*
X154667Y231166D01*
Y232499D01*
X154001Y230500D02*
X153334D01*
X153667D01*
Y232499D01*
X154001Y232166D01*
X151002Y230500D02*
X152334D01*
X151002Y231833D01*
Y232166D01*
X151335Y232499D01*
X152001D01*
X152334Y232166D01*
X156000Y239999D02*
Y238666D01*
X155333Y238000D01*
X154667Y238666D01*
Y239999D01*
X152668D02*
X154001D01*
Y239000D01*
X153334Y239333D01*
X153001D01*
X152668Y239000D01*
Y238333D01*
X153001Y238000D01*
X153667D01*
X154001Y238333D01*
X44500Y232999D02*
Y231000D01*
X43500D01*
X43167Y231333D01*
Y232666D01*
X43500Y232999D01*
X44500D01*
X42501D02*
X41834D01*
X42167D01*
Y231000D01*
X42501D01*
X41834D01*
X40835D02*
Y232999D01*
X39835D01*
X39502Y232666D01*
Y232000D01*
X39835Y231666D01*
X40835D01*
X40168D02*
X39502Y231000D01*
X37502D02*
X38835D01*
X37502Y232333D01*
Y232666D01*
X37835Y232999D01*
X38502D01*
X38835Y232666D01*
X44500Y234500D02*
Y236499D01*
X43500D01*
X43167Y236166D01*
Y235500D01*
X43500Y235166D01*
X44500D01*
X42501Y236499D02*
Y234500D01*
X41834Y235166D01*
X41168Y234500D01*
Y236499D01*
X40501Y234500D02*
Y236499D01*
X39835Y235833D01*
X39168Y236499D01*
Y234500D01*
X38502D02*
X37835D01*
X38169D01*
Y236499D01*
X38502Y236166D01*
X44500Y240499D02*
Y238500D01*
X43500D01*
X43167Y238833D01*
Y240166D01*
X43500Y240499D01*
X44500D01*
X42501D02*
X41834D01*
X42167D01*
Y238500D01*
X42501D01*
X41834D01*
X40835D02*
Y240499D01*
X39835D01*
X39502Y240166D01*
Y239500D01*
X39835Y239166D01*
X40835D01*
X40168D02*
X39502Y238500D01*
X38835D02*
X38169D01*
X38502D01*
Y240499D01*
X38835Y240166D01*
X44500Y227000D02*
Y228999D01*
X43500D01*
X43167Y228666D01*
Y228000D01*
X43500Y227666D01*
X44500D01*
X42501Y228999D02*
Y227000D01*
X41834Y227666D01*
X41168Y227000D01*
Y228999D01*
X40501Y227000D02*
Y228999D01*
X39835Y228333D01*
X39168Y228999D01*
Y227000D01*
X37169D02*
X38502D01*
X37169Y228333D01*
Y228666D01*
X37502Y228999D01*
X38169D01*
X38502Y228666D01*
X44500Y224999D02*
Y223000D01*
X43500D01*
X43167Y223333D01*
Y224666D01*
X43500Y224999D01*
X44500D01*
X42501D02*
X41834D01*
X42167D01*
Y223000D01*
X42501D01*
X41834D01*
X40835D02*
Y224999D01*
X39835D01*
X39502Y224666D01*
Y224000D01*
X39835Y223666D01*
X40835D01*
X40168D02*
X39502Y223000D01*
X38835Y224666D02*
X38502Y224999D01*
X37835D01*
X37502Y224666D01*
Y224333D01*
X37835Y224000D01*
X38169D01*
X37835D01*
X37502Y223666D01*
Y223333D01*
X37835Y223000D01*
X38502D01*
X38835Y223333D01*
X44500Y219000D02*
Y220999D01*
X43500D01*
X43167Y220666D01*
Y220000D01*
X43500Y219666D01*
X44500D01*
X42501Y220999D02*
Y219000D01*
X41834Y219666D01*
X41168Y219000D01*
Y220999D01*
X40501Y219000D02*
Y220999D01*
X39835Y220333D01*
X39168Y220999D01*
Y219000D01*
X38502Y220666D02*
X38169Y220999D01*
X37502D01*
X37169Y220666D01*
Y220333D01*
X37502Y220000D01*
X37835D01*
X37502D01*
X37169Y219666D01*
Y219333D01*
X37502Y219000D01*
X38169D01*
X38502Y219333D01*
X44500Y216999D02*
Y215000D01*
X43500D01*
X43167Y215333D01*
Y216666D01*
X43500Y216999D01*
X44500D01*
X42501D02*
X41834D01*
X42167D01*
Y215000D01*
X42501D01*
X41834D01*
X40835D02*
Y216999D01*
X39835D01*
X39502Y216666D01*
Y216000D01*
X39835Y215666D01*
X40835D01*
X40168D02*
X39502Y215000D01*
X37835D02*
Y216999D01*
X38835Y216000D01*
X37502D01*
X44500Y211000D02*
Y212999D01*
X43500D01*
X43167Y212666D01*
Y212000D01*
X43500Y211666D01*
X44500D01*
X42501Y212999D02*
Y211000D01*
X41834Y211666D01*
X41168Y211000D01*
Y212999D01*
X40501Y211000D02*
Y212999D01*
X39835Y212333D01*
X39168Y212999D01*
Y211000D01*
X37502D02*
Y212999D01*
X38502Y212000D01*
X37169D01*
M02*
