G04*
G04 #@! TF.GenerationSoftware,Altium Limited,Altium Designer,22.9.1 (49)*
G04*
G04 Layer_Physical_Order=3*
G04 Layer_Color=128*
%FSLAX25Y25*%
%MOIN*%
G70*
G04*
G04 #@! TF.SameCoordinates,714AFEBF-1B90-43D1-B325-1FA160A26AE1*
G04*
G04*
G04 #@! TF.FilePolarity,Negative*
G04*
G01*
G75*
%ADD12C,0.01000*%
%ADD32C,0.04000*%
%ADD33C,0.08331*%
G04:AMPARAMS|DCode=34|XSize=103.307mil|YSize=103.307mil|CornerRadius=0mil|HoleSize=0mil|Usage=FLASHONLY|Rotation=0.000|XOffset=0mil|YOffset=0mil|HoleType=Round|Shape=Relief|Width=10mil|Gap=10mil|Entries=4|*
%AMTHD34*
7,0,0,0.10331,0.08331,0.01000,45*
%
%ADD34THD34*%
%ADD35C,0.08134*%
%ADD36C,0.10693*%
G04:AMPARAMS|DCode=37|XSize=126.929mil|YSize=126.929mil|CornerRadius=0mil|HoleSize=0mil|Usage=FLASHONLY|Rotation=0.000|XOffset=0mil|YOffset=0mil|HoleType=Round|Shape=Relief|Width=10mil|Gap=10mil|Entries=4|*
%AMTHD37*
7,0,0,0.12693,0.10693,0.01000,45*
%
%ADD37THD37*%
%ADD38C,0.05500*%
G04:AMPARAMS|DCode=39|XSize=75mil|YSize=75mil|CornerRadius=0mil|HoleSize=0mil|Usage=FLASHONLY|Rotation=0.000|XOffset=0mil|YOffset=0mil|HoleType=Round|Shape=Relief|Width=10mil|Gap=10mil|Entries=4|*
%AMTHD39*
7,0,0,0.07500,0.05500,0.01000,45*
%
%ADD39THD39*%
G36*
X288958Y279808D02*
X289868Y279431D01*
X290687Y278884D01*
X291384Y278187D01*
X291931Y277368D01*
X292308Y276458D01*
X292500Y275493D01*
Y275000D01*
Y274507D01*
X292308Y273542D01*
X291931Y272632D01*
X291384Y271813D01*
X290687Y271116D01*
X289868Y270569D01*
X288958Y270192D01*
X287993Y270000D01*
X287007D01*
X286042Y270192D01*
X285132Y270569D01*
X284313Y271116D01*
X283616Y271813D01*
X283069Y272632D01*
X282692Y273542D01*
X282500Y274507D01*
Y275000D01*
Y275493D01*
X282692Y276458D01*
X283069Y277368D01*
X283616Y278187D01*
X284313Y278884D01*
X285132Y279431D01*
X286042Y279808D01*
X287007Y280000D01*
X287993D01*
X288958Y279808D01*
D02*
G37*
G36*
X13958D02*
X14868Y279431D01*
X15687Y278884D01*
X16384Y278187D01*
X16931Y277368D01*
X17308Y276458D01*
X17500Y275493D01*
Y275000D01*
Y274507D01*
X17308Y273542D01*
X16931Y272632D01*
X16384Y271813D01*
X15687Y271116D01*
X14868Y270569D01*
X13958Y270192D01*
X12992Y270000D01*
X12008D01*
X11041Y270192D01*
X10132Y270569D01*
X9313Y271116D01*
X8616Y271813D01*
X8069Y272632D01*
X7692Y273542D01*
X7500Y274507D01*
Y275000D01*
Y275493D01*
X7692Y276458D01*
X8069Y277368D01*
X8616Y278187D01*
X9313Y278884D01*
X10132Y279431D01*
X11041Y279808D01*
X12008Y280000D01*
X12992D01*
X13958Y279808D01*
D02*
G37*
G36*
X288958Y24808D02*
X289868Y24431D01*
X290687Y23884D01*
X291384Y23187D01*
X291931Y22368D01*
X292308Y21458D01*
X292500Y20492D01*
Y20000D01*
Y19508D01*
X292308Y18542D01*
X291931Y17632D01*
X291384Y16813D01*
X290687Y16116D01*
X289868Y15569D01*
X288958Y15192D01*
X287993Y15000D01*
X287007D01*
X286042Y15192D01*
X285132Y15569D01*
X284313Y16116D01*
X283616Y16813D01*
X283069Y17632D01*
X282692Y18542D01*
X282500Y19508D01*
Y20000D01*
Y20492D01*
X282692Y21458D01*
X283069Y22368D01*
X283616Y23187D01*
X284313Y23884D01*
X285132Y24431D01*
X286042Y24808D01*
X287007Y25000D01*
X287993D01*
X288958Y24808D01*
D02*
G37*
G36*
X13958D02*
X14868Y24431D01*
X15687Y23884D01*
X16384Y23187D01*
X16931Y22368D01*
X17308Y21458D01*
X17500Y20492D01*
Y20000D01*
Y19508D01*
X17308Y18542D01*
X16931Y17632D01*
X16384Y16813D01*
X15687Y16116D01*
X14868Y15569D01*
X13958Y15192D01*
X12992Y15000D01*
X12008D01*
X11041Y15192D01*
X10132Y15569D01*
X9313Y16116D01*
X8616Y16813D01*
X8069Y17632D01*
X7692Y18542D01*
X7500Y19508D01*
Y20000D01*
Y20492D01*
X7692Y21458D01*
X8069Y22368D01*
X8616Y23187D01*
X9313Y23884D01*
X10132Y24431D01*
X11041Y24808D01*
X12008Y25000D01*
X12992D01*
X13958Y24808D01*
D02*
G37*
D12*
X234000Y156500D02*
X240000D01*
X207000Y208500D02*
X216000Y217500D01*
X81500Y43500D02*
X130500D01*
X73000Y52000D02*
X81500Y43500D01*
X127000Y111500D02*
X135000Y103500D01*
X110500Y111500D02*
X127000D01*
X104000Y118000D02*
X110500Y111500D01*
X104000Y118000D02*
Y171500D01*
X73000Y52000D02*
Y243000D01*
X104000Y171500D02*
X107500Y175000D01*
X130500Y43500D02*
X135000Y48000D01*
Y103500D01*
X107500Y175000D02*
X194000D01*
X73000Y243000D02*
X78000Y248000D01*
X154000D01*
X203000Y156500D02*
X234000D01*
X240000D02*
X245000Y161500D01*
X196500Y163000D02*
X203000Y156500D01*
X196500Y163000D02*
Y172500D01*
X194000Y175000D02*
X196500Y172500D01*
X181000Y182500D02*
X203500D01*
X207000Y186000D01*
X245000Y161500D02*
Y213000D01*
X166500Y197000D02*
X181000Y182500D01*
X154000Y248000D02*
X160000D01*
X166500Y241500D01*
Y197000D02*
Y241500D01*
X207000Y186000D02*
Y208500D01*
X216000Y217500D02*
X240500D01*
X245000Y213000D01*
D32*
X12992Y25000D02*
X13958Y24808D01*
X14868Y24431D01*
X15687Y23884D01*
X16384Y23187D01*
X16931Y22368D01*
X17308Y21458D01*
X17500Y20492D01*
Y20000D02*
Y20492D01*
Y19508D02*
Y20000D01*
X17308Y18542D02*
X17500Y19508D01*
X16931Y17632D02*
X17308Y18542D01*
X16384Y16813D02*
X16931Y17632D01*
X15687Y16116D02*
X16384Y16813D01*
X14868Y15569D02*
X15687Y16116D01*
X13958Y15192D02*
X14868Y15569D01*
X12992Y15000D02*
X13958Y15192D01*
X12008Y15000D02*
X12992D01*
X11041Y15192D02*
X12008Y15000D01*
X10132Y15569D02*
X11041Y15192D01*
X9313Y16116D02*
X10132Y15569D01*
X8616Y16813D02*
X9313Y16116D01*
X8069Y17632D02*
X8616Y16813D01*
X7692Y18542D02*
X8069Y17632D01*
X7500Y19508D02*
X7692Y18542D01*
X7500Y19508D02*
Y20000D01*
Y20492D01*
X7692Y21458D01*
X8069Y22368D01*
X8616Y23187D01*
X9313Y23884D01*
X10132Y24431D01*
X11041Y24808D01*
X12008Y25000D01*
X12992D01*
X287993D02*
X288958Y24808D01*
X289868Y24431D01*
X290687Y23884D01*
X291384Y23187D01*
X291931Y22368D01*
X292308Y21458D01*
X292500Y20492D01*
Y20000D02*
Y20492D01*
Y19508D02*
Y20000D01*
X292308Y18542D02*
X292500Y19508D01*
X291931Y17632D02*
X292308Y18542D01*
X291384Y16813D02*
X291931Y17632D01*
X290687Y16116D02*
X291384Y16813D01*
X289868Y15569D02*
X290687Y16116D01*
X288958Y15192D02*
X289868Y15569D01*
X287993Y15000D02*
X288958Y15192D01*
X287007Y15000D02*
X287993D01*
X286042Y15192D02*
X287007Y15000D01*
X285132Y15569D02*
X286042Y15192D01*
X284313Y16116D02*
X285132Y15569D01*
X283616Y16813D02*
X284313Y16116D01*
X283069Y17632D02*
X283616Y16813D01*
X282692Y18542D02*
X283069Y17632D01*
X282500Y19508D02*
X282692Y18542D01*
X282500Y19508D02*
Y20000D01*
Y20492D01*
X282692Y21458D01*
X283069Y22368D01*
X283616Y23187D01*
X284313Y23884D01*
X285132Y24431D01*
X286042Y24808D01*
X287007Y25000D01*
X287993D01*
Y280000D02*
X288958Y279808D01*
X289868Y279431D01*
X290687Y278884D01*
X291384Y278187D01*
X291931Y277368D01*
X292308Y276458D01*
X292500Y275493D01*
Y275000D02*
Y275493D01*
Y274507D02*
Y275000D01*
X292308Y273542D02*
X292500Y274507D01*
X291931Y272632D02*
X292308Y273542D01*
X291384Y271813D02*
X291931Y272632D01*
X290687Y271116D02*
X291384Y271813D01*
X289868Y270569D02*
X290687Y271116D01*
X288958Y270192D02*
X289868Y270569D01*
X287993Y270000D02*
X288958Y270192D01*
X287007Y270000D02*
X287993D01*
X286042Y270192D02*
X287007Y270000D01*
X285132Y270569D02*
X286042Y270192D01*
X284313Y271116D02*
X285132Y270569D01*
X283616Y271813D02*
X284313Y271116D01*
X283069Y272632D02*
X283616Y271813D01*
X282692Y273542D02*
X283069Y272632D01*
X282500Y274507D02*
X282692Y273542D01*
X282500Y274507D02*
Y275000D01*
Y275493D01*
X282692Y276458D01*
X283069Y277368D01*
X283616Y278187D01*
X284313Y278884D01*
X285132Y279431D01*
X286042Y279808D01*
X287007Y280000D01*
X287993D01*
X12992D02*
X13958Y279808D01*
X14868Y279431D01*
X15687Y278884D01*
X16384Y278187D01*
X16931Y277368D01*
X17308Y276458D01*
X17500Y275493D01*
Y275000D02*
Y275493D01*
Y274507D02*
Y275000D01*
X17308Y273542D02*
X17500Y274507D01*
X16931Y272632D02*
X17308Y273542D01*
X16384Y271813D02*
X16931Y272632D01*
X15687Y271116D02*
X16384Y271813D01*
X14868Y270569D02*
X15687Y271116D01*
X13958Y270192D02*
X14868Y270569D01*
X12992Y270000D02*
X13958Y270192D01*
X12008Y270000D02*
X12992D01*
X11041Y270192D02*
X12008Y270000D01*
X10132Y270569D02*
X11041Y270192D01*
X9313Y271116D02*
X10132Y270569D01*
X8616Y271813D02*
X9313Y271116D01*
X8069Y272632D02*
X8616Y271813D01*
X7692Y273542D02*
X8069Y272632D01*
X7500Y274507D02*
X7692Y273542D01*
X7500Y274507D02*
Y275000D01*
Y275493D01*
X7692Y276458D01*
X8069Y277368D01*
X8616Y278187D01*
X9313Y278884D01*
X10132Y279431D01*
X11041Y279808D01*
X12008Y280000D01*
X12992D01*
X15000Y0D02*
X285000D01*
X300000Y15000D01*
Y300000D01*
X285000Y315000D02*
X300000Y300000D01*
X15000Y315000D02*
X285000D01*
X-0Y300000D02*
X15000Y315000D01*
X-0Y300000D02*
X0Y15000D01*
X15000Y0D01*
D33*
X124500Y20500D02*
D03*
X184500Y130500D02*
D03*
X174500D02*
D03*
X164500D02*
D03*
X154500D02*
D03*
X144500D02*
D03*
X134500D02*
D03*
X184500Y20500D02*
D03*
X174500D02*
D03*
X164500D02*
D03*
X154500D02*
D03*
X144500D02*
D03*
X134500D02*
D03*
X124500Y165500D02*
D03*
X184500Y275500D02*
D03*
X174500D02*
D03*
X164500D02*
D03*
X154500D02*
D03*
X144500D02*
D03*
X134500D02*
D03*
X184500Y165500D02*
D03*
X174500D02*
D03*
X164500D02*
D03*
X154500D02*
D03*
X144500D02*
D03*
X134500D02*
D03*
X47500D02*
D03*
X57500D02*
D03*
X67500D02*
D03*
X77500D02*
D03*
X87500D02*
D03*
X97500D02*
D03*
X47500Y275500D02*
D03*
X57500D02*
D03*
X67500D02*
D03*
X77500D02*
D03*
X87500D02*
D03*
X97500D02*
D03*
X37500Y165500D02*
D03*
Y20500D02*
D03*
X97500Y130500D02*
D03*
X87500D02*
D03*
X77500D02*
D03*
X67500D02*
D03*
X57500D02*
D03*
X47500D02*
D03*
X97500Y20500D02*
D03*
X87500D02*
D03*
X77500D02*
D03*
X67500D02*
D03*
X57500D02*
D03*
X47500D02*
D03*
D34*
X124500Y130500D02*
D03*
X114500D02*
D03*
Y20500D02*
D03*
X124500Y275500D02*
D03*
X114500D02*
D03*
Y165500D02*
D03*
X27500D02*
D03*
Y275500D02*
D03*
X37500D02*
D03*
Y130500D02*
D03*
X27500D02*
D03*
Y20500D02*
D03*
D35*
X203000Y187000D02*
D03*
Y131488D02*
D03*
X221000Y187000D02*
D03*
Y131488D02*
D03*
D36*
X238000Y227091D02*
D03*
Y144000D02*
D03*
Y128409D02*
D03*
X249500Y253000D02*
D03*
X265090D02*
D03*
X210409D02*
D03*
X226000D02*
D03*
X238000Y105000D02*
D03*
X209409Y62000D02*
D03*
X225000D02*
D03*
X250000D02*
D03*
X265591D02*
D03*
X238000Y183091D02*
D03*
D37*
Y211500D02*
D03*
Y89410D02*
D03*
Y167500D02*
D03*
D38*
X117000Y118000D02*
D03*
X177500Y200500D02*
D03*
D39*
X167000Y75500D02*
D03*
X184500Y228500D02*
D03*
X288500Y68500D02*
D03*
X106250Y50488D02*
D03*
X84000Y77500D02*
D03*
X151750Y187250D02*
D03*
X184500Y191150D02*
D03*
X126804Y226500D02*
D03*
M02*
