M48
;Layer_Color=9474304
;FILE_FORMAT=2:5
INCH,LZ
;TYPE=PLATED
T1F00S00C0.01500
T2F00S00C0.04134
T3F00S00C0.04331
T4F00S00C0.06693
%
T01
X010625Y0050488
X0084Y00775
X0117Y0118
X0167Y00755
X02885Y00685
X01845Y019115
X01775Y02005
X01845Y02285
X0126804Y02265
X015175Y018725
T02
X0203Y0131488
X0221
Y0187
X0203
T03
X00275Y00205
X00375
X00475
X00575
X00675
X00775
X00875
X00975
X01145
X01245
X01345
X01445
X01545
Y01305
X01445
X01345
X01245
X01145
X00975
X00875
X00775
X00675
X00575
X00475
X00375
X00275
X01645
X01745
X01845
Y00205
X01745
X01645
Y01655
X01745
X01845
Y02755
X01745
X01645
X01545
X01445
X01345
X01245
X01145
X00975
X00875
X00775
X00675
X00575
X00475
X00375
X00275
Y01655
X00375
X00475
X00575
X00675
X00775
X00875
X00975
X01145
X01245
X01345
X01445
X01545
T04
X0209409Y0062
X0225
X025
X0265591
X0238Y008941
Y0105
Y0128409
Y0144
Y01675
Y0183091
Y02115
Y0227091
X02495Y0253
X026509
X0226
X0210409
M30
