G04*
G04 #@! TF.GenerationSoftware,Altium Limited,Altium Designer,22.9.1 (49)*
G04*
G04 Layer_Color=128*
%FSLAX25Y25*%
%MOIN*%
G70*
G04*
G04 #@! TF.SameCoordinates,714AFEBF-1B90-43D1-B325-1FA160A26AE1*
G04*
G04*
G04 #@! TF.FilePolarity,Positive*
G04*
G01*
G75*
%ADD14R,0.03543X0.03740*%
%ADD40R,0.09843X0.09055*%
%ADD41R,0.07874X0.02402*%
%ADD42R,0.14173X0.10551*%
%ADD43R,0.02756X0.02756*%
%ADD44R,0.04528X0.02362*%
%ADD45R,0.06299X0.22441*%
%ADD46R,0.03898X0.03071*%
D14*
X162350Y185000D02*
D03*
X168650D02*
D03*
D40*
X147000Y94205D02*
D03*
Y69795D02*
D03*
X171500Y245205D02*
D03*
Y220795D02*
D03*
D41*
X30024Y212169D02*
D03*
Y216106D02*
D03*
Y220043D02*
D03*
Y223980D02*
D03*
Y227917D02*
D03*
Y231854D02*
D03*
Y235791D02*
D03*
Y239728D02*
D03*
D42*
X19000Y200398D02*
D03*
Y251500D02*
D03*
D43*
X91000Y50488D02*
D03*
Y56000D02*
D03*
X121500Y50488D02*
D03*
Y56000D02*
D03*
X127000Y195488D02*
D03*
Y201000D02*
D03*
X149500Y195244D02*
D03*
Y200756D02*
D03*
D44*
X106500Y91740D02*
D03*
Y88000D02*
D03*
Y84260D02*
D03*
X116736D02*
D03*
Y88000D02*
D03*
Y91740D02*
D03*
X137382Y238740D02*
D03*
Y235000D02*
D03*
Y231260D02*
D03*
X147618D02*
D03*
Y235000D02*
D03*
Y238740D02*
D03*
D45*
X66500Y81500D02*
D03*
X47996D02*
D03*
X98000Y228500D02*
D03*
X79496D02*
D03*
D46*
X85500Y86744D02*
D03*
Y92256D02*
D03*
X115000Y233244D02*
D03*
Y238756D02*
D03*
M02*
