G04*
G04 #@! TF.GenerationSoftware,Altium Limited,Altium Designer,22.9.1 (49)*
G04*
G04 Layer_Color=16711935*
%FSLAX25Y25*%
%MOIN*%
G70*
G04*
G04 #@! TF.SameCoordinates,714AFEBF-1B90-43D1-B325-1FA160A26AE1*
G04*
G04*
G04 #@! TF.FilePolarity,Positive*
G04*
G01*
G75*
%ADD12C,0.01000*%
%ADD54C,0.03000*%
%ADD55C,0.00600*%
D12*
X292500Y20000D02*
G03*
X292500Y20000I-5000J0D01*
G01*
Y275000D02*
G03*
X292500Y275000I-5000J0D01*
G01*
X17500Y20000D02*
G03*
X17500Y20000I-5000J0D01*
G01*
Y275000D02*
G03*
X17500Y275000I-5000J0D01*
G01*
X109500Y15500D02*
X189500D01*
Y25500D01*
X109500D02*
X189500D01*
X109500Y15500D02*
Y25500D01*
X189500Y125500D02*
Y145500D01*
X119500D02*
X189500D01*
X109500Y135500D02*
Y145500D01*
X119500D01*
X109500Y160500D02*
X189500D01*
Y170500D01*
X109500D02*
X189500D01*
X109500Y160500D02*
Y170500D01*
X189500Y270500D02*
Y290500D01*
X119500D02*
X189500D01*
X109500Y280500D02*
Y290500D01*
X119500D01*
X22500D02*
X32500D01*
X22500Y280500D02*
Y290500D01*
X32500D02*
X102500D01*
Y270500D02*
Y290500D01*
X22500Y160500D02*
Y170500D01*
X102500D01*
Y160500D02*
Y170500D01*
X22500Y160500D02*
X102500D01*
X22500Y15500D02*
X102500D01*
Y25500D01*
X22500D02*
X102500D01*
X22500Y15500D02*
Y25500D01*
X102500Y125500D02*
Y145500D01*
X32500D02*
X102500D01*
X22500Y135500D02*
Y145500D01*
X32500D01*
X0Y348500D02*
X6000Y350500D01*
X0Y348500D02*
X6000Y346500D01*
X294000D02*
X300000Y348500D01*
X294000Y350500D02*
X300000Y348500D01*
X0D02*
X127306D01*
X169494D02*
X300000D01*
X0Y339000D02*
Y349500D01*
X300000Y338000D02*
Y349500D01*
X364000Y6000D02*
X366000Y0D01*
X368000Y6000D01*
X366000Y315000D02*
X368000Y309000D01*
X364000D02*
X366000Y315000D01*
Y0D02*
Y135306D01*
Y176494D02*
Y315000D01*
X332000Y0D02*
X367000D01*
X343000Y315000D02*
X367000D01*
D54*
X300000Y15000D02*
Y300000D01*
X15000Y315000D02*
X285000D01*
X300000Y300000D01*
X-0D02*
X0Y15000D01*
Y300000D02*
X15000Y315000D01*
X285000Y0D02*
X300000Y15000D01*
X0D02*
X15000Y0D01*
X285000D01*
D55*
X128906Y349899D02*
X129906Y350899D01*
X131905D01*
X132905Y349899D01*
Y348900D01*
X131905Y347900D01*
X130906D01*
X131905D01*
X132905Y346900D01*
Y345901D01*
X131905Y344901D01*
X129906D01*
X128906Y345901D01*
X134904Y349899D02*
X135904Y350899D01*
X137903D01*
X138903Y349899D01*
Y345901D01*
X137903Y344901D01*
X135904D01*
X134904Y345901D01*
Y349899D01*
X140902D02*
X141902Y350899D01*
X143901D01*
X144901Y349899D01*
Y345901D01*
X143901Y344901D01*
X141902D01*
X140902Y345901D01*
Y349899D01*
X146900D02*
X147900Y350899D01*
X149899D01*
X150899Y349899D01*
Y345901D01*
X149899Y344901D01*
X147900D01*
X146900Y345901D01*
Y349899D01*
X152899Y344901D02*
Y345901D01*
X153898D01*
Y344901D01*
X152899D01*
X157897Y349899D02*
X158897Y350899D01*
X160896D01*
X161896Y349899D01*
Y345901D01*
X160896Y344901D01*
X158897D01*
X157897Y345901D01*
Y349899D01*
X163895D02*
X164895Y350899D01*
X166894D01*
X167894Y349899D01*
Y345901D01*
X166894Y344901D01*
X164895D01*
X163895Y345901D01*
Y349899D01*
X364601Y136906D02*
X363601Y137906D01*
Y139905D01*
X364601Y140905D01*
X365600D01*
X366600Y139905D01*
Y138906D01*
Y139905D01*
X367600Y140905D01*
X368599D01*
X369599Y139905D01*
Y137906D01*
X368599Y136906D01*
X369599Y142904D02*
Y144904D01*
Y143904D01*
X363601D01*
X364601Y142904D01*
X363601Y151901D02*
Y147903D01*
X366600D01*
X365600Y149902D01*
Y150902D01*
X366600Y151901D01*
X368599D01*
X369599Y150902D01*
Y148902D01*
X368599Y147903D01*
X364601Y153901D02*
X363601Y154900D01*
Y156900D01*
X364601Y157899D01*
X368599D01*
X369599Y156900D01*
Y154900D01*
X368599Y153901D01*
X364601D01*
X369599Y159899D02*
X368599D01*
Y160898D01*
X369599D01*
Y159899D01*
X364601Y164897D02*
X363601Y165897D01*
Y167896D01*
X364601Y168896D01*
X368599D01*
X369599Y167896D01*
Y165897D01*
X368599Y164897D01*
X364601D01*
Y170895D02*
X363601Y171895D01*
Y173894D01*
X364601Y174894D01*
X368599D01*
X369599Y173894D01*
Y171895D01*
X368599Y170895D01*
X364601D01*
M02*
