G04*
G04 #@! TF.GenerationSoftware,Altium Limited,Altium Designer,22.9.1 (49)*
G04*
G04 Layer_Color=8388736*
%FSLAX25Y25*%
%MOIN*%
G70*
G04*
G04 #@! TF.SameCoordinates,714AFEBF-1B90-43D1-B325-1FA160A26AE1*
G04*
G04*
G04 #@! TF.FilePolarity,Negative*
G04*
G01*
G75*
%ADD15R,0.03150X0.02953*%
%ADD17R,0.04343X0.04540*%
%ADD18R,0.11863X0.04068*%
%ADD19C,0.07296*%
%ADD20R,0.07001X0.07001*%
%ADD21C,0.07001*%
%ADD22C,0.10839*%
%ADD23C,0.03300*%
D15*
X259850Y196500D02*
D03*
X266150D02*
D03*
X260350Y240500D02*
D03*
X266650D02*
D03*
X275150Y74500D02*
D03*
X268850D02*
D03*
D17*
X256150D02*
D03*
X249850D02*
D03*
X239650Y196500D02*
D03*
X233350D02*
D03*
X232850Y240500D02*
D03*
X239150D02*
D03*
D18*
X210500Y110035D02*
D03*
Y96965D02*
D03*
D19*
X124500Y20500D02*
D03*
X184500Y130500D02*
D03*
X174500D02*
D03*
X164500D02*
D03*
X154500D02*
D03*
X144500D02*
D03*
X134500D02*
D03*
X124500D02*
D03*
X114500D02*
D03*
Y20500D02*
D03*
X184500D02*
D03*
X174500D02*
D03*
X164500D02*
D03*
X154500D02*
D03*
X144500D02*
D03*
X134500D02*
D03*
X124500Y165500D02*
D03*
X184500Y275500D02*
D03*
X174500D02*
D03*
X164500D02*
D03*
X154500D02*
D03*
X144500D02*
D03*
X134500D02*
D03*
X124500D02*
D03*
X114500D02*
D03*
Y165500D02*
D03*
X184500D02*
D03*
X174500D02*
D03*
X164500D02*
D03*
X154500D02*
D03*
X144500D02*
D03*
X134500D02*
D03*
X47500D02*
D03*
X57500D02*
D03*
X67500D02*
D03*
X77500D02*
D03*
X87500D02*
D03*
X97500D02*
D03*
X27500D02*
D03*
Y275500D02*
D03*
X37500D02*
D03*
X47500D02*
D03*
X57500D02*
D03*
X67500D02*
D03*
X77500D02*
D03*
X87500D02*
D03*
X97500D02*
D03*
X37500Y165500D02*
D03*
Y20500D02*
D03*
X97500Y130500D02*
D03*
X87500D02*
D03*
X77500D02*
D03*
X67500D02*
D03*
X57500D02*
D03*
X47500D02*
D03*
X37500D02*
D03*
X27500D02*
D03*
Y20500D02*
D03*
X97500D02*
D03*
X87500D02*
D03*
X77500D02*
D03*
X67500D02*
D03*
X57500D02*
D03*
X47500D02*
D03*
D20*
X203000Y187000D02*
D03*
X221000D02*
D03*
D21*
X203000Y131488D02*
D03*
X221000D02*
D03*
D22*
X238000Y227091D02*
D03*
Y211500D02*
D03*
Y144000D02*
D03*
Y128409D02*
D03*
X249500Y253000D02*
D03*
X265090D02*
D03*
X210409D02*
D03*
X226000D02*
D03*
X238000Y105000D02*
D03*
Y89410D02*
D03*
X209409Y62000D02*
D03*
X225000D02*
D03*
X250000D02*
D03*
X265591D02*
D03*
X238000Y167500D02*
D03*
Y183091D02*
D03*
D23*
X167000Y75500D02*
D03*
X184500Y228500D02*
D03*
X288500Y68500D02*
D03*
X106250Y50488D02*
D03*
X84000Y77500D02*
D03*
X117000Y118000D02*
D03*
X151750Y187250D02*
D03*
X184500Y191150D02*
D03*
X177500Y200500D02*
D03*
X126804Y226500D02*
D03*
M02*
