G04*
G04 #@! TF.GenerationSoftware,Altium Limited,Altium Designer,22.9.1 (49)*
G04*
G04 Layer_Color=32768*
%FSLAX25Y25*%
%MOIN*%
G70*
G04*
G04 #@! TF.SameCoordinates,714AFEBF-1B90-43D1-B325-1FA160A26AE1*
G04*
G04*
G04 #@! TF.FilePolarity,Positive*
G04*
G01*
G75*
%ADD10C,0.00394*%
%ADD13C,0.00787*%
D10*
X138437Y67630D02*
Y96370D01*
Y67630D02*
X155563D01*
Y96370D01*
X138437D02*
X155563D01*
X138437Y91843D02*
X142965Y96370D01*
X162937Y218630D02*
Y247370D01*
Y218630D02*
X180063D01*
Y247370D01*
X162937D02*
X180063D01*
X162937Y242843D02*
X167465Y247370D01*
X111028Y93709D02*
X114768Y89969D01*
Y82291D02*
Y93709D01*
X108468Y82291D02*
X114768D01*
X108468D02*
Y93709D01*
X114768D01*
X83906Y92650D02*
X87094D01*
Y86350D02*
Y92650D01*
X83906Y86350D02*
X87094D01*
X83906D02*
Y92650D01*
X141909Y240709D02*
X145650Y236968D01*
Y229291D02*
Y240709D01*
X139350Y229291D02*
X145650D01*
X139350D02*
Y240709D01*
X145650D01*
X113406Y239150D02*
X116595D01*
Y232850D02*
Y239150D01*
X113406Y232850D02*
X116595D01*
X113406D02*
Y239150D01*
X162350Y183425D02*
X168650D01*
Y186575D01*
X162350D02*
X168650D01*
X162350Y183425D02*
Y186575D01*
D13*
X26087Y194610D02*
Y257287D01*
X4827D02*
X26087D01*
X4827Y194610D02*
Y257287D01*
Y194610D02*
X26087D01*
X89425Y56787D02*
X92575D01*
Y49701D02*
Y56787D01*
X89425Y49701D02*
X92575D01*
X89425D02*
Y56787D01*
X45043Y93705D02*
X69453D01*
X45043Y69295D02*
Y93705D01*
Y69295D02*
X69453D01*
Y93705D01*
X119925Y56787D02*
X123075D01*
Y49701D02*
Y56787D01*
X119925Y49701D02*
X123075D01*
X119925D02*
Y56787D01*
X125425Y201787D02*
X128575D01*
Y194701D02*
Y201787D01*
X125425Y194701D02*
X128575D01*
X125425D02*
Y201787D01*
X76543Y240705D02*
X100953D01*
X76543Y216295D02*
Y240705D01*
Y216295D02*
X100953D01*
Y240705D01*
X147925Y201543D02*
X151075D01*
Y194457D02*
Y201543D01*
X147925Y194457D02*
X151075D01*
X147925D02*
Y201543D01*
M02*
