G04*
G04 #@! TF.GenerationSoftware,Altium Limited,Altium Designer,22.9.1 (49)*
G04*
G04 Layer_Color=65535*
%FSLAX25Y25*%
%MOIN*%
G70*
G04*
G04 #@! TF.SameCoordinates,714AFEBF-1B90-43D1-B325-1FA160A26AE1*
G04*
G04*
G04 #@! TF.FilePolarity,Positive*
G04*
G01*
G75*
%ADD10C,0.00394*%
%ADD11C,0.00984*%
%ADD12C,0.01000*%
%ADD13C,0.00787*%
G36*
X58100Y254250D02*
X58800D01*
Y254075D01*
X59325D01*
Y253900D01*
X59675D01*
Y253725D01*
X60025D01*
Y253550D01*
X60200D01*
Y253375D01*
X60375D01*
Y253200D01*
X60550D01*
Y253025D01*
X60725D01*
Y252850D01*
X60900D01*
Y252675D01*
X61075D01*
Y252325D01*
X61250D01*
Y251975D01*
X61425D01*
Y251450D01*
X61600D01*
Y249175D01*
X61075D01*
Y249350D01*
X60375D01*
Y249525D01*
X59675D01*
Y249700D01*
X58800D01*
Y249875D01*
X58100D01*
Y250050D01*
X57400D01*
Y250225D01*
X54075D01*
Y250400D01*
X53025D01*
Y251100D01*
X53200D01*
Y251275D01*
X53375D01*
Y251450D01*
X53550D01*
Y251625D01*
X53725D01*
Y251975D01*
X53900D01*
Y252150D01*
X54075D01*
Y252325D01*
X54250D01*
Y252500D01*
Y252675D01*
X54425D01*
Y252850D01*
X54600D01*
Y253025D01*
X54775D01*
Y253200D01*
X54950D01*
Y253375D01*
X55125D01*
Y253550D01*
X55300D01*
Y253725D01*
X55475D01*
Y253900D01*
X55825D01*
Y254075D01*
X56175D01*
Y254250D01*
X56700D01*
Y254425D01*
X56875D01*
Y254250D01*
X57050D01*
Y254425D01*
X57750D01*
Y254250D01*
X57925D01*
Y254425D01*
X58100D01*
Y254250D01*
D02*
G37*
G36*
X40950Y252325D02*
X41300D01*
Y252150D01*
X41475D01*
Y251800D01*
X41650D01*
Y251625D01*
X41825D01*
Y251275D01*
X42000D01*
Y251100D01*
X42175D01*
Y250925D01*
X42350D01*
Y251100D01*
X42525D01*
Y251275D01*
X42875D01*
Y251450D01*
X43050D01*
Y251625D01*
X43225D01*
Y251800D01*
X43575D01*
Y251975D01*
X43750D01*
Y252150D01*
X44100D01*
Y251100D01*
X44275D01*
Y250750D01*
X44450D01*
Y250575D01*
X44800D01*
Y250400D01*
X46375D01*
Y250575D01*
X46725D01*
Y250050D01*
X46550D01*
Y249175D01*
X46375D01*
Y248825D01*
X46200D01*
Y248650D01*
X46025D01*
Y248475D01*
X45850D01*
Y248300D01*
X45675D01*
Y248125D01*
X45500D01*
Y247950D01*
X45325D01*
Y247600D01*
X45150D01*
Y247425D01*
X44975D01*
Y247250D01*
X44800D01*
Y247075D01*
X44625D01*
Y246900D01*
X44450D01*
Y246725D01*
X44275D01*
Y246550D01*
X44100D01*
Y246375D01*
X43925D01*
Y246025D01*
X43750D01*
Y245850D01*
X43575D01*
Y245675D01*
X43400D01*
Y245500D01*
X43225D01*
Y245325D01*
X43050D01*
Y245150D01*
X42875D01*
Y244975D01*
X42700D01*
Y244800D01*
X42525D01*
Y244625D01*
X40600D01*
Y244450D01*
X40250D01*
Y244275D01*
X40075D01*
Y242000D01*
X39900D01*
Y241825D01*
X39725D01*
Y241650D01*
X39550D01*
Y241475D01*
X39375D01*
Y241125D01*
X39200D01*
Y240950D01*
X39025D01*
Y240775D01*
X38850D01*
Y240600D01*
X38675D01*
Y240425D01*
X38500D01*
Y240250D01*
X38325D01*
Y240075D01*
X38150D01*
Y239900D01*
X37975D01*
Y239725D01*
X37800D01*
Y239550D01*
X37625D01*
Y239375D01*
X37450D01*
Y239200D01*
X37275D01*
Y238850D01*
X37100D01*
Y238675D01*
X36925D01*
Y238500D01*
X36750D01*
Y238325D01*
X36575D01*
Y238150D01*
X36400D01*
Y237975D01*
X36225D01*
Y237800D01*
X36050D01*
Y237625D01*
X35875D01*
Y237450D01*
X35700D01*
Y237275D01*
X35525D01*
Y237100D01*
X35350D01*
Y236925D01*
X35175D01*
Y236575D01*
X35000D01*
Y236925D01*
X34825D01*
Y237625D01*
X35000D01*
Y237975D01*
X35175D01*
Y238325D01*
X35350D01*
Y239025D01*
X35175D01*
Y239200D01*
X34475D01*
Y239025D01*
X33950D01*
Y238850D01*
X33600D01*
Y239025D01*
X33250D01*
Y239200D01*
X33075D01*
Y239900D01*
X33250D01*
Y240250D01*
X33425D01*
Y240425D01*
X33600D01*
Y240600D01*
X33775D01*
Y240775D01*
X33950D01*
Y240950D01*
X34125D01*
Y241300D01*
X33600D01*
Y241475D01*
X33075D01*
Y241650D01*
X32725D01*
Y241825D01*
X32375D01*
Y242000D01*
X32025D01*
Y242350D01*
X32200D01*
Y242525D01*
X32375D01*
Y242875D01*
X32725D01*
Y243050D01*
X32900D01*
Y243225D01*
X33250D01*
Y243400D01*
X33425D01*
Y243575D01*
X33600D01*
Y243925D01*
X33425D01*
Y244100D01*
X33075D01*
Y244275D01*
X32900D01*
Y244450D01*
X32550D01*
Y244625D01*
X32375D01*
Y244800D01*
X32200D01*
Y245150D01*
X32025D01*
Y245500D01*
X32375D01*
Y245675D01*
X32550D01*
Y245850D01*
X33600D01*
Y246025D01*
X33950D01*
Y246725D01*
X33775D01*
Y246900D01*
X33600D01*
Y247075D01*
X33425D01*
Y247425D01*
X33250D01*
Y247950D01*
X33075D01*
Y248300D01*
X33775D01*
Y248475D01*
X34300D01*
Y248300D01*
X35175D01*
Y248475D01*
X35350D01*
Y249175D01*
X35175D01*
Y249525D01*
X35000D01*
Y250575D01*
X35525D01*
Y250400D01*
X36400D01*
Y250225D01*
X36750D01*
Y250050D01*
X36925D01*
Y249875D01*
X37100D01*
Y250225D01*
X37275D01*
Y250750D01*
X37450D01*
Y251450D01*
X37625D01*
Y252150D01*
X37975D01*
Y251975D01*
X38150D01*
Y251800D01*
X38500D01*
Y251625D01*
X38675D01*
Y251450D01*
X39025D01*
Y251275D01*
X39375D01*
Y251100D01*
X39725D01*
Y251275D01*
X39900D01*
Y251625D01*
X40075D01*
Y251800D01*
X40250D01*
Y251975D01*
X40425D01*
Y252150D01*
X40600D01*
Y252325D01*
X40775D01*
Y252500D01*
X40950D01*
Y252325D01*
D02*
G37*
G36*
X90650Y227825D02*
X91525D01*
Y227650D01*
X92050D01*
Y227475D01*
X92925D01*
Y227300D01*
X93625D01*
Y227475D01*
X95375D01*
Y226775D01*
X95200D01*
Y225900D01*
X95025D01*
Y225550D01*
X94850D01*
Y225375D01*
X94675D01*
Y225200D01*
X93450D01*
Y225375D01*
X92925D01*
Y225550D01*
X92400D01*
Y225725D01*
X91175D01*
Y225550D01*
X90650D01*
Y225375D01*
X90475D01*
Y225200D01*
X90300D01*
Y225025D01*
X90125D01*
Y224850D01*
X89950D01*
Y224675D01*
X89775D01*
Y224325D01*
X89600D01*
Y223800D01*
X89425D01*
Y223100D01*
X89250D01*
Y222575D01*
X89075D01*
Y222050D01*
X88900D01*
Y221350D01*
X88725D01*
Y220825D01*
X88550D01*
Y220125D01*
X88375D01*
Y219600D01*
X88200D01*
Y219075D01*
X88025D01*
Y218375D01*
X87850D01*
Y217850D01*
X87675D01*
Y217150D01*
X87500D01*
Y216625D01*
X87325D01*
Y215925D01*
X87150D01*
Y215750D01*
Y215400D01*
X86975D01*
Y214875D01*
X86800D01*
Y214175D01*
X86625D01*
Y213650D01*
X86450D01*
Y212950D01*
X86275D01*
Y212425D01*
X86100D01*
Y211900D01*
X85925D01*
Y211725D01*
X85400D01*
Y211900D01*
X84700D01*
Y212075D01*
X84175D01*
Y212250D01*
X83475D01*
Y212775D01*
X83650D01*
Y213300D01*
X83825D01*
Y214000D01*
X84000D01*
Y214525D01*
X84175D01*
Y215050D01*
X84350D01*
Y215750D01*
X84525D01*
Y216275D01*
X84700D01*
Y216975D01*
X84875D01*
Y217500D01*
X85050D01*
Y218200D01*
X85225D01*
Y218725D01*
X85400D01*
Y219250D01*
X85575D01*
Y219950D01*
X85750D01*
Y220475D01*
X85925D01*
Y221175D01*
X86100D01*
Y221700D01*
X86275D01*
Y222225D01*
X86450D01*
Y222925D01*
X86625D01*
Y223450D01*
X86800D01*
Y223975D01*
X86975D01*
Y224675D01*
X87150D01*
Y225200D01*
X87325D01*
Y225900D01*
X86975D01*
Y225725D01*
X86275D01*
Y225550D01*
X85750D01*
Y225375D01*
X85050D01*
Y225200D01*
X84525D01*
Y225025D01*
X83825D01*
Y224850D01*
X83300D01*
Y224675D01*
X82950D01*
Y225550D01*
X83125D01*
Y225900D01*
X83300D01*
Y226075D01*
X83475D01*
Y226250D01*
X83650D01*
Y226425D01*
X83825D01*
Y226600D01*
X84175D01*
Y226775D01*
X84525D01*
Y226950D01*
X84875D01*
Y227125D01*
X85225D01*
Y227300D01*
X85750D01*
Y227475D01*
X86275D01*
Y227650D01*
X86800D01*
Y227825D01*
X87675D01*
Y228000D01*
X90650D01*
Y227825D01*
D02*
G37*
G36*
X50575Y249875D02*
X51625D01*
Y249700D01*
X53025D01*
Y249525D01*
X54250D01*
Y249350D01*
X55300D01*
Y249175D01*
X56700D01*
Y249000D01*
X57750D01*
Y248825D01*
X58975D01*
Y248650D01*
X60025D01*
Y248475D01*
X61425D01*
Y248300D01*
X62650D01*
Y248125D01*
X63700D01*
Y247950D01*
X65100D01*
Y247775D01*
X66325D01*
Y247600D01*
X67375D01*
Y247425D01*
X67900D01*
Y247250D01*
X68075D01*
Y247075D01*
X68425D01*
Y246900D01*
X68600D01*
Y246725D01*
X68775D01*
Y246550D01*
X68950D01*
Y246375D01*
X69125D01*
Y246025D01*
X69300D01*
Y245850D01*
X69475D01*
Y245500D01*
X69650D01*
Y245325D01*
X69825D01*
Y244975D01*
X70000D01*
Y244625D01*
X70175D01*
Y244450D01*
X70350D01*
Y244100D01*
X70525D01*
Y243925D01*
X70700D01*
Y243575D01*
X70875D01*
Y243400D01*
X71050D01*
Y243050D01*
X71225D01*
Y242875D01*
X71400D01*
Y242525D01*
X71575D01*
Y242350D01*
X71750D01*
Y242000D01*
X71925D01*
Y241825D01*
X72100D01*
Y241475D01*
X72275D01*
Y241125D01*
X72450D01*
Y240950D01*
X72625D01*
Y240600D01*
X72800D01*
Y240425D01*
X72975D01*
Y240075D01*
X73150D01*
Y239900D01*
X73325D01*
Y239550D01*
X73500D01*
Y239375D01*
X73675D01*
Y239025D01*
X73850D01*
Y238850D01*
X74025D01*
Y238500D01*
X74200D01*
Y238325D01*
X74375D01*
Y237975D01*
X74550D01*
Y237800D01*
X74725D01*
Y237450D01*
X74900D01*
Y237275D01*
X75075D01*
Y236925D01*
X75250D01*
Y236750D01*
X75425D01*
Y236400D01*
X75600D01*
Y236225D01*
X75775D01*
Y235875D01*
X75950D01*
Y235700D01*
X76125D01*
Y235350D01*
X76300D01*
Y235175D01*
X76475D01*
Y234825D01*
X76650D01*
Y234650D01*
X76825D01*
Y234300D01*
X77000D01*
Y233950D01*
X77175D01*
Y233600D01*
X77350D01*
Y233250D01*
X77525D01*
Y232550D01*
X77700D01*
Y231150D01*
X77875D01*
Y228525D01*
X78050D01*
Y225725D01*
X78225D01*
Y222925D01*
X78400D01*
Y220300D01*
X78225D01*
Y219775D01*
X78050D01*
Y219425D01*
X77875D01*
Y219075D01*
X77700D01*
Y218725D01*
X77525D01*
Y218550D01*
X77350D01*
Y218200D01*
X77175D01*
Y218025D01*
X77000D01*
Y217675D01*
X76825D01*
Y217500D01*
X76650D01*
Y217325D01*
X76475D01*
Y216975D01*
X76300D01*
Y216800D01*
X76125D01*
Y216625D01*
X75950D01*
Y216275D01*
X75775D01*
Y216100D01*
X75600D01*
Y215925D01*
X75425D01*
Y215750D01*
X75250D01*
Y215575D01*
X75075D01*
Y215400D01*
X74900D01*
Y215225D01*
X74725D01*
Y215050D01*
X74550D01*
Y214875D01*
X74375D01*
Y214700D01*
X74200D01*
Y214525D01*
X74025D01*
Y214350D01*
X73675D01*
Y214175D01*
X73500D01*
Y214000D01*
X73325D01*
Y213825D01*
X72975D01*
Y213650D01*
X72800D01*
Y213475D01*
X72625D01*
Y213300D01*
X72275D01*
Y213125D01*
X71925D01*
Y212950D01*
X71750D01*
Y212775D01*
X71400D01*
Y212600D01*
X71050D01*
Y212425D01*
X70700D01*
Y212250D01*
X70350D01*
Y212075D01*
X70000D01*
Y211900D01*
X69475D01*
Y211725D01*
X68950D01*
Y211550D01*
X68425D01*
Y211375D01*
X67900D01*
Y211200D01*
X67200D01*
Y211025D01*
X66150D01*
Y210850D01*
X64925D01*
Y210675D01*
X63525D01*
Y210500D01*
X62125D01*
Y210325D01*
X61075D01*
Y210150D01*
X60025D01*
Y209975D01*
X58800D01*
Y209800D01*
X57575D01*
Y209625D01*
X56525D01*
Y209450D01*
X55300D01*
Y209275D01*
X55125D01*
Y209450D01*
X54950D01*
Y209800D01*
X48650D01*
Y209975D01*
X47950D01*
Y210150D01*
X47425D01*
Y210325D01*
X47250D01*
Y210500D01*
X46900D01*
Y210675D01*
X46550D01*
Y210850D01*
X46375D01*
Y211025D01*
X46025D01*
Y211200D01*
X45675D01*
Y211375D01*
X45325D01*
Y211550D01*
X45150D01*
Y211725D01*
X44800D01*
Y211900D01*
X44625D01*
Y212075D01*
X44275D01*
Y212250D01*
X43925D01*
Y212425D01*
X43750D01*
Y212600D01*
X43400D01*
Y212775D01*
X43050D01*
Y212950D01*
X42875D01*
Y213125D01*
X42525D01*
Y213300D01*
X42175D01*
Y213475D01*
X42000D01*
Y213650D01*
X41650D01*
Y213825D01*
X41475D01*
Y214000D01*
X41125D01*
Y214175D01*
X40950D01*
Y214350D01*
X40600D01*
Y214525D01*
X40425D01*
Y214700D01*
X40075D01*
Y214875D01*
X39900D01*
Y215050D01*
X39550D01*
Y215225D01*
X39375D01*
Y215400D01*
X39200D01*
Y215575D01*
X39025D01*
Y215750D01*
X38850D01*
Y216100D01*
X38675D01*
Y216275D01*
X38500D01*
Y216625D01*
X38325D01*
Y216975D01*
X38150D01*
Y217850D01*
X37975D01*
Y218550D01*
X37800D01*
Y219425D01*
X37625D01*
Y220300D01*
X37450D01*
Y221000D01*
X37275D01*
Y221875D01*
X37100D01*
Y222750D01*
X36925D01*
Y223625D01*
X36750D01*
Y224325D01*
X36575D01*
Y225200D01*
X36400D01*
Y226075D01*
X36225D01*
Y226950D01*
X36050D01*
Y227825D01*
X35875D01*
Y228700D01*
X35700D01*
Y229750D01*
X35525D01*
Y230625D01*
X35350D01*
Y231500D01*
X35175D01*
Y232375D01*
X35000D01*
Y233425D01*
X34825D01*
Y234475D01*
X35000D01*
Y235175D01*
X35175D01*
Y235525D01*
X35350D01*
Y235875D01*
X35525D01*
Y236050D01*
X35700D01*
Y236225D01*
X35875D01*
Y236400D01*
X36050D01*
Y236575D01*
X36225D01*
Y236925D01*
X36400D01*
Y237100D01*
X36575D01*
Y237275D01*
X36750D01*
Y237450D01*
X36925D01*
Y237625D01*
X37100D01*
Y237800D01*
X37275D01*
Y237975D01*
X37450D01*
Y238150D01*
X37625D01*
Y238325D01*
X37800D01*
Y238500D01*
X37975D01*
Y238675D01*
X38150D01*
Y239025D01*
X38325D01*
Y239200D01*
X38500D01*
Y239375D01*
X38675D01*
Y239550D01*
X38850D01*
Y239725D01*
X39025D01*
Y239900D01*
X39200D01*
Y240075D01*
X39375D01*
Y240250D01*
X39550D01*
Y240425D01*
X39725D01*
Y240600D01*
X39900D01*
Y240775D01*
X40075D01*
Y240950D01*
X40250D01*
Y241300D01*
X40425D01*
Y241475D01*
X40600D01*
Y241650D01*
X40775D01*
Y241825D01*
X40950D01*
Y242000D01*
X41125D01*
Y242175D01*
X41300D01*
Y242350D01*
X41475D01*
Y242525D01*
X41650D01*
Y242700D01*
X41825D01*
Y242875D01*
X42000D01*
Y243050D01*
X42175D01*
Y243225D01*
X42350D01*
Y243575D01*
X42525D01*
Y243750D01*
X42700D01*
Y243925D01*
X42875D01*
Y244100D01*
X43050D01*
Y244275D01*
X43225D01*
Y244450D01*
X43400D01*
Y244625D01*
X43575D01*
Y244800D01*
X43750D01*
Y244975D01*
X43925D01*
Y245150D01*
X44100D01*
Y245325D01*
X44275D01*
Y245500D01*
X44450D01*
Y245675D01*
X44625D01*
Y245850D01*
X44800D01*
Y246200D01*
X44975D01*
Y246375D01*
X45150D01*
Y246550D01*
X45325D01*
Y246725D01*
X45500D01*
Y246900D01*
X45675D01*
Y247075D01*
X45850D01*
Y247250D01*
X46025D01*
Y247425D01*
X46200D01*
Y247600D01*
X46375D01*
Y247775D01*
X46550D01*
Y247950D01*
X46725D01*
Y248125D01*
X46900D01*
Y248300D01*
X47075D01*
Y248475D01*
X47250D01*
Y248650D01*
X47425D01*
Y249000D01*
X47600D01*
Y249175D01*
X47775D01*
Y249350D01*
X47950D01*
Y249525D01*
X48125D01*
Y249700D01*
X48475D01*
Y249875D01*
X48825D01*
Y250050D01*
X50575D01*
Y249875D01*
D02*
G37*
G36*
X83650Y215400D02*
X83825D01*
Y215050D01*
X83650D01*
Y214350D01*
X83475D01*
Y213650D01*
X83300D01*
Y212950D01*
X83125D01*
Y212250D01*
X82950D01*
Y211725D01*
X83125D01*
Y211550D01*
X83650D01*
Y211375D01*
X84175D01*
Y211200D01*
X84875D01*
Y211025D01*
X85400D01*
Y210850D01*
X86100D01*
Y210675D01*
X86275D01*
Y210325D01*
X86100D01*
Y210150D01*
X85925D01*
Y209800D01*
X85750D01*
Y209625D01*
X85575D01*
Y209275D01*
X85400D01*
Y209100D01*
X85225D01*
Y208925D01*
X85050D01*
Y208575D01*
X84875D01*
Y208400D01*
X84700D01*
Y208225D01*
X84525D01*
Y208050D01*
X84350D01*
Y207875D01*
X84175D01*
Y207700D01*
X84000D01*
Y207525D01*
X83825D01*
Y207350D01*
X83650D01*
Y207175D01*
X83300D01*
Y207000D01*
X83125D01*
Y206825D01*
X82600D01*
Y206650D01*
X81550D01*
Y206825D01*
X81200D01*
Y207000D01*
X81025D01*
Y207175D01*
X80850D01*
Y207350D01*
X80675D01*
Y207525D01*
X80500D01*
Y207875D01*
X80325D01*
Y208050D01*
X80150D01*
Y208400D01*
X79975D01*
Y208575D01*
X79800D01*
Y208925D01*
X79625D01*
Y209275D01*
X79450D01*
Y209800D01*
X79275D01*
Y210675D01*
X79450D01*
Y211200D01*
X79625D01*
Y211550D01*
X79800D01*
Y211725D01*
X79975D01*
Y211900D01*
X80150D01*
Y212075D01*
X80325D01*
Y212250D01*
X80500D01*
Y212425D01*
X80675D01*
Y212600D01*
X80850D01*
Y212775D01*
X81025D01*
Y212950D01*
X81200D01*
Y213125D01*
X81375D01*
Y213300D01*
X81550D01*
Y213475D01*
X81725D01*
Y213650D01*
X81900D01*
Y214000D01*
X82075D01*
Y214175D01*
X82250D01*
Y214350D01*
X82425D01*
Y214525D01*
X82600D01*
Y214700D01*
X82775D01*
Y214875D01*
X82950D01*
Y215050D01*
X83125D01*
Y215400D01*
X83300D01*
Y215575D01*
X83650D01*
Y215400D01*
D02*
G37*
G36*
X75950Y209100D02*
X76300D01*
Y208750D01*
X76125D01*
Y208225D01*
X75950D01*
Y207700D01*
X75775D01*
Y207175D01*
X75600D01*
Y206650D01*
X75425D01*
Y206125D01*
X75250D01*
Y205600D01*
X75075D01*
Y204900D01*
X74900D01*
Y204550D01*
X74725D01*
Y203850D01*
X74550D01*
Y203325D01*
X74375D01*
Y202800D01*
X74200D01*
Y202275D01*
X74025D01*
Y201925D01*
X73850D01*
Y201225D01*
X73675D01*
Y200700D01*
X73500D01*
Y200175D01*
X73325D01*
Y199650D01*
X73150D01*
Y199125D01*
X72975D01*
Y198600D01*
X72800D01*
Y198075D01*
X72625D01*
Y197550D01*
X72450D01*
Y197025D01*
X72275D01*
Y196500D01*
X72100D01*
Y195975D01*
X71925D01*
Y195450D01*
X71750D01*
Y195275D01*
X71050D01*
Y195450D01*
X70525D01*
Y195625D01*
X69650D01*
Y195800D01*
X69125D01*
Y195975D01*
X68425D01*
Y196150D01*
X67725D01*
Y196325D01*
X67200D01*
Y196500D01*
X66675D01*
Y196675D01*
X66150D01*
Y196850D01*
X65800D01*
Y197025D01*
X65275D01*
Y197200D01*
X64750D01*
Y197375D01*
X64400D01*
Y197550D01*
X63875D01*
Y197725D01*
X63525D01*
Y197900D01*
X63000D01*
Y198075D01*
X62650D01*
Y198250D01*
X62125D01*
Y198425D01*
X61775D01*
Y198600D01*
X61425D01*
Y198775D01*
X60900D01*
Y198950D01*
X60550D01*
Y199125D01*
X60025D01*
Y199300D01*
X59675D01*
Y199475D01*
X59150D01*
Y199650D01*
X58800D01*
Y199825D01*
X58450D01*
Y200000D01*
X57925D01*
Y200175D01*
X57225D01*
Y200350D01*
X55475D01*
Y200175D01*
X54950D01*
Y200000D01*
X54600D01*
Y199825D01*
X54250D01*
Y199650D01*
X53900D01*
Y199475D01*
X53725D01*
Y199300D01*
X53550D01*
Y199125D01*
X53200D01*
Y198950D01*
X52850D01*
Y198775D01*
X52150D01*
Y198600D01*
X51975D01*
Y198950D01*
X52150D01*
Y199125D01*
X52325D01*
Y199300D01*
X52500D01*
Y199650D01*
X52675D01*
Y199825D01*
X52850D01*
Y200175D01*
X53025D01*
Y200350D01*
X53200D01*
Y200700D01*
X53375D01*
Y200875D01*
X53550D01*
Y201225D01*
X53725D01*
Y201400D01*
X53900D01*
Y201750D01*
X54075D01*
Y201925D01*
X54250D01*
Y202275D01*
X54425D01*
Y202450D01*
X54600D01*
Y202800D01*
X54775D01*
Y202975D01*
X54950D01*
Y203325D01*
X55125D01*
Y203500D01*
X55300D01*
Y203850D01*
X55475D01*
Y204025D01*
X55650D01*
Y204200D01*
X55825D01*
Y204550D01*
X56000D01*
Y204725D01*
X56175D01*
Y205075D01*
X56350D01*
Y205250D01*
X56525D01*
Y205425D01*
X57050D01*
Y205600D01*
X57925D01*
Y205425D01*
X59500D01*
Y205250D01*
X61250D01*
Y205075D01*
X62475D01*
Y204900D01*
X63875D01*
Y204725D01*
X66500D01*
Y204900D01*
X67375D01*
Y205075D01*
X67900D01*
Y205250D01*
X68425D01*
Y205425D01*
X68775D01*
Y205600D01*
X69125D01*
Y205775D01*
X69475D01*
Y205950D01*
X69650D01*
Y206125D01*
X70000D01*
Y206300D01*
X70175D01*
Y206475D01*
X70525D01*
Y206650D01*
X70700D01*
Y206825D01*
X70875D01*
Y207000D01*
X71050D01*
Y207175D01*
X71225D01*
Y207350D01*
X71400D01*
Y207525D01*
X71575D01*
Y207700D01*
X71750D01*
Y207875D01*
X71925D01*
Y208050D01*
X72100D01*
Y208225D01*
X72275D01*
Y208400D01*
X72450D01*
Y208575D01*
X72800D01*
Y208750D01*
X72975D01*
Y208925D01*
X73325D01*
Y209100D01*
X73850D01*
Y209275D01*
X75950D01*
Y209100D01*
D02*
G37*
G36*
X46725Y207350D02*
X47250D01*
Y207175D01*
X47600D01*
Y207000D01*
X47950D01*
Y206825D01*
X48475D01*
Y206650D01*
X48825D01*
Y206475D01*
X49175D01*
Y206300D01*
X49525D01*
Y206125D01*
X49875D01*
Y205950D01*
X50050D01*
Y205775D01*
X50225D01*
Y205425D01*
X50400D01*
Y204025D01*
X50225D01*
Y203500D01*
X50050D01*
Y203150D01*
X49875D01*
Y202800D01*
X49700D01*
Y202450D01*
X49525D01*
Y202100D01*
X49350D01*
Y201925D01*
X49175D01*
Y201750D01*
X49000D01*
Y201400D01*
X48825D01*
Y201225D01*
X48650D01*
Y201050D01*
X48475D01*
Y200875D01*
X48300D01*
Y200700D01*
X47950D01*
Y200525D01*
X47775D01*
Y200350D01*
X47600D01*
Y200175D01*
X47250D01*
Y200000D01*
X46900D01*
Y199825D01*
X46550D01*
Y199650D01*
X46200D01*
Y199475D01*
X45675D01*
Y199300D01*
X45150D01*
Y199125D01*
X44450D01*
Y198950D01*
X43400D01*
Y198775D01*
X42000D01*
Y198600D01*
X41300D01*
Y198775D01*
X40775D01*
Y198950D01*
X40250D01*
Y199125D01*
X39900D01*
Y199300D01*
X39550D01*
Y199475D01*
X39200D01*
Y199650D01*
X39025D01*
Y199825D01*
X38850D01*
Y200000D01*
X38675D01*
Y200525D01*
X38500D01*
Y201050D01*
X38675D01*
Y201575D01*
X38850D01*
Y201750D01*
X39025D01*
Y202100D01*
X39200D01*
Y202275D01*
X39375D01*
Y202450D01*
X39550D01*
Y202625D01*
X39725D01*
Y202800D01*
X39900D01*
Y202975D01*
X40075D01*
Y203150D01*
X40250D01*
Y203500D01*
X40425D01*
Y203675D01*
X40600D01*
Y203850D01*
X40775D01*
Y204025D01*
X40950D01*
Y204200D01*
X41300D01*
Y204375D01*
X41475D01*
Y204550D01*
X41650D01*
Y204725D01*
X41825D01*
Y204900D01*
X42000D01*
Y205075D01*
X42175D01*
Y205250D01*
X42350D01*
Y205425D01*
X42700D01*
Y205600D01*
X42875D01*
Y205775D01*
X43050D01*
Y205950D01*
X43225D01*
Y206125D01*
X43400D01*
Y206300D01*
X43575D01*
Y206475D01*
X43925D01*
Y206650D01*
X44100D01*
Y206825D01*
X44275D01*
Y207000D01*
X44625D01*
Y207175D01*
X44975D01*
Y207350D01*
X45325D01*
Y207525D01*
X46725D01*
Y207350D01*
D02*
G37*
G36*
X86275Y189150D02*
X86450D01*
Y188800D01*
Y188625D01*
Y184600D01*
X85400D01*
Y189150D01*
X85575D01*
Y189325D01*
X85750D01*
Y189150D01*
X86100D01*
Y189325D01*
X86275D01*
Y189150D01*
D02*
G37*
G36*
X84000Y188450D02*
X81900D01*
Y184600D01*
X80850D01*
Y188275D01*
X80675D01*
Y188450D01*
X78575D01*
Y189150D01*
X78750D01*
Y189325D01*
X78925D01*
Y189150D01*
X83650D01*
Y189325D01*
X84000D01*
Y188450D01*
D02*
G37*
G36*
X44450Y189150D02*
X44625D01*
Y188450D01*
X42525D01*
Y188275D01*
X42350D01*
Y184600D01*
X41300D01*
Y188450D01*
X39200D01*
Y189325D01*
X39375D01*
Y189150D01*
X44275D01*
Y189325D01*
X44450D01*
Y189150D01*
D02*
G37*
G36*
X37800Y188100D02*
Y187925D01*
Y184600D01*
X36750D01*
Y189150D01*
X36925D01*
Y189325D01*
X37100D01*
Y189150D01*
X37450D01*
Y189325D01*
X37800D01*
Y188100D01*
D02*
G37*
G36*
X100625Y188975D02*
X100800D01*
Y188625D01*
X100975D01*
Y188100D01*
X100625D01*
Y187925D01*
X99925D01*
Y188450D01*
X96950D01*
Y187400D01*
X100450D01*
Y187225D01*
X100800D01*
Y186875D01*
X100975D01*
Y184950D01*
X100800D01*
Y184775D01*
X100625D01*
Y184600D01*
X96075D01*
Y184775D01*
X95900D01*
Y185125D01*
X95725D01*
Y185825D01*
X96425D01*
Y186000D01*
X96775D01*
Y185475D01*
X100100D01*
Y185650D01*
X99925D01*
Y185825D01*
X100100D01*
Y186350D01*
X99925D01*
Y186525D01*
X96425D01*
Y186700D01*
X96075D01*
Y187225D01*
X95900D01*
Y188625D01*
X96075D01*
Y188975D01*
X96250D01*
Y189150D01*
X100625D01*
Y188975D01*
D02*
G37*
G36*
X93450D02*
X93625D01*
Y188800D01*
X93800D01*
Y187575D01*
X92750D01*
Y188450D01*
X89950D01*
Y188275D01*
X89775D01*
Y185475D01*
X92750D01*
Y186350D01*
X93625D01*
Y186175D01*
X93800D01*
Y184950D01*
X93625D01*
Y184775D01*
X93450D01*
Y184600D01*
X89075D01*
Y184775D01*
X88900D01*
Y184950D01*
X88725D01*
Y188800D01*
X88900D01*
Y188975D01*
X89075D01*
Y189150D01*
X93450D01*
Y188975D01*
D02*
G37*
G36*
X77175Y188800D02*
X77350D01*
Y187925D01*
Y187750D01*
Y184950D01*
X77175D01*
Y184775D01*
X77000D01*
Y184600D01*
X72100D01*
Y184775D01*
X71750D01*
Y185300D01*
X71575D01*
Y188450D01*
X71750D01*
Y188975D01*
X71925D01*
Y189150D01*
X77175D01*
Y188800D01*
D02*
G37*
G36*
X64925Y189150D02*
X69300D01*
Y188975D01*
X69475D01*
Y188800D01*
X69650D01*
Y187400D01*
X69475D01*
Y187225D01*
X69300D01*
Y187050D01*
X69125D01*
Y186875D01*
X69300D01*
Y186700D01*
X69475D01*
Y186525D01*
X69650D01*
Y184950D01*
X69475D01*
Y184775D01*
X69125D01*
Y184600D01*
X64575D01*
Y189150D01*
X64750D01*
Y189325D01*
X64925D01*
Y189150D01*
D02*
G37*
G36*
X61950Y188975D02*
X62125D01*
Y188800D01*
X62300D01*
Y185125D01*
X62125D01*
Y184775D01*
X61950D01*
Y184600D01*
X56875D01*
Y184775D01*
X56700D01*
Y184950D01*
X56525D01*
Y188800D01*
X56700D01*
Y188975D01*
X56875D01*
Y189150D01*
X61950D01*
Y188975D01*
D02*
G37*
G36*
X49700Y189150D02*
X54075D01*
Y188975D01*
X54250D01*
Y188800D01*
X54425D01*
Y186700D01*
X54250D01*
Y186525D01*
X54075D01*
Y186350D01*
X52850D01*
Y186175D01*
X53025D01*
Y186000D01*
X53200D01*
Y185825D01*
X53550D01*
Y185650D01*
X53725D01*
Y185475D01*
X53900D01*
Y185300D01*
X54075D01*
Y185125D01*
X54425D01*
Y184950D01*
X54600D01*
Y184775D01*
X54775D01*
Y184600D01*
X53200D01*
Y184775D01*
X53025D01*
Y184950D01*
X52850D01*
Y185125D01*
X52675D01*
Y185300D01*
X52500D01*
Y185475D01*
X52325D01*
Y185650D01*
X52150D01*
Y185825D01*
X51975D01*
Y186000D01*
X51625D01*
Y186175D01*
X51450D01*
Y186350D01*
X50400D01*
Y185300D01*
Y185125D01*
Y184600D01*
X49350D01*
Y189150D01*
X49525D01*
Y189325D01*
X49700D01*
Y189150D01*
D02*
G37*
G36*
X29400D02*
X33250D01*
Y188975D01*
X33600D01*
Y188800D01*
X33950D01*
Y188625D01*
X34125D01*
Y188450D01*
X34300D01*
Y188275D01*
X34475D01*
Y187925D01*
X34650D01*
Y187400D01*
X34825D01*
Y186525D01*
X34650D01*
Y185825D01*
X34475D01*
Y185475D01*
X34300D01*
Y185300D01*
X34125D01*
Y185125D01*
X33950D01*
Y184950D01*
X33600D01*
Y184775D01*
X33250D01*
Y184600D01*
X29050D01*
Y187225D01*
Y187400D01*
Y189150D01*
X29225D01*
Y189325D01*
X29400D01*
Y189150D01*
D02*
G37*
G36*
X47577Y178867D02*
Y178861D01*
Y178847D01*
Y178819D01*
Y178784D01*
X47570Y178743D01*
Y178701D01*
X47556Y178590D01*
X47529Y178479D01*
X47494Y178361D01*
X47445Y178264D01*
X47418Y178215D01*
X47383Y178180D01*
X47376Y178173D01*
X47348Y178153D01*
X47293Y178125D01*
X47223Y178090D01*
X47126Y178056D01*
X47064Y178042D01*
X47001Y178028D01*
X46925Y178014D01*
X46848Y178007D01*
X46758Y178000D01*
X44232D01*
X44190Y178007D01*
X44142D01*
X44031Y178021D01*
X43906Y178042D01*
X43788Y178076D01*
X43677Y178118D01*
X43635Y178146D01*
X43594Y178180D01*
X43587Y178187D01*
X43566Y178215D01*
X43531Y178264D01*
X43503Y178333D01*
X43469Y178430D01*
X43434Y178548D01*
X43427Y178618D01*
X43413Y178694D01*
X43406Y178777D01*
Y178867D01*
Y181699D01*
X44267D01*
Y178694D01*
X46724D01*
Y181699D01*
X47577D01*
Y178867D01*
D02*
G37*
G36*
X100203Y181692D02*
X100307Y181678D01*
X100418Y181657D01*
X100529Y181630D01*
X100634Y181595D01*
X100675Y181567D01*
X100710Y181539D01*
X100717Y181533D01*
X100738Y181512D01*
X100765Y181470D01*
X100800Y181414D01*
X100828Y181331D01*
X100856Y181234D01*
X100876Y181116D01*
X100883Y180970D01*
Y180630D01*
Y180623D01*
Y180616D01*
Y180575D01*
X100876Y180519D01*
X100863Y180450D01*
X100842Y180367D01*
X100814Y180290D01*
X100779Y180214D01*
X100724Y180145D01*
X100717Y180138D01*
X100696Y180117D01*
X100654Y180096D01*
X100592Y180061D01*
X100515Y180026D01*
X100425Y179992D01*
X100307Y179957D01*
X100169Y179929D01*
X100189D01*
X100210Y179922D01*
X100245D01*
X100321Y179909D01*
X100418Y179888D01*
X100522Y179853D01*
X100634Y179818D01*
X100731Y179763D01*
X100821Y179700D01*
X100828Y179693D01*
X100856Y179666D01*
X100890Y179624D01*
X100925Y179568D01*
X100967Y179492D01*
X100994Y179402D01*
X101022Y179298D01*
X101029Y179180D01*
Y178791D01*
Y178784D01*
Y178770D01*
Y178750D01*
Y178715D01*
X101022Y178639D01*
X101001Y178541D01*
X100980Y178437D01*
X100946Y178333D01*
X100897Y178243D01*
X100828Y178167D01*
X100821Y178160D01*
X100793Y178139D01*
X100738Y178111D01*
X100668Y178083D01*
X100571Y178056D01*
X100453Y178028D01*
X100307Y178007D01*
X100224Y178000D01*
X97906D01*
X97864Y178007D01*
X97823D01*
X97712Y178021D01*
X97601Y178035D01*
X97490Y178062D01*
X97386Y178104D01*
X97344Y178125D01*
X97309Y178153D01*
X97302Y178160D01*
X97281Y178180D01*
X97254Y178222D01*
X97226Y178285D01*
X97198Y178361D01*
X97170Y178458D01*
X97150Y178576D01*
X97143Y178722D01*
Y179020D01*
X97899Y179180D01*
Y178666D01*
X99926D01*
X99960Y178673D01*
X100009D01*
X100099Y178694D01*
X100141Y178708D01*
X100175Y178729D01*
X100182Y178736D01*
X100189Y178743D01*
X100203Y178763D01*
X100217Y178791D01*
X100231Y178826D01*
X100238Y178867D01*
X100252Y178923D01*
Y178992D01*
Y179263D01*
Y179270D01*
Y179298D01*
X100245Y179332D01*
Y179374D01*
X100217Y179464D01*
X100203Y179499D01*
X100175Y179534D01*
X100162Y179548D01*
X100141Y179555D01*
X100113Y179568D01*
X100071Y179582D01*
X100023Y179589D01*
X99960Y179603D01*
X98649D01*
Y180207D01*
X99787D01*
X99822Y180214D01*
X99863D01*
X99960Y180235D01*
X99995Y180249D01*
X100030Y180269D01*
X100037Y180276D01*
X100044Y180283D01*
X100057Y180304D01*
X100071Y180332D01*
X100085Y180367D01*
X100092Y180415D01*
X100106Y180471D01*
Y180540D01*
Y180720D01*
Y180727D01*
Y180755D01*
X100099Y180790D01*
Y180832D01*
X100071Y180929D01*
X100057Y180963D01*
X100030Y180998D01*
X100016Y181012D01*
X99995Y181019D01*
X99967Y181033D01*
X99933Y181047D01*
X99884Y181054D01*
X99822Y181068D01*
X97934D01*
Y180603D01*
X97205Y180734D01*
Y180970D01*
Y180977D01*
Y180991D01*
Y181012D01*
Y181040D01*
X97212Y181109D01*
X97226Y181199D01*
X97247Y181290D01*
X97275Y181387D01*
X97316Y181470D01*
X97372Y181539D01*
X97379Y181546D01*
X97406Y181567D01*
X97455Y181588D01*
X97524Y181623D01*
X97615Y181650D01*
X97733Y181671D01*
X97795Y181685D01*
X97871Y181692D01*
X97955Y181699D01*
X100120D01*
X100203Y181692D01*
D02*
G37*
G36*
X94735D02*
X94839Y181678D01*
X94950Y181657D01*
X95061Y181630D01*
X95165Y181595D01*
X95206Y181567D01*
X95241Y181539D01*
X95248Y181533D01*
X95269Y181512D01*
X95297Y181470D01*
X95331Y181414D01*
X95359Y181331D01*
X95387Y181234D01*
X95408Y181116D01*
X95415Y180970D01*
Y180734D01*
Y180720D01*
Y180693D01*
X95408Y180644D01*
Y180582D01*
X95380Y180443D01*
X95359Y180380D01*
X95331Y180318D01*
X95324Y180311D01*
X95310Y180290D01*
X95290Y180262D01*
X95248Y180221D01*
X95200Y180172D01*
X95130Y180117D01*
X95040Y180047D01*
X94936Y179978D01*
X92757Y178666D01*
X94915D01*
Y179215D01*
X95595Y179020D01*
Y178722D01*
Y178715D01*
Y178701D01*
Y178680D01*
Y178652D01*
X95588Y178583D01*
X95574Y178493D01*
X95553Y178402D01*
X95519Y178305D01*
X95477Y178222D01*
X95422Y178153D01*
X95415Y178146D01*
X95387Y178132D01*
X95338Y178104D01*
X95276Y178076D01*
X95179Y178049D01*
X95068Y178021D01*
X94998Y178014D01*
X94922Y178007D01*
X94839Y178000D01*
X91639D01*
Y178333D01*
Y178347D01*
Y178375D01*
X91646Y178416D01*
X91653Y178472D01*
X91681Y178597D01*
X91702Y178652D01*
X91736Y178708D01*
X91743Y178715D01*
X91757Y178736D01*
X91785Y178763D01*
X91820Y178798D01*
X91875Y178847D01*
X91938Y178895D01*
X92014Y178951D01*
X92104Y179013D01*
X94665Y180582D01*
Y181068D01*
X92555D01*
Y180304D01*
X91827Y180491D01*
Y180970D01*
Y180977D01*
Y180991D01*
Y181012D01*
Y181040D01*
X91834Y181109D01*
X91847Y181199D01*
X91868Y181290D01*
X91896Y181387D01*
X91938Y181470D01*
X91993Y181539D01*
X92000Y181546D01*
X92028Y181567D01*
X92076Y181588D01*
X92146Y181623D01*
X92236Y181650D01*
X92354Y181671D01*
X92417Y181685D01*
X92493Y181692D01*
X92576Y181699D01*
X94651D01*
X94735Y181692D01*
D02*
G37*
G36*
X89474D02*
X89578Y181678D01*
X89689Y181650D01*
X89800Y181623D01*
X89904Y181574D01*
X89946Y181546D01*
X89981Y181512D01*
X89987Y181505D01*
X90008Y181477D01*
X90036Y181428D01*
X90071Y181352D01*
X90105Y181262D01*
X90133Y181137D01*
X90147Y181068D01*
X90154Y180991D01*
X90161Y180908D01*
Y180818D01*
Y178874D01*
Y178867D01*
Y178854D01*
Y178826D01*
Y178791D01*
X90154Y178750D01*
Y178708D01*
X90140Y178597D01*
X90119Y178486D01*
X90085Y178368D01*
X90043Y178264D01*
X90015Y178222D01*
X89981Y178180D01*
X89974Y178173D01*
X89946Y178153D01*
X89897Y178125D01*
X89835Y178090D01*
X89738Y178056D01*
X89627Y178028D01*
X89557Y178014D01*
X89481Y178007D01*
X89398Y178000D01*
X86733D01*
X86642Y178007D01*
X86538Y178021D01*
X86427Y178042D01*
X86323Y178076D01*
X86219Y178118D01*
X86177Y178146D01*
X86143Y178180D01*
X86136Y178187D01*
X86115Y178215D01*
X86087Y178264D01*
X86059Y178340D01*
X86025Y178430D01*
X85997Y178555D01*
X85983Y178625D01*
X85976Y178701D01*
X85969Y178784D01*
Y178874D01*
Y180818D01*
Y180825D01*
Y180839D01*
Y180866D01*
Y180901D01*
X85976Y180943D01*
Y180991D01*
X85990Y181095D01*
X86011Y181213D01*
X86046Y181324D01*
X86087Y181428D01*
X86115Y181470D01*
X86143Y181512D01*
X86150Y181519D01*
X86177Y181539D01*
X86226Y181574D01*
X86288Y181609D01*
X86379Y181637D01*
X86497Y181671D01*
X86566Y181685D01*
X86642Y181692D01*
X86719Y181699D01*
X89391D01*
X89474Y181692D01*
D02*
G37*
G36*
X83672D02*
X83776Y181678D01*
X83887Y181657D01*
X83998Y181630D01*
X84102Y181595D01*
X84144Y181567D01*
X84179Y181539D01*
X84186Y181533D01*
X84206Y181512D01*
X84234Y181470D01*
X84269Y181414D01*
X84297Y181331D01*
X84325Y181234D01*
X84345Y181116D01*
X84352Y180970D01*
Y180734D01*
Y180720D01*
Y180693D01*
X84345Y180644D01*
Y180582D01*
X84318Y180443D01*
X84297Y180380D01*
X84269Y180318D01*
X84262Y180311D01*
X84248Y180290D01*
X84227Y180262D01*
X84186Y180221D01*
X84137Y180172D01*
X84068Y180117D01*
X83978Y180047D01*
X83873Y179978D01*
X81694Y178666D01*
X83853D01*
Y179215D01*
X84533Y179020D01*
Y178722D01*
Y178715D01*
Y178701D01*
Y178680D01*
Y178652D01*
X84526Y178583D01*
X84512Y178493D01*
X84491Y178402D01*
X84456Y178305D01*
X84415Y178222D01*
X84359Y178153D01*
X84352Y178146D01*
X84325Y178132D01*
X84276Y178104D01*
X84214Y178076D01*
X84116Y178049D01*
X84005Y178021D01*
X83936Y178014D01*
X83859Y178007D01*
X83776Y178000D01*
X80577D01*
Y178333D01*
Y178347D01*
Y178375D01*
X80584Y178416D01*
X80591Y178472D01*
X80619Y178597D01*
X80639Y178652D01*
X80674Y178708D01*
X80681Y178715D01*
X80695Y178736D01*
X80723Y178763D01*
X80757Y178798D01*
X80813Y178847D01*
X80875Y178895D01*
X80952Y178951D01*
X81042Y179013D01*
X83603Y180582D01*
Y181068D01*
X81493D01*
Y180304D01*
X80764Y180491D01*
Y180970D01*
Y180977D01*
Y180991D01*
Y181012D01*
Y181040D01*
X80771Y181109D01*
X80785Y181199D01*
X80806Y181290D01*
X80834Y181387D01*
X80875Y181470D01*
X80931Y181539D01*
X80938Y181546D01*
X80966Y181567D01*
X81014Y181588D01*
X81084Y181623D01*
X81174Y181650D01*
X81292Y181671D01*
X81354Y181685D01*
X81431Y181692D01*
X81514Y181699D01*
X83589D01*
X83672Y181692D01*
D02*
G37*
G36*
X76885Y181040D02*
X75185D01*
Y178000D01*
X74324D01*
Y181040D01*
X72631D01*
Y181699D01*
X76885D01*
Y181040D01*
D02*
G37*
G36*
X70868Y181692D02*
X70916D01*
X71027Y181678D01*
X71145Y181650D01*
X71263Y181623D01*
X71374Y181574D01*
X71416Y181546D01*
X71458Y181512D01*
X71465Y181505D01*
X71486Y181477D01*
X71520Y181428D01*
X71555Y181359D01*
X71590Y181262D01*
X71624Y181144D01*
X71631Y181074D01*
X71645Y180998D01*
X71652Y180915D01*
Y180825D01*
Y178867D01*
Y178861D01*
Y178847D01*
Y178819D01*
Y178784D01*
X71645Y178743D01*
Y178701D01*
X71631Y178590D01*
X71604Y178479D01*
X71569Y178361D01*
X71520Y178264D01*
X71492Y178215D01*
X71458Y178180D01*
X71451Y178173D01*
X71423Y178153D01*
X71368Y178125D01*
X71298Y178090D01*
X71201Y178056D01*
X71139Y178042D01*
X71076Y178028D01*
X71000Y178014D01*
X70923Y178007D01*
X70833Y178000D01*
X67925D01*
X67884Y178007D01*
X67835D01*
X67724Y178021D01*
X67599Y178042D01*
X67481Y178076D01*
X67370Y178118D01*
X67328Y178146D01*
X67287Y178180D01*
X67280Y178187D01*
X67259Y178215D01*
X67224Y178264D01*
X67197Y178333D01*
X67162Y178430D01*
X67127Y178548D01*
X67120Y178618D01*
X67106Y178694D01*
X67099Y178777D01*
Y178867D01*
Y180825D01*
Y180832D01*
Y180845D01*
Y180873D01*
Y180908D01*
X67106Y180949D01*
Y180991D01*
X67120Y181095D01*
X67148Y181213D01*
X67176Y181324D01*
X67224Y181428D01*
X67252Y181470D01*
X67287Y181512D01*
X67294Y181519D01*
X67321Y181539D01*
X67377Y181574D01*
X67446Y181609D01*
X67550Y181637D01*
X67606Y181657D01*
X67675Y181671D01*
X67745Y181685D01*
X67828Y181692D01*
X67918Y181699D01*
X70819D01*
X70868Y181692D01*
D02*
G37*
G36*
X64802D02*
X64899Y181678D01*
X65004Y181657D01*
X65108Y181623D01*
X65205Y181581D01*
X65288Y181526D01*
X65295Y181519D01*
X65323Y181491D01*
X65351Y181449D01*
X65392Y181394D01*
X65427Y181317D01*
X65462Y181220D01*
X65482Y181109D01*
X65489Y180977D01*
Y180533D01*
Y180519D01*
Y180491D01*
X65482Y180436D01*
X65469Y180380D01*
X65448Y180311D01*
X65420Y180235D01*
X65378Y180165D01*
X65323Y180103D01*
X65316Y180096D01*
X65295Y180082D01*
X65253Y180054D01*
X65205Y180019D01*
X65135Y179992D01*
X65052Y179957D01*
X64962Y179929D01*
X64851Y179909D01*
X64865D01*
X64906Y179902D01*
X64962Y179888D01*
X65031Y179867D01*
X65115Y179832D01*
X65191Y179797D01*
X65274Y179742D01*
X65344Y179680D01*
X65351Y179673D01*
X65371Y179645D01*
X65399Y179603D01*
X65434Y179548D01*
X65462Y179478D01*
X65489Y179395D01*
X65510Y179298D01*
X65517Y179194D01*
Y178722D01*
Y178715D01*
Y178708D01*
Y178687D01*
X65510Y178659D01*
X65503Y178597D01*
X65482Y178514D01*
X65455Y178423D01*
X65406Y178333D01*
X65337Y178250D01*
X65246Y178173D01*
X65233Y178167D01*
X65198Y178146D01*
X65135Y178118D01*
X65045Y178090D01*
X64927Y178056D01*
X64788Y178028D01*
X64622Y178007D01*
X64428Y178000D01*
X61492D01*
Y181699D01*
X64726D01*
X64802Y181692D01*
D02*
G37*
G36*
X58896D02*
X58945D01*
X59056Y181678D01*
X59174Y181650D01*
X59292Y181623D01*
X59403Y181574D01*
X59445Y181546D01*
X59486Y181512D01*
X59493Y181505D01*
X59514Y181477D01*
X59549Y181428D01*
X59583Y181359D01*
X59618Y181262D01*
X59653Y181144D01*
X59660Y181074D01*
X59674Y180998D01*
X59681Y180915D01*
Y180825D01*
Y178867D01*
Y178861D01*
Y178847D01*
Y178819D01*
Y178784D01*
X59674Y178743D01*
Y178701D01*
X59660Y178590D01*
X59632Y178479D01*
X59597Y178361D01*
X59549Y178264D01*
X59521Y178215D01*
X59486Y178180D01*
X59479Y178173D01*
X59452Y178153D01*
X59396Y178125D01*
X59327Y178090D01*
X59229Y178056D01*
X59167Y178042D01*
X59105Y178028D01*
X59028Y178014D01*
X58952Y178007D01*
X58862Y178000D01*
X55954D01*
X55912Y178007D01*
X55864D01*
X55752Y178021D01*
X55628Y178042D01*
X55510Y178076D01*
X55399Y178118D01*
X55357Y178146D01*
X55315Y178180D01*
X55308Y178187D01*
X55287Y178215D01*
X55253Y178264D01*
X55225Y178333D01*
X55190Y178430D01*
X55156Y178548D01*
X55149Y178618D01*
X55135Y178694D01*
X55128Y178777D01*
Y178867D01*
Y180825D01*
Y180832D01*
Y180845D01*
Y180873D01*
Y180908D01*
X55135Y180949D01*
Y180991D01*
X55149Y181095D01*
X55177Y181213D01*
X55204Y181324D01*
X55253Y181428D01*
X55281Y181470D01*
X55315Y181512D01*
X55322Y181519D01*
X55350Y181539D01*
X55405Y181574D01*
X55475Y181609D01*
X55579Y181637D01*
X55634Y181657D01*
X55704Y181671D01*
X55773Y181685D01*
X55857Y181692D01*
X55947Y181699D01*
X58848D01*
X58896Y181692D01*
D02*
G37*
G36*
X52775D02*
X52872Y181678D01*
X52977Y181657D01*
X53081Y181623D01*
X53178Y181581D01*
X53261Y181526D01*
X53268Y181519D01*
X53296Y181491D01*
X53324Y181456D01*
X53365Y181394D01*
X53400Y181317D01*
X53435Y181227D01*
X53455Y181109D01*
X53462Y180977D01*
Y180110D01*
Y180103D01*
Y180096D01*
Y180075D01*
Y180047D01*
X53455Y179985D01*
X53435Y179902D01*
X53414Y179811D01*
X53379Y179721D01*
X53330Y179638D01*
X53261Y179561D01*
X53254Y179555D01*
X53226Y179534D01*
X53178Y179506D01*
X53108Y179478D01*
X53018Y179451D01*
X52907Y179423D01*
X52775Y179402D01*
X52623Y179395D01*
X52144D01*
X53844Y178000D01*
X52616D01*
X51123Y179395D01*
X50312D01*
Y178000D01*
X49465D01*
Y181699D01*
X52692D01*
X52775Y181692D01*
D02*
G37*
G36*
X41782Y181068D02*
X38861D01*
Y180249D01*
X40568D01*
Y179617D01*
X38861D01*
Y178694D01*
X41817D01*
Y178000D01*
X38000D01*
Y181699D01*
X41782D01*
Y181068D01*
D02*
G37*
%LPC*%
G36*
X50225Y248300D02*
X49700D01*
Y248125D01*
X49175D01*
Y247950D01*
X49000D01*
Y247775D01*
X48825D01*
Y247600D01*
X48650D01*
Y247425D01*
X48475D01*
Y247250D01*
X48300D01*
Y247075D01*
X48125D01*
Y246900D01*
X47950D01*
Y246725D01*
X47775D01*
Y246550D01*
X47600D01*
Y246375D01*
X47425D01*
Y246200D01*
X47250D01*
Y246025D01*
X47075D01*
Y245850D01*
X46900D01*
Y245500D01*
X46725D01*
Y245325D01*
X46550D01*
Y245150D01*
X46375D01*
Y244975D01*
X46200D01*
Y244800D01*
X46025D01*
Y244625D01*
X45850D01*
Y244450D01*
X45675D01*
Y244275D01*
X45500D01*
Y244100D01*
X45325D01*
Y243925D01*
X45150D01*
Y243750D01*
X44975D01*
Y243575D01*
X44800D01*
Y243225D01*
X44625D01*
Y243050D01*
X44450D01*
Y242875D01*
X44275D01*
Y242700D01*
X44100D01*
Y242525D01*
X43925D01*
Y242350D01*
X43750D01*
Y242175D01*
X43575D01*
Y242000D01*
X43400D01*
Y241825D01*
X43225D01*
Y241650D01*
X43050D01*
Y241475D01*
X42875D01*
Y241300D01*
X42700D01*
Y240950D01*
X42525D01*
Y240775D01*
X42350D01*
Y240600D01*
X42175D01*
Y240425D01*
X42000D01*
Y240250D01*
X41825D01*
Y240075D01*
X41650D01*
Y239900D01*
X41475D01*
Y239725D01*
X41300D01*
Y239550D01*
X41125D01*
Y239375D01*
X40950D01*
Y239200D01*
X40775D01*
Y238850D01*
X40600D01*
Y238675D01*
X40425D01*
Y238500D01*
X40250D01*
Y238325D01*
X40075D01*
Y238150D01*
X39900D01*
Y237975D01*
X39725D01*
Y237800D01*
X39550D01*
Y237625D01*
X39375D01*
Y237450D01*
X39200D01*
Y237275D01*
X39025D01*
Y237100D01*
X38850D01*
Y236925D01*
X38675D01*
Y236750D01*
X38500D01*
Y236575D01*
X38325D01*
Y236400D01*
X38150D01*
Y236225D01*
X37975D01*
Y235875D01*
X37800D01*
Y235700D01*
X37625D01*
Y235350D01*
X37450D01*
Y234475D01*
X37275D01*
Y234300D01*
X37450D01*
Y233250D01*
X37625D01*
Y232375D01*
X37800D01*
Y231500D01*
X37975D01*
Y230625D01*
X38150D01*
Y229925D01*
X38325D01*
Y228875D01*
X38500D01*
Y228000D01*
X38675D01*
Y227125D01*
X38850D01*
Y226250D01*
X39025D01*
Y225375D01*
X39200D01*
Y224500D01*
X39375D01*
Y223800D01*
X39550D01*
Y222750D01*
X39725D01*
Y221875D01*
X39900D01*
Y221175D01*
X40075D01*
Y220300D01*
X40250D01*
Y219250D01*
X40425D01*
Y218550D01*
X40600D01*
Y217675D01*
X40775D01*
Y216975D01*
X40950D01*
Y216800D01*
X41125D01*
Y216450D01*
X41300D01*
Y216275D01*
X41475D01*
Y216100D01*
X41825D01*
Y215925D01*
X42175D01*
Y215750D01*
X42350D01*
Y215575D01*
X42700D01*
Y215400D01*
X42875D01*
Y215225D01*
X43225D01*
Y215050D01*
X43400D01*
Y214875D01*
X43750D01*
Y214700D01*
X44100D01*
Y214525D01*
X44275D01*
Y214350D01*
X44625D01*
Y214175D01*
X44800D01*
Y214000D01*
X45150D01*
Y213825D01*
X45500D01*
Y213650D01*
X45675D01*
Y213475D01*
X46025D01*
Y213300D01*
X46375D01*
Y213125D01*
X46550D01*
Y212950D01*
X46900D01*
Y212775D01*
X47075D01*
Y212600D01*
X47425D01*
Y212425D01*
X47775D01*
Y212250D01*
X47950D01*
Y212075D01*
X48300D01*
Y211900D01*
X48650D01*
Y211725D01*
X48825D01*
Y211550D01*
X49175D01*
Y211375D01*
X49525D01*
Y211200D01*
X50400D01*
Y211025D01*
X60025D01*
Y211200D01*
X61950D01*
Y211375D01*
X63350D01*
Y211550D01*
X64400D01*
Y211725D01*
X65275D01*
Y211900D01*
X66150D01*
Y212075D01*
X66850D01*
Y212250D01*
X67550D01*
Y212425D01*
X68075D01*
Y212600D01*
X68600D01*
Y212775D01*
X69125D01*
Y212950D01*
X69650D01*
Y213125D01*
X70175D01*
Y213300D01*
X70525D01*
Y213475D01*
X70875D01*
Y213650D01*
X71225D01*
Y213825D01*
X71575D01*
Y214000D01*
X71925D01*
Y214175D01*
X72100D01*
Y214350D01*
X72275D01*
Y214525D01*
X72625D01*
Y214700D01*
X72800D01*
Y214875D01*
X72975D01*
Y215050D01*
X73150D01*
Y215225D01*
X73325D01*
Y215400D01*
X73500D01*
Y215575D01*
X73675D01*
Y215750D01*
X73850D01*
Y215925D01*
X74025D01*
Y216100D01*
X74200D01*
Y216275D01*
X74375D01*
Y216450D01*
X74550D01*
Y216625D01*
X74725D01*
Y216975D01*
X74900D01*
Y217150D01*
X75075D01*
Y217325D01*
X75250D01*
Y217500D01*
X75425D01*
Y217850D01*
X75600D01*
Y218025D01*
X75775D01*
Y218200D01*
X75950D01*
Y218550D01*
X76125D01*
Y218900D01*
X76300D01*
Y219075D01*
X76475D01*
Y219425D01*
X76650D01*
Y219775D01*
X76825D01*
Y220300D01*
X77000D01*
Y220825D01*
X77175D01*
Y221525D01*
X77350D01*
Y224675D01*
X77175D01*
Y225375D01*
X77000D01*
Y225900D01*
X76825D01*
Y228000D01*
X76650D01*
Y230450D01*
X76475D01*
Y231500D01*
X76300D01*
Y232200D01*
X76125D01*
Y232900D01*
X75950D01*
Y233250D01*
X75775D01*
Y233775D01*
X75600D01*
Y233950D01*
X75425D01*
Y234300D01*
X75250D01*
Y234650D01*
X75075D01*
Y234825D01*
X74900D01*
Y235175D01*
X74725D01*
Y235350D01*
X74550D01*
Y235700D01*
X74375D01*
Y236050D01*
X74200D01*
Y236225D01*
X74025D01*
Y236575D01*
X73850D01*
Y236750D01*
X73675D01*
Y237100D01*
X73500D01*
Y237275D01*
X73325D01*
Y237625D01*
X73150D01*
Y237800D01*
X72975D01*
Y238150D01*
X72800D01*
Y238500D01*
X72625D01*
Y238675D01*
X72450D01*
Y239025D01*
X72275D01*
Y239200D01*
X72100D01*
Y239550D01*
X71925D01*
Y239725D01*
X71750D01*
Y240075D01*
X71575D01*
Y240250D01*
X71400D01*
Y240600D01*
X71225D01*
Y240775D01*
X71050D01*
Y241125D01*
X70875D01*
Y241300D01*
X70700D01*
Y241650D01*
X70525D01*
Y241825D01*
X70350D01*
Y242175D01*
X70175D01*
Y242350D01*
X70000D01*
Y242525D01*
X69825D01*
Y242875D01*
X69650D01*
Y243050D01*
X69475D01*
Y243400D01*
X69300D01*
Y243575D01*
X69125D01*
Y243925D01*
X68950D01*
Y244100D01*
X68775D01*
Y244275D01*
X68600D01*
Y244625D01*
X68425D01*
Y244800D01*
X68250D01*
Y244975D01*
X67900D01*
Y245150D01*
X67725D01*
Y245325D01*
X67375D01*
Y245500D01*
X67025D01*
Y245675D01*
X66500D01*
Y245850D01*
X65450D01*
Y246025D01*
X64400D01*
Y246200D01*
X63350D01*
Y246375D01*
X62125D01*
Y246550D01*
X61075D01*
Y246725D01*
X59850D01*
Y246900D01*
X58800D01*
Y247075D01*
X57575D01*
Y247250D01*
X56175D01*
Y247425D01*
X55125D01*
Y247600D01*
X53900D01*
Y247775D01*
X52675D01*
Y247950D01*
X51275D01*
Y248125D01*
X50225D01*
Y248300D01*
D02*
G37*
%LPD*%
G36*
X54250Y237800D02*
X54775D01*
Y237625D01*
X55475D01*
Y237450D01*
X56000D01*
Y237275D01*
X56525D01*
Y237100D01*
X57225D01*
Y236925D01*
X57750D01*
Y236750D01*
X58275D01*
Y236575D01*
X58800D01*
Y236400D01*
X59500D01*
Y236225D01*
X60025D01*
Y236050D01*
X60550D01*
Y235875D01*
X61075D01*
Y235700D01*
X61600D01*
Y235525D01*
X61950D01*
Y235175D01*
X62125D01*
Y234125D01*
X61950D01*
Y233600D01*
X61775D01*
Y233250D01*
X61600D01*
Y232725D01*
X61425D01*
Y232200D01*
X61250D01*
Y231850D01*
X61075D01*
Y231325D01*
X60900D01*
Y230800D01*
X60725D01*
Y230450D01*
X60550D01*
Y229925D01*
X60375D01*
Y229400D01*
X60200D01*
Y229050D01*
X60025D01*
Y228525D01*
X59850D01*
Y228000D01*
X59675D01*
Y227650D01*
X59500D01*
Y227125D01*
X59325D01*
Y226775D01*
X59150D01*
Y226600D01*
X58975D01*
Y226425D01*
X58100D01*
Y226600D01*
X57925D01*
Y226775D01*
X57575D01*
Y226950D01*
X57400D01*
Y227125D01*
X57050D01*
Y227300D01*
X56875D01*
Y227475D01*
X56525D01*
Y227650D01*
X56350D01*
Y227825D01*
X56000D01*
Y228000D01*
X55650D01*
Y228175D01*
X55475D01*
Y228350D01*
X55125D01*
Y228525D01*
X54950D01*
Y228700D01*
X54600D01*
Y228875D01*
X54425D01*
Y229050D01*
X54075D01*
Y229225D01*
X53725D01*
Y229400D01*
X53550D01*
Y229575D01*
X53200D01*
Y229750D01*
X53025D01*
Y229925D01*
X52675D01*
Y230100D01*
X52500D01*
Y230275D01*
X52150D01*
Y230450D01*
X51975D01*
Y230625D01*
X51625D01*
Y230800D01*
X51275D01*
Y230975D01*
X51100D01*
Y231150D01*
X50750D01*
Y231325D01*
X50575D01*
Y231500D01*
X50225D01*
Y231675D01*
X50050D01*
Y231850D01*
X49700D01*
Y232025D01*
X49525D01*
Y232375D01*
X49350D01*
Y232900D01*
X49175D01*
Y233075D01*
X49350D01*
Y233250D01*
X49525D01*
Y233425D01*
X49700D01*
Y233600D01*
X49875D01*
Y233775D01*
X50050D01*
Y234125D01*
X50225D01*
Y234300D01*
X50400D01*
Y234475D01*
X50575D01*
Y234650D01*
X50750D01*
Y234825D01*
X50925D01*
Y235000D01*
X51100D01*
Y235175D01*
X51275D01*
Y235350D01*
X51450D01*
Y235525D01*
X51625D01*
Y235700D01*
X51800D01*
Y235875D01*
X51975D01*
Y236225D01*
X52150D01*
Y236400D01*
X52325D01*
Y236575D01*
X52500D01*
Y236750D01*
X52675D01*
Y236925D01*
X52850D01*
Y237100D01*
X53025D01*
Y237275D01*
X53200D01*
Y237450D01*
X53375D01*
Y237625D01*
X53550D01*
Y237800D01*
X54075D01*
Y237975D01*
X54250D01*
Y237800D01*
D02*
G37*
G36*
X67200Y228350D02*
X68775D01*
Y228175D01*
X70525D01*
Y228000D01*
X71750D01*
Y227825D01*
X71925D01*
Y227650D01*
X71750D01*
Y227475D01*
X70875D01*
Y227300D01*
X69825D01*
Y227125D01*
X70000D01*
Y226950D01*
X70525D01*
Y226775D01*
X71050D01*
Y226600D01*
X70700D01*
Y226425D01*
X70350D01*
Y226250D01*
X69825D01*
Y226075D01*
X69475D01*
Y221525D01*
X69825D01*
Y221350D01*
X70000D01*
Y221175D01*
X70175D01*
Y221000D01*
X70350D01*
Y220825D01*
X70700D01*
Y220650D01*
X70875D01*
Y220475D01*
X71050D01*
Y220125D01*
X70175D01*
Y219950D01*
X69475D01*
Y219775D01*
X68775D01*
Y219600D01*
X68075D01*
Y219425D01*
X67200D01*
Y219250D01*
X66675D01*
Y219425D01*
X66850D01*
Y219600D01*
X67025D01*
Y219775D01*
X67200D01*
Y219950D01*
X67375D01*
Y220125D01*
X67550D01*
Y220300D01*
X67725D01*
Y220475D01*
X67900D01*
Y220650D01*
X68075D01*
Y220825D01*
X68250D01*
Y221175D01*
X68425D01*
Y221350D01*
X68600D01*
Y221525D01*
X68775D01*
Y221875D01*
X68950D01*
Y222575D01*
X69125D01*
Y224325D01*
X68950D01*
Y225550D01*
X68775D01*
Y225725D01*
X68425D01*
Y225900D01*
X68075D01*
Y226075D01*
X67725D01*
Y226250D01*
X67550D01*
Y226425D01*
X67200D01*
Y226600D01*
X66850D01*
Y226775D01*
X66500D01*
Y227125D01*
X67025D01*
Y227300D01*
X67725D01*
Y227475D01*
X68425D01*
Y227650D01*
X67900D01*
Y227825D01*
X66675D01*
Y228000D01*
X66500D01*
Y228525D01*
X67200D01*
Y228350D01*
D02*
G37*
%LPC*%
G36*
X54250Y237275D02*
X53900D01*
Y236575D01*
X54425D01*
Y236400D01*
X54950D01*
Y236225D01*
X55475D01*
Y236050D01*
X56175D01*
Y235875D01*
X56700D01*
Y235700D01*
X57400D01*
Y235525D01*
X57925D01*
Y235350D01*
X58450D01*
Y235175D01*
X59150D01*
Y235000D01*
X59675D01*
Y234825D01*
X60375D01*
Y234650D01*
X60900D01*
Y234475D01*
X61425D01*
Y234825D01*
X61600D01*
Y235000D01*
X61425D01*
Y235175D01*
X60725D01*
Y235350D01*
X60200D01*
Y235525D01*
X59675D01*
Y235700D01*
X58975D01*
Y235875D01*
X58450D01*
Y236050D01*
X57750D01*
Y236225D01*
X57225D01*
Y236400D01*
X56700D01*
Y236575D01*
X56000D01*
Y236750D01*
X55475D01*
Y236925D01*
X54950D01*
Y237100D01*
X54250D01*
Y237275D01*
D02*
G37*
G36*
X53900Y236050D02*
X53375D01*
Y235875D01*
X53200D01*
Y235525D01*
X53025D01*
Y235000D01*
X52850D01*
Y234650D01*
X52675D01*
Y234300D01*
X52500D01*
Y233950D01*
X52325D01*
Y233600D01*
X52150D01*
Y233250D01*
X51975D01*
Y233075D01*
X52150D01*
Y232900D01*
X52500D01*
Y232725D01*
X52675D01*
Y232550D01*
X53025D01*
Y232375D01*
X53200D01*
Y232200D01*
X53550D01*
Y232025D01*
X53725D01*
Y231850D01*
X53900D01*
Y231675D01*
X54250D01*
Y231500D01*
X54425D01*
Y231325D01*
X54775D01*
Y231150D01*
X54950D01*
Y230975D01*
X55300D01*
Y230800D01*
X55475D01*
Y230625D01*
X55825D01*
Y230450D01*
X56000D01*
Y230275D01*
X56350D01*
Y230100D01*
X56525D01*
Y229925D01*
X56875D01*
Y229750D01*
X57050D01*
Y229575D01*
X57400D01*
Y229400D01*
X57575D01*
Y229225D01*
X57925D01*
Y229050D01*
X58100D01*
Y228875D01*
X58450D01*
Y228700D01*
X58625D01*
Y228525D01*
X58975D01*
Y228350D01*
X59150D01*
Y228525D01*
X59325D01*
Y228875D01*
X59500D01*
Y229400D01*
X59675D01*
Y229750D01*
X59850D01*
Y230275D01*
X60025D01*
Y230800D01*
X60200D01*
Y231325D01*
X60375D01*
Y231675D01*
X60550D01*
Y232200D01*
X60725D01*
Y232725D01*
X60900D01*
Y233075D01*
X61075D01*
Y233600D01*
X61250D01*
Y233775D01*
X61075D01*
Y233950D01*
X60375D01*
Y234125D01*
X59850D01*
Y234300D01*
X59325D01*
Y234475D01*
X58625D01*
Y234650D01*
X58100D01*
Y234825D01*
X57400D01*
Y235000D01*
X56875D01*
Y235175D01*
X56350D01*
Y235350D01*
X55650D01*
Y235525D01*
X55125D01*
Y235700D01*
X54600D01*
Y235875D01*
X53900D01*
Y236050D01*
D02*
G37*
G36*
X76300Y188450D02*
X72800D01*
Y185475D01*
X76300D01*
Y188450D01*
D02*
G37*
G36*
X68600D02*
X65625D01*
Y187575D01*
Y187400D01*
X68600D01*
Y188450D01*
D02*
G37*
G36*
Y186525D02*
X65625D01*
Y185475D01*
X68600D01*
Y186525D01*
D02*
G37*
G36*
X61075Y188450D02*
X57750D01*
Y188275D01*
X57575D01*
Y185475D01*
X61250D01*
Y187925D01*
Y188100D01*
Y188275D01*
X61075D01*
Y188450D01*
D02*
G37*
G36*
X53200D02*
X50400D01*
Y187225D01*
X50575D01*
Y187050D01*
X53200D01*
Y187225D01*
X53375D01*
Y187575D01*
Y187750D01*
Y188275D01*
X53200D01*
Y188450D01*
D02*
G37*
G36*
X32375D02*
X30275D01*
Y188275D01*
X30100D01*
Y185475D01*
X32725D01*
Y185650D01*
X33075D01*
Y185825D01*
X33250D01*
Y186000D01*
X33425D01*
Y186175D01*
X33600D01*
Y187050D01*
Y187225D01*
Y187575D01*
X33425D01*
Y187925D01*
X33250D01*
Y188100D01*
X33075D01*
Y188275D01*
X32375D01*
Y188450D01*
D02*
G37*
G36*
X89384Y181068D02*
X86740D01*
Y178666D01*
X89384D01*
Y181068D01*
D02*
G37*
G36*
X70798Y181040D02*
X67960D01*
Y178694D01*
X70798D01*
Y181040D01*
D02*
G37*
G36*
X64379Y181095D02*
X62339D01*
Y180221D01*
X64379D01*
X64428Y180228D01*
X64525Y180242D01*
X64573Y180255D01*
X64608Y180276D01*
X64615D01*
X64622Y180290D01*
X64657Y180325D01*
X64670Y180353D01*
X64684Y180387D01*
X64691Y180436D01*
X64698Y180484D01*
Y180832D01*
Y180839D01*
Y180852D01*
X64691Y180880D01*
X64684Y180908D01*
X64663Y180977D01*
X64636Y181005D01*
X64608Y181033D01*
X64601D01*
X64594Y181040D01*
X64573Y181054D01*
X64539Y181068D01*
X64497Y181074D01*
X64441Y181088D01*
X64379Y181095D01*
D02*
G37*
G36*
X64386Y179610D02*
X62339D01*
Y178666D01*
X64344D01*
X64386Y178673D01*
X64434D01*
X64546Y178694D01*
X64594Y178715D01*
X64629Y178736D01*
X64636Y178743D01*
X64643Y178750D01*
X64657Y178770D01*
X64677Y178798D01*
X64691Y178833D01*
X64705Y178881D01*
X64712Y178937D01*
X64719Y178999D01*
Y179277D01*
Y179284D01*
Y179305D01*
X64712Y179339D01*
X64705Y179381D01*
X64684Y179464D01*
X64657Y179506D01*
X64629Y179534D01*
X64622Y179541D01*
X64615Y179548D01*
X64587Y179561D01*
X64559Y179575D01*
X64511Y179589D01*
X64455Y179596D01*
X64386Y179610D01*
D02*
G37*
G36*
X58827Y181040D02*
X55989D01*
Y178694D01*
X58827D01*
Y181040D01*
D02*
G37*
G36*
X52324Y181061D02*
X50312D01*
Y180026D01*
X52283D01*
X52324Y180033D01*
X52373D01*
X52470Y180054D01*
X52518Y180068D01*
X52553Y180089D01*
X52560D01*
X52567Y180103D01*
X52581Y180117D01*
X52595Y180145D01*
X52609Y180172D01*
X52623Y180214D01*
X52636Y180262D01*
Y180318D01*
Y180762D01*
Y180769D01*
Y180790D01*
X52630Y180818D01*
Y180852D01*
X52602Y180929D01*
X52581Y180963D01*
X52553Y180991D01*
X52546D01*
X52539Y181005D01*
X52518Y181012D01*
X52484Y181026D01*
X52442Y181040D01*
X52387Y181047D01*
X52324Y181061D01*
D02*
G37*
%LPD*%
D10*
X230913Y226697D02*
G03*
X230913Y227091I0J197D01*
G01*
D02*
G03*
X230913Y226697I0J-197D01*
G01*
Y143606D02*
G03*
X230913Y144000I0J197D01*
G01*
D02*
G03*
X230913Y143606I0J-197D01*
G01*
X249894Y245913D02*
G03*
X249500Y245913I-197J0D01*
G01*
D02*
G03*
X249894Y245913I197J0D01*
G01*
X210803D02*
G03*
X210409Y245913I-197J0D01*
G01*
D02*
G03*
X210803Y245913I197J0D01*
G01*
X230913Y104606D02*
G03*
X230913Y105000I0J197D01*
G01*
D02*
G03*
X230913Y104606I0J-197D01*
G01*
X225000Y69087D02*
G03*
X224606Y69087I-197J0D01*
G01*
D02*
G03*
X225000Y69087I197J0D01*
G01*
X265591D02*
G03*
X265197Y69087I-197J0D01*
G01*
D02*
G03*
X265591Y69087I197J0D01*
G01*
X230913Y183091D02*
G03*
X230913Y182697I0J-197D01*
G01*
D02*
G03*
X230913Y183091I0J197D01*
G01*
D11*
X270480Y196500D02*
G03*
X270480Y196500I-492J0D01*
G01*
X270980Y240500D02*
G03*
X270980Y240500I-492J0D01*
G01*
X279480Y74500D02*
G03*
X279480Y74500I-492J0D01*
G01*
D12*
X109500Y25500D02*
X189500D01*
X109500Y125500D02*
X189500D01*
X109500Y170500D02*
X189500D01*
X109500Y270500D02*
X189500D01*
X22500D02*
X102500D01*
X22500Y170500D02*
X102500D01*
X22500Y25500D02*
X102500D01*
X22500Y125500D02*
X102500D01*
X291168Y127666D02*
X290501Y126999D01*
Y125666D01*
X291168Y125000D01*
X291834D01*
X292501Y125666D01*
Y126999D01*
X293167Y127666D01*
X293834D01*
X294500Y126999D01*
Y125666D01*
X293834Y125000D01*
X291834Y128999D02*
X293834D01*
X294500Y129665D01*
X293834Y130332D01*
X294500Y130998D01*
X293834Y131665D01*
X291834D01*
X294500Y132997D02*
Y134330D01*
Y133664D01*
X291834D01*
Y132997D01*
X291168Y136996D02*
X291834D01*
Y136330D01*
Y137663D01*
Y136996D01*
X293834D01*
X294500Y137663D01*
X291834Y142328D02*
Y140328D01*
X292501Y139662D01*
X293834D01*
X294500Y140328D01*
Y142328D01*
X290501Y143661D02*
X294500D01*
X292501D01*
X291834Y144327D01*
Y145660D01*
X292501Y146326D01*
X294500D01*
X207000Y259500D02*
Y263499D01*
X208333Y262166D01*
X209666Y263499D01*
Y259500D01*
X211665D02*
X212998D01*
X213665Y260166D01*
Y261499D01*
X212998Y262166D01*
X211665D01*
X210999Y261499D01*
Y260166D01*
X211665Y259500D01*
X215664Y262832D02*
Y262166D01*
X214997D01*
X216330D01*
X215664D01*
Y260166D01*
X216330Y259500D01*
X218996D02*
X220329D01*
X220995Y260166D01*
Y261499D01*
X220329Y262166D01*
X218996D01*
X218330Y261499D01*
Y260166D01*
X218996Y259500D01*
X222328Y262166D02*
Y259500D01*
Y260833D01*
X222995Y261499D01*
X223661Y262166D01*
X224328D01*
X228327Y259500D02*
Y263499D01*
X226327Y261499D01*
X228993D01*
X246000Y259500D02*
Y263499D01*
X247333Y262166D01*
X248666Y263499D01*
Y259500D01*
X250665D02*
X251998D01*
X252664Y260166D01*
Y261499D01*
X251998Y262166D01*
X250665D01*
X249999Y261499D01*
Y260166D01*
X250665Y259500D01*
X254664Y262832D02*
Y262166D01*
X253997D01*
X255330D01*
X254664D01*
Y260166D01*
X255330Y259500D01*
X257996D02*
X259329D01*
X259996Y260166D01*
Y261499D01*
X259329Y262166D01*
X257996D01*
X257330Y261499D01*
Y260166D01*
X257996Y259500D01*
X261328Y262166D02*
Y259500D01*
Y260833D01*
X261995Y261499D01*
X262661Y262166D01*
X263328D01*
X265327Y262832D02*
X265994Y263499D01*
X267326D01*
X267993Y262832D01*
Y262166D01*
X267326Y261499D01*
X266660D01*
X267326D01*
X267993Y260833D01*
Y260166D01*
X267326Y259500D01*
X265994D01*
X265327Y260166D01*
X247000Y51500D02*
Y55499D01*
X248333Y54166D01*
X249666Y55499D01*
Y51500D01*
X251665D02*
X252998D01*
X253664Y52166D01*
Y53499D01*
X252998Y54166D01*
X251665D01*
X250999Y53499D01*
Y52166D01*
X251665Y51500D01*
X255664Y54832D02*
Y54166D01*
X254997D01*
X256330D01*
X255664D01*
Y52166D01*
X256330Y51500D01*
X258996D02*
X260329D01*
X260996Y52166D01*
Y53499D01*
X260329Y54166D01*
X258996D01*
X258330Y53499D01*
Y52166D01*
X258996Y51500D01*
X262328Y54166D02*
Y51500D01*
Y52833D01*
X262995Y53499D01*
X263661Y54166D01*
X264328D01*
X268993Y51500D02*
X266327D01*
X268993Y54166D01*
Y54832D01*
X268326Y55499D01*
X266994D01*
X266327Y54832D01*
X207000Y51500D02*
Y55499D01*
X208333Y54166D01*
X209666Y55499D01*
Y51500D01*
X211665D02*
X212998D01*
X213665Y52166D01*
Y53499D01*
X212998Y54166D01*
X211665D01*
X210999Y53499D01*
Y52166D01*
X211665Y51500D01*
X215664Y54832D02*
Y54166D01*
X214997D01*
X216330D01*
X215664D01*
Y52166D01*
X216330Y51500D01*
X218996D02*
X220329D01*
X220995Y52166D01*
Y53499D01*
X220329Y54166D01*
X218996D01*
X218330Y53499D01*
Y52166D01*
X218996Y51500D01*
X222328Y54166D02*
Y51500D01*
Y52833D01*
X222995Y53499D01*
X223661Y54166D01*
X224328D01*
X226327Y51500D02*
X227660D01*
X226994D01*
Y55499D01*
X226327Y54832D01*
X228668Y203166D02*
X228001Y202499D01*
Y201167D01*
X228668Y200500D01*
X231334D01*
X232000Y201167D01*
Y202499D01*
X231334Y203166D01*
X230001D01*
Y201833D01*
X232000Y204499D02*
X228001D01*
X232000Y207165D01*
X228001D01*
Y208497D02*
X232000D01*
Y210497D01*
X231334Y211163D01*
X228668D01*
X228001Y210497D01*
Y208497D01*
X228668Y164666D02*
X228001Y163999D01*
Y162666D01*
X228668Y162000D01*
X231334D01*
X232000Y162666D01*
Y163999D01*
X231334Y164666D01*
X230001D01*
Y163333D01*
X232000Y165999D02*
X228001D01*
X232000Y168665D01*
X228001D01*
Y169997D02*
X232000D01*
Y171997D01*
X231334Y172663D01*
X228668D01*
X228001Y171997D01*
Y169997D01*
X228668Y87166D02*
X228001Y86499D01*
Y85167D01*
X228668Y84500D01*
X231333D01*
X232000Y85167D01*
Y86499D01*
X231333Y87166D01*
X230001D01*
Y85833D01*
X232000Y88499D02*
X228001D01*
X232000Y91164D01*
X228001D01*
Y92497D02*
X232000D01*
Y94497D01*
X231333Y95163D01*
X228668D01*
X228001Y94497D01*
Y92497D01*
X289835Y85000D02*
X292501D01*
X293834Y86333D01*
X292501Y87666D01*
X289835D01*
X293834Y88999D02*
Y90332D01*
Y89665D01*
X289835D01*
X290501Y88999D01*
X293834Y94997D02*
Y92331D01*
X291168Y94997D01*
X290501D01*
X289835Y94330D01*
Y92997D01*
X290501Y92331D01*
X294500Y96330D02*
Y98996D01*
X293834Y100328D02*
Y101661D01*
Y100995D01*
X291168D01*
Y100328D01*
X293834Y103661D02*
X291168D01*
Y105660D01*
X291834Y106326D01*
X293834D01*
X289835Y204500D02*
X292501D01*
X293833Y205833D01*
X292501Y207166D01*
X289835D01*
Y211164D02*
Y208499D01*
X291834D01*
X291168Y209832D01*
Y210498D01*
X291834Y211164D01*
X293167D01*
X293833Y210498D01*
Y209165D01*
X293167Y208499D01*
X289835Y212497D02*
X293833D01*
Y214497D01*
X293167Y215163D01*
X292501D01*
X291834D01*
X291168Y214497D01*
Y212497D01*
X294500Y216496D02*
Y219162D01*
X293833Y221161D02*
Y222494D01*
X293167Y223161D01*
X291834D01*
X291168Y222494D01*
Y221161D01*
X291834Y220495D01*
X293167D01*
X293833Y221161D01*
X291168Y224494D02*
X293167D01*
X293833Y225160D01*
Y227159D01*
X291168D01*
X290501Y229159D02*
X291168D01*
Y228492D01*
Y229825D01*
Y229159D01*
X293167D01*
X293833Y229825D01*
X289835Y160000D02*
X292501D01*
X293833Y161333D01*
X292501Y162666D01*
X289835D01*
Y166665D02*
Y163999D01*
X291834D01*
X291168Y165332D01*
Y165998D01*
X291834Y166665D01*
X293167D01*
X293833Y165998D01*
Y164665D01*
X293167Y163999D01*
X291168Y168664D02*
Y169997D01*
X291834Y170663D01*
X293833D01*
Y168664D01*
X293167Y167997D01*
X292501Y168664D01*
Y170663D01*
X294500Y171996D02*
Y174662D01*
X293833Y176661D02*
Y177994D01*
X293167Y178661D01*
X291834D01*
X291168Y177994D01*
Y176661D01*
X291834Y175995D01*
X293167D01*
X293833Y176661D01*
X291168Y179994D02*
X293167D01*
X293833Y180660D01*
Y182659D01*
X291168D01*
X290501Y184659D02*
X291168D01*
Y183992D01*
Y185325D01*
Y184659D01*
X293167D01*
X293833Y185325D01*
X110511Y294001D02*
Y299999D01*
X112510Y298000D01*
X114509Y299999D01*
Y294001D01*
X117509D02*
X119508D01*
X120508Y295001D01*
Y297000D01*
X119508Y298000D01*
X117509D01*
X116509Y297000D01*
Y295001D01*
X117509Y294001D01*
X123507Y298999D02*
Y298000D01*
X122507D01*
X124506D01*
X123507D01*
Y295001D01*
X124506Y294001D01*
X128505D02*
X130504D01*
X131504Y295001D01*
Y297000D01*
X130504Y298000D01*
X128505D01*
X127505Y297000D01*
Y295001D01*
X128505Y294001D01*
X133503Y298000D02*
Y294001D01*
Y296000D01*
X134503Y297000D01*
X135503Y298000D01*
X136502D01*
X143500Y298999D02*
X142500Y299999D01*
X140501D01*
X139502Y298999D01*
Y298000D01*
X140501Y297000D01*
X142500D01*
X143500Y296000D01*
Y295001D01*
X142500Y294001D01*
X140501D01*
X139502Y295001D01*
X145500Y299999D02*
Y294001D01*
Y297000D01*
X146499Y298000D01*
X148499D01*
X149498Y297000D01*
Y294001D01*
X151498D02*
X153497D01*
X152497D01*
Y298000D01*
X151498D01*
X159495Y294001D02*
X157496D01*
X156496Y295001D01*
Y297000D01*
X157496Y298000D01*
X159495D01*
X160495Y297000D01*
Y296000D01*
X156496D01*
X162494Y294001D02*
X164493D01*
X163494D01*
Y299999D01*
X162494D01*
X171491D02*
Y294001D01*
X168492D01*
X167492Y295001D01*
Y297000D01*
X168492Y298000D01*
X171491D01*
X173491Y298999D02*
X174490Y299999D01*
X176489D01*
X177489Y298999D01*
Y298000D01*
X176489Y297000D01*
X175490D01*
X176489D01*
X177489Y296000D01*
Y295001D01*
X176489Y294001D01*
X174490D01*
X173491Y295001D01*
X197900Y198199D02*
Y194200D01*
X199899D01*
X200566Y194867D01*
Y197532D01*
X199899Y198199D01*
X197900D01*
X204564Y194200D02*
X201899D01*
X204564Y196866D01*
Y197532D01*
X203898Y198199D01*
X202565D01*
X201899Y197532D01*
X215900Y198199D02*
Y194200D01*
X217899D01*
X218566Y194867D01*
Y197532D01*
X217899Y198199D01*
X215900D01*
X219899Y194200D02*
X221232D01*
X220565D01*
Y198199D01*
X219899Y197532D01*
X258499Y206668D02*
X254501D01*
Y208668D01*
X255167Y209334D01*
X256500D01*
X257166Y208668D01*
Y206668D01*
X258499Y213333D02*
Y210667D01*
X255834Y213333D01*
X255167D01*
X254501Y212667D01*
Y211334D01*
X255167Y210667D01*
X258499Y216665D02*
X254501D01*
X256500Y214666D01*
Y217332D01*
X22011Y294001D02*
Y299999D01*
X24010Y298000D01*
X26010Y299999D01*
Y294001D01*
X29009D02*
X31008D01*
X32008Y295001D01*
Y297000D01*
X31008Y298000D01*
X29009D01*
X28009Y297000D01*
Y295001D01*
X29009Y294001D01*
X35007Y298999D02*
Y298000D01*
X34007D01*
X36006D01*
X35007D01*
Y295001D01*
X36006Y294001D01*
X40005D02*
X42004D01*
X43004Y295001D01*
Y297000D01*
X42004Y298000D01*
X40005D01*
X39005Y297000D01*
Y295001D01*
X40005Y294001D01*
X45003Y298000D02*
Y294001D01*
Y296000D01*
X46003Y297000D01*
X47003Y298000D01*
X48002D01*
X55000Y298999D02*
X54001Y299999D01*
X52001D01*
X51002Y298999D01*
Y298000D01*
X52001Y297000D01*
X54001D01*
X55000Y296000D01*
Y295001D01*
X54001Y294001D01*
X52001D01*
X51002Y295001D01*
X56999Y299999D02*
Y294001D01*
Y297000D01*
X57999Y298000D01*
X59999D01*
X60998Y297000D01*
Y294001D01*
X62998D02*
X64997D01*
X63997D01*
Y298000D01*
X62998D01*
X70995Y294001D02*
X68996D01*
X67996Y295001D01*
Y297000D01*
X68996Y298000D01*
X70995D01*
X71995Y297000D01*
Y296000D01*
X67996D01*
X73994Y294001D02*
X75993D01*
X74994D01*
Y299999D01*
X73994D01*
X82991D02*
Y294001D01*
X79992D01*
X78992Y295001D01*
Y297000D01*
X79992Y298000D01*
X82991D01*
X87989Y294001D02*
Y299999D01*
X84991Y297000D01*
X88989D01*
X110011Y149000D02*
Y154998D01*
X112010Y152999D01*
X114009Y154998D01*
Y149000D01*
X117009D02*
X119008D01*
X120008Y150000D01*
Y151999D01*
X119008Y152999D01*
X117009D01*
X116009Y151999D01*
Y150000D01*
X117009Y149000D01*
X123007Y153998D02*
Y152999D01*
X122007D01*
X124006D01*
X123007D01*
Y150000D01*
X124006Y149000D01*
X128005D02*
X130004D01*
X131004Y150000D01*
Y151999D01*
X130004Y152999D01*
X128005D01*
X127005Y151999D01*
Y150000D01*
X128005Y149000D01*
X133003Y152999D02*
Y149000D01*
Y150999D01*
X134003Y151999D01*
X135003Y152999D01*
X136002D01*
X143000Y153998D02*
X142000Y154998D01*
X140001D01*
X139002Y153998D01*
Y152999D01*
X140001Y151999D01*
X142000D01*
X143000Y150999D01*
Y150000D01*
X142000Y149000D01*
X140001D01*
X139002Y150000D01*
X145000Y154998D02*
Y149000D01*
Y151999D01*
X145999Y152999D01*
X147999D01*
X148998Y151999D01*
Y149000D01*
X150998D02*
X152997D01*
X151997D01*
Y152999D01*
X150998D01*
X158995Y149000D02*
X156996D01*
X155996Y150000D01*
Y151999D01*
X156996Y152999D01*
X158995D01*
X159995Y151999D01*
Y150999D01*
X155996D01*
X161994Y149000D02*
X163993D01*
X162994D01*
Y154998D01*
X161994D01*
X170991D02*
Y149000D01*
X167992D01*
X166992Y150000D01*
Y151999D01*
X167992Y152999D01*
X170991D01*
X176989Y149000D02*
X172991D01*
X176989Y152999D01*
Y153998D01*
X175989Y154998D01*
X173990D01*
X172991Y153998D01*
X23010Y149001D02*
Y154999D01*
X25010Y153000D01*
X27009Y154999D01*
Y149001D01*
X30008D02*
X32008D01*
X33007Y150001D01*
Y152000D01*
X32008Y153000D01*
X30008D01*
X29009Y152000D01*
Y150001D01*
X30008Y149001D01*
X36006Y153999D02*
Y153000D01*
X35007D01*
X37006D01*
X36006D01*
Y150001D01*
X37006Y149001D01*
X41005D02*
X43004D01*
X44004Y150001D01*
Y152000D01*
X43004Y153000D01*
X41005D01*
X40005Y152000D01*
Y150001D01*
X41005Y149001D01*
X46003Y153000D02*
Y149001D01*
Y151000D01*
X47003Y152000D01*
X48002Y153000D01*
X49002D01*
X56000Y153999D02*
X55000Y154999D01*
X53001D01*
X52001Y153999D01*
Y153000D01*
X53001Y152000D01*
X55000D01*
X56000Y151000D01*
Y150001D01*
X55000Y149001D01*
X53001D01*
X52001Y150001D01*
X57999Y154999D02*
Y149001D01*
Y152000D01*
X58999Y153000D01*
X60998D01*
X61998Y152000D01*
Y149001D01*
X63997D02*
X65997D01*
X64997D01*
Y153000D01*
X63997D01*
X71995Y149001D02*
X69995D01*
X68996Y150001D01*
Y152000D01*
X69995Y153000D01*
X71995D01*
X72994Y152000D01*
Y151000D01*
X68996D01*
X74994Y149001D02*
X76993D01*
X75993D01*
Y154999D01*
X74994D01*
X83991D02*
Y149001D01*
X80992D01*
X79992Y150001D01*
Y152000D01*
X80992Y153000D01*
X83991D01*
X85990Y149001D02*
X87989D01*
X86990D01*
Y154999D01*
X85990Y153999D01*
X244668Y238501D02*
Y242499D01*
X246668D01*
X247334Y241833D01*
Y240500D01*
X246668Y239834D01*
X244668D01*
X246001D02*
X247334Y238501D01*
X248667Y241833D02*
X249334Y242499D01*
X250666D01*
X251333Y241833D01*
Y241166D01*
X250666Y240500D01*
X250000D01*
X250666D01*
X251333Y239834D01*
Y239167D01*
X250666Y238501D01*
X249334D01*
X248667Y239167D01*
X252666Y241833D02*
X253332Y242499D01*
X254665D01*
X255332Y241833D01*
Y241166D01*
X254665Y240500D01*
X253999D01*
X254665D01*
X255332Y239834D01*
Y239167D01*
X254665Y238501D01*
X253332D01*
X252666Y239167D01*
X245168Y194501D02*
Y198499D01*
X247168D01*
X247834Y197833D01*
Y196500D01*
X247168Y195834D01*
X245168D01*
X246501D02*
X247834Y194501D01*
X249167Y197833D02*
X249834Y198499D01*
X251166D01*
X251833Y197833D01*
Y197167D01*
X251166Y196500D01*
X250500D01*
X251166D01*
X251833Y195834D01*
Y195167D01*
X251166Y194501D01*
X249834D01*
X249167Y195167D01*
X255832Y194501D02*
X253166D01*
X255832Y197167D01*
Y197833D01*
X255165Y198499D01*
X253832D01*
X253166Y197833D01*
X232835Y72501D02*
Y76499D01*
X234834D01*
X235501Y75833D01*
Y74500D01*
X234834Y73834D01*
X232835D01*
X234168D02*
X235501Y72501D01*
X236834Y75833D02*
X237500Y76499D01*
X238833D01*
X239499Y75833D01*
Y75166D01*
X238833Y74500D01*
X238166D01*
X238833D01*
X239499Y73834D01*
Y73167D01*
X238833Y72501D01*
X237500D01*
X236834Y73167D01*
X240832Y72501D02*
X242165D01*
X241499D01*
Y76499D01*
X240832Y75833D01*
X198999Y254668D02*
X195001D01*
Y256668D01*
X195667Y257334D01*
X197000D01*
X197667Y256668D01*
Y254668D01*
X198999Y261333D02*
Y258667D01*
X196334Y261333D01*
X195667D01*
X195001Y260666D01*
Y259334D01*
X195667Y258667D01*
Y262666D02*
X195001Y263332D01*
Y264665D01*
X195667Y265332D01*
X196334D01*
X197000Y264665D01*
X197667Y265332D01*
X198333D01*
X198999Y264665D01*
Y263332D01*
X198333Y262666D01*
X197667D01*
X197000Y263332D01*
X196334Y262666D01*
X195667D01*
X197000Y263332D02*
Y264665D01*
X239999Y254668D02*
X236001D01*
Y256668D01*
X236667Y257334D01*
X238000D01*
X238666Y256668D01*
Y254668D01*
X239999Y261333D02*
Y258667D01*
X237334Y261333D01*
X236667D01*
X236001Y260666D01*
Y259334D01*
X236667Y258667D01*
X236001Y262666D02*
Y265332D01*
X236667D01*
X239333Y262666D01*
X239999D01*
X240499Y54168D02*
X236501D01*
Y56168D01*
X237167Y56834D01*
X238500D01*
X239166Y56168D01*
Y54168D01*
X240499Y60833D02*
Y58167D01*
X237834Y60833D01*
X237167D01*
X236501Y60166D01*
Y58834D01*
X237167Y58167D01*
X236501Y64832D02*
X237167Y63499D01*
X238500Y62166D01*
X239833D01*
X240499Y62832D01*
Y64165D01*
X239833Y64832D01*
X239166D01*
X238500Y64165D01*
Y62166D01*
X198909Y54168D02*
X194910D01*
Y56168D01*
X195577Y56834D01*
X196909D01*
X197576Y56168D01*
Y54168D01*
X198909Y60833D02*
Y58167D01*
X196243Y60833D01*
X195577D01*
X194910Y60166D01*
Y58834D01*
X195577Y58167D01*
X194910Y64832D02*
Y62166D01*
X196909D01*
X196243Y63499D01*
Y64165D01*
X196909Y64832D01*
X198242D01*
X198909Y64165D01*
Y62832D01*
X198242Y62166D01*
X258499Y162668D02*
X254501D01*
Y164668D01*
X255167Y165334D01*
X256500D01*
X257166Y164668D01*
Y162668D01*
X258499Y169333D02*
Y166667D01*
X255834Y169333D01*
X255167D01*
X254501Y168667D01*
Y167334D01*
X255167Y166667D01*
Y170666D02*
X254501Y171332D01*
Y172665D01*
X255167Y173332D01*
X255834D01*
X256500Y172665D01*
Y171999D01*
Y172665D01*
X257166Y173332D01*
X257833D01*
X258499Y172665D01*
Y171332D01*
X257833Y170666D01*
X258999Y123668D02*
X255001D01*
Y125668D01*
X255667Y126334D01*
X257000D01*
X257666Y125668D01*
Y123668D01*
X258999Y130333D02*
Y127667D01*
X256333Y130333D01*
X255667D01*
X255001Y129666D01*
Y128334D01*
X255667Y127667D01*
X258999Y134332D02*
Y131666D01*
X256333Y134332D01*
X255667D01*
X255001Y133665D01*
Y132332D01*
X255667Y131666D01*
X258999Y85335D02*
X255001D01*
Y87334D01*
X255667Y88001D01*
X257000D01*
X257666Y87334D01*
Y85335D01*
X258999Y91999D02*
Y89334D01*
X256334Y91999D01*
X255667D01*
X255001Y91333D01*
Y90000D01*
X255667Y89334D01*
X258999Y93332D02*
Y94665D01*
Y93999D01*
X255001D01*
X255667Y93332D01*
X274669Y242499D02*
Y238501D01*
X277335D01*
X281334Y242499D02*
X278668D01*
Y238501D01*
X281334D01*
X278668Y240500D02*
X280001D01*
X282666Y242499D02*
Y238501D01*
X284666D01*
X285332Y239167D01*
Y241833D01*
X284666Y242499D01*
X282666D01*
X286665D02*
X289331D01*
Y241833D01*
X286665Y239167D01*
Y238501D01*
X273669Y198999D02*
Y195001D01*
X276335D01*
X280334Y198999D02*
X277668D01*
Y195001D01*
X280334D01*
X277668Y197000D02*
X279001D01*
X281666Y198999D02*
Y195001D01*
X283666D01*
X284332Y195667D01*
Y198333D01*
X283666Y198999D01*
X281666D01*
X288331D02*
X286998Y198333D01*
X285665Y197000D01*
Y195667D01*
X286332Y195001D01*
X287665D01*
X288331Y195667D01*
Y196334D01*
X287665Y197000D01*
X285665D01*
X280669Y76499D02*
Y72501D01*
X283335D01*
X287334Y76499D02*
X284668D01*
Y72501D01*
X287334D01*
X284668Y74500D02*
X286001D01*
X288667Y76499D02*
Y72501D01*
X290666D01*
X291332Y73167D01*
Y75833D01*
X290666Y76499D01*
X288667D01*
X295331D02*
X292665D01*
Y74500D01*
X293998Y75166D01*
X294665D01*
X295331Y74500D01*
Y73167D01*
X294665Y72501D01*
X293332D01*
X292665Y73167D01*
X211000Y122999D02*
X208334D01*
Y121000D01*
X209667D01*
X208334D01*
Y119001D01*
X212333D02*
X213666D01*
X212999D01*
Y122999D01*
X212333Y122333D01*
D13*
X207677Y150130D02*
Y168358D01*
X198323Y150130D02*
X207677D01*
X198323D02*
Y168358D01*
X207677D01*
X203000D02*
X207677Y163685D01*
X203000Y168358D02*
Y182520D01*
Y135968D02*
Y150130D01*
X225677D02*
Y168358D01*
X216323Y150130D02*
X225677D01*
X216323D02*
Y168358D01*
X225677D01*
X221000D02*
X225677Y163685D01*
X221000Y168358D02*
Y182520D01*
Y135968D02*
Y150130D01*
X250598Y234886D02*
X287606D01*
X250598Y203705D02*
Y234886D01*
Y203705D02*
X287606D01*
Y234886D01*
X253000Y73319D02*
Y75681D01*
X250598Y151795D02*
X287606D01*
X250598Y120614D02*
Y151795D01*
Y120614D02*
X287606D01*
Y151795D01*
X263000Y194728D02*
Y198272D01*
X236500Y195319D02*
Y197681D01*
X236000Y239319D02*
Y241681D01*
X263500Y238728D02*
Y242272D01*
X241705Y265598D02*
Y302606D01*
Y265598D02*
X272886D01*
Y302606D01*
X241705D02*
X272886D01*
X202614Y265598D02*
Y302606D01*
Y265598D02*
X233795D01*
Y302606D01*
X202614D02*
X233795D01*
X250598Y112795D02*
X287606D01*
X250598Y81614D02*
Y112795D01*
Y81614D02*
X287606D01*
Y112795D01*
X201614Y12394D02*
X232795D01*
X201614D02*
Y49402D01*
X232795D01*
Y12394D02*
Y49402D01*
X242205Y12394D02*
X273386D01*
X242205D02*
Y49402D01*
X273386D01*
Y12394D02*
Y49402D01*
X287606Y159705D02*
Y190886D01*
X250598Y159705D02*
X287606D01*
X250598D02*
Y190886D01*
X287606D01*
X272000Y72728D02*
Y76272D01*
X205823Y103500D02*
X215177D01*
M02*
