G04*
G04 #@! TF.GenerationSoftware,Altium Limited,Altium Designer,22.9.1 (49)*
G04*
G04 Layer_Physical_Order=1*
G04 Layer_Color=255*
%FSLAX24Y24*%
%MOIN*%
G70*
G04*
G04 #@! TF.SameCoordinates,10C0EDED-7795-41B1-8CC0-87200EC90710*
G04*
G04*
G04 #@! TF.FilePolarity,Positive*
G04*
G01*
G75*
%ADD12C,0.0100*%
%ADD14C,0.0300*%
%ADD15C,0.0060*%
%ADD16R,0.0315X0.0295*%
%ADD17R,0.0354X0.0374*%
%ADD18R,0.1106X0.0327*%
%ADD24C,0.0750*%
%ADD25C,0.0200*%
%ADD26C,0.0150*%
%ADD27C,0.0650*%
%ADD28C,0.1004*%
%ADD29C,0.0250*%
D12*
X4750Y12948D02*
Y13050D01*
X15900D02*
X15975Y13125D01*
X29250Y2000D02*
G03*
X29250Y2000I-500J0D01*
G01*
Y27500D02*
G03*
X29250Y27500I-500J0D01*
G01*
X1750Y2000D02*
G03*
X1750Y2000I-500J0D01*
G01*
Y27500D02*
G03*
X1750Y27500I-500J0D01*
G01*
X2250Y1550D02*
X10250D01*
Y2550D01*
X2250D02*
X10250D01*
X2250Y1550D02*
Y2550D01*
X10250Y12550D02*
Y14550D01*
X3250D02*
X10250D01*
X2250Y13550D02*
Y14550D01*
X3250D01*
X2250Y29050D02*
X3250D01*
X2250Y28050D02*
Y29050D01*
X3250D02*
X10250D01*
Y27050D02*
Y29050D01*
X2250Y16050D02*
Y17050D01*
X10250D01*
Y16050D02*
Y17050D01*
X2250Y16050D02*
X10250D01*
X11400Y1550D02*
X19400D01*
Y2550D01*
X11400D02*
X19400D01*
X11400Y1550D02*
Y2550D01*
X19400Y12550D02*
Y14550D01*
X12400D02*
X19400D01*
X11400Y13550D02*
Y14550D01*
X12400D01*
X11350Y16050D02*
X19350D01*
Y17050D01*
X11350D02*
X19350D01*
X11350Y16050D02*
Y17050D01*
X19350Y27050D02*
Y29050D01*
X12350D02*
X19350D01*
X11350Y28050D02*
Y29050D01*
X12350D01*
X0Y34850D02*
X600Y35050D01*
X0Y34850D02*
X600Y34650D01*
X29400D02*
X30000Y34850D01*
X29400Y35050D02*
X30000Y34850D01*
X0D02*
X12731D01*
X16949D02*
X30000D01*
X0Y33900D02*
Y34950D01*
X30000Y33800D02*
Y34950D01*
X36400Y600D02*
X36600Y0D01*
X36800Y600D01*
X36600Y31500D02*
X36800Y30900D01*
X36400D02*
X36600Y31500D01*
Y0D02*
Y13531D01*
Y17649D02*
Y31500D01*
X33200Y0D02*
X36700D01*
X34300Y31500D02*
X36700D01*
D14*
X30000Y1500D02*
Y30000D01*
X1500Y31500D02*
X28500D01*
X30000Y30000D01*
X-0D02*
X0Y1500D01*
Y30000D02*
X1500Y31500D01*
X28500Y0D02*
X30000Y1500D01*
X0D02*
X1500Y0D01*
X28500D01*
D15*
X12891Y34990D02*
X12991Y35090D01*
X13191D01*
X13290Y34990D01*
Y34890D01*
X13191Y34790D01*
X13091D01*
X13191D01*
X13290Y34690D01*
Y34590D01*
X13191Y34490D01*
X12991D01*
X12891Y34590D01*
X13490Y34990D02*
X13590Y35090D01*
X13790D01*
X13890Y34990D01*
Y34590D01*
X13790Y34490D01*
X13590D01*
X13490Y34590D01*
Y34990D01*
X14090D02*
X14190Y35090D01*
X14390D01*
X14490Y34990D01*
Y34590D01*
X14390Y34490D01*
X14190D01*
X14090Y34590D01*
Y34990D01*
X14690D02*
X14790Y35090D01*
X14990D01*
X15090Y34990D01*
Y34590D01*
X14990Y34490D01*
X14790D01*
X14690Y34590D01*
Y34990D01*
X15290Y34490D02*
Y34590D01*
X15390D01*
Y34490D01*
X15290D01*
X15790Y34990D02*
X15890Y35090D01*
X16090D01*
X16190Y34990D01*
Y34590D01*
X16090Y34490D01*
X15890D01*
X15790Y34590D01*
Y34990D01*
X16389D02*
X16489Y35090D01*
X16689D01*
X16789Y34990D01*
Y34590D01*
X16689Y34490D01*
X16489D01*
X16389Y34590D01*
Y34990D01*
X36460Y13691D02*
X36360Y13791D01*
Y13991D01*
X36460Y14090D01*
X36560D01*
X36660Y13991D01*
Y13891D01*
Y13991D01*
X36760Y14090D01*
X36860D01*
X36960Y13991D01*
Y13791D01*
X36860Y13691D01*
X36960Y14290D02*
Y14490D01*
Y14390D01*
X36360D01*
X36460Y14290D01*
X36360Y15190D02*
Y14790D01*
X36660D01*
X36560Y14990D01*
Y15090D01*
X36660Y15190D01*
X36860D01*
X36960Y15090D01*
Y14890D01*
X36860Y14790D01*
X36460Y15390D02*
X36360Y15490D01*
Y15690D01*
X36460Y15790D01*
X36860D01*
X36960Y15690D01*
Y15490D01*
X36860Y15390D01*
X36460D01*
X36960Y15990D02*
X36860D01*
Y16090D01*
X36960D01*
Y15990D01*
X36460Y16490D02*
X36360Y16590D01*
Y16790D01*
X36460Y16890D01*
X36860D01*
X36960Y16790D01*
Y16590D01*
X36860Y16490D01*
X36460D01*
Y17090D02*
X36360Y17189D01*
Y17389D01*
X36460Y17489D01*
X36860D01*
X36960Y17389D01*
Y17189D01*
X36860Y17090D01*
X36460D01*
D16*
X20665Y8900D02*
D03*
X20035D02*
D03*
X20800Y16650D02*
D03*
X20170D02*
D03*
X20800Y20600D02*
D03*
X20170D02*
D03*
D17*
X20615Y10500D02*
D03*
X19985D02*
D03*
X20800Y18250D02*
D03*
X20170D02*
D03*
X20185Y22200D02*
D03*
X20815D02*
D03*
D18*
X20550Y13804D02*
D03*
Y12496D02*
D03*
D24*
X11825Y5873D02*
X21613D01*
X5750Y11948D02*
X11825Y5873D01*
X20550Y11550D02*
Y12496D01*
X16850Y28450D02*
X19500D01*
X16300D02*
X16850D01*
Y27550D02*
Y28450D01*
X15850Y28000D02*
X16300Y28450D01*
X19500D02*
X20150Y27800D01*
Y26600D02*
Y27800D01*
Y26600D02*
X22323Y24427D01*
X27927Y23895D02*
Y24705D01*
X22482Y30150D02*
X27927Y24705D01*
X5750Y30150D02*
X22482D01*
X5750Y27550D02*
Y30150D01*
X4750Y29150D02*
X5750Y30150D01*
X4750Y27550D02*
Y29150D01*
X26545Y23323D02*
X27355D01*
X25391Y24300D02*
X25440Y24251D01*
X25617D02*
X26545Y23323D01*
X25440Y24251D02*
X25617D01*
X27355Y23323D02*
X27927Y23895D01*
X7763Y29300D02*
X21950D01*
X26950Y24300D01*
X6750Y27550D02*
Y28600D01*
X7750Y27550D02*
Y29100D01*
X6750Y28600D02*
X7450Y29300D01*
X15850Y27550D02*
Y28000D01*
X14850Y26650D02*
Y27550D01*
X13850Y27039D02*
Y27550D01*
Y27039D02*
X14289Y26600D01*
X14900D02*
X18750D01*
X21050Y24300D01*
X22323Y24427D02*
X22413D01*
X22540Y24300D02*
X22609D01*
X22413Y24427D02*
X22540Y24300D01*
X25509Y7900D02*
X26559Y6850D01*
X25000D02*
X25977Y5873D01*
X7750Y11150D02*
X12050Y6850D01*
X6750Y12150D02*
X7750Y11150D01*
Y13050D01*
X4750Y12948D02*
X5750Y11948D01*
Y13050D01*
X6750Y12150D02*
Y13050D01*
X12050Y6850D02*
X21100D01*
X17600Y9200D02*
X18900Y7900D01*
X17600Y9200D02*
Y10061D01*
X17161Y10500D02*
X17600Y10061D01*
X15400Y10500D02*
X17161D01*
X13900Y12000D02*
X15400Y10500D01*
X14900Y11200D02*
Y13050D01*
X13900Y12000D02*
Y13050D01*
X20550Y13804D02*
Y14200D01*
X25977Y5873D02*
X27464D01*
X28036Y6445D01*
X21613Y5873D02*
X22590Y6850D01*
X28036Y6445D02*
Y7255D01*
X22590Y6850D02*
X22659D01*
X18900Y7900D02*
X25509D01*
X23227Y12064D02*
X28036Y7255D01*
X23227Y12064D02*
Y14805D01*
X20550Y14200D02*
X20800Y14450D01*
X22200D01*
X17827Y15377D02*
X22655D01*
X23227Y14805D01*
X15975Y13125D02*
Y13525D01*
X16900Y13050D02*
Y14450D01*
X15975Y13525D02*
X16900Y14450D01*
X17827Y15377D01*
X14289Y26600D02*
X14900D01*
X14850Y26650D02*
X14900Y26600D01*
D25*
X10800Y12700D02*
X11700Y11800D01*
X10800Y12700D02*
Y20350D01*
X11650Y21200D01*
X20582Y10532D02*
Y11518D01*
X20550Y11550D02*
X20582Y11518D01*
Y10532D02*
X20615Y10500D01*
X11650Y21200D02*
X17736D01*
X19985Y8948D02*
Y10500D01*
Y8948D02*
X20033Y8900D01*
X20035D01*
X20665D02*
X20685Y8920D01*
X22230D01*
X22250Y8941D01*
X20800Y16650D02*
X20848Y16698D01*
X20800Y18250D02*
Y19350D01*
X20100Y20050D02*
X20800Y19350D01*
X17750Y20050D02*
X20100D01*
X20170Y20600D02*
X20178Y20607D01*
Y22193D01*
X17736Y21200D02*
X19123Y22587D01*
X20178Y22193D02*
X20185Y22200D01*
X20815D02*
X20819Y22205D01*
X20815Y22200D02*
Y22210D01*
X20586Y22438D02*
X20815Y22210D01*
X20586Y22438D02*
Y22446D01*
X20445Y22587D02*
X20586Y22446D01*
X22200Y14450D02*
X22250Y14400D01*
X20848Y16698D02*
X22198D01*
X22250Y16750D01*
X20830Y18280D02*
X22220D01*
X20819Y22205D02*
X22245D01*
X22250Y22209D01*
X19123Y22587D02*
X20445D01*
D26*
X20170Y16650D02*
Y18250D01*
X20800D02*
X20830Y18280D01*
X20800Y20600D02*
X20825Y20625D01*
X22220Y18280D02*
X22250Y18309D01*
X20825Y20625D02*
X22225D01*
X22250Y20650D01*
D27*
X3750Y2050D02*
D03*
X9750Y13050D02*
D03*
X8750D02*
D03*
X7750D02*
D03*
X6750D02*
D03*
X5750D02*
D03*
X4750D02*
D03*
X3750D02*
D03*
X2750D02*
D03*
Y2050D02*
D03*
X9750D02*
D03*
X8750D02*
D03*
X7750D02*
D03*
X6750D02*
D03*
X5750D02*
D03*
X4750D02*
D03*
Y16550D02*
D03*
X5750D02*
D03*
X6750D02*
D03*
X7750D02*
D03*
X8750D02*
D03*
X9750D02*
D03*
X2750D02*
D03*
Y27550D02*
D03*
X3750D02*
D03*
X4750D02*
D03*
X5750D02*
D03*
X6750D02*
D03*
X7750D02*
D03*
X8750D02*
D03*
X9750D02*
D03*
X3750Y16550D02*
D03*
X12900Y2050D02*
D03*
X18900Y13050D02*
D03*
X17900D02*
D03*
X16900D02*
D03*
X15900D02*
D03*
X14900D02*
D03*
X13900D02*
D03*
X12900D02*
D03*
X11900D02*
D03*
Y2050D02*
D03*
X18900D02*
D03*
X17900D02*
D03*
X16900D02*
D03*
X15900D02*
D03*
X14900D02*
D03*
X13900D02*
D03*
X12850Y16550D02*
D03*
X18850Y27550D02*
D03*
X17850D02*
D03*
X16850D02*
D03*
X15850D02*
D03*
X14850D02*
D03*
X13850D02*
D03*
X12850D02*
D03*
X11850D02*
D03*
Y16550D02*
D03*
X18850D02*
D03*
X17850D02*
D03*
X16850D02*
D03*
X15850D02*
D03*
X14850D02*
D03*
X13850D02*
D03*
D28*
X21100Y6850D02*
D03*
X22659D02*
D03*
X25000D02*
D03*
X26559D02*
D03*
X22250Y8941D02*
D03*
Y10500D02*
D03*
Y12841D02*
D03*
Y14400D02*
D03*
Y16750D02*
D03*
Y18309D02*
D03*
Y22209D02*
D03*
Y20650D02*
D03*
X26950Y24300D02*
D03*
X25391D02*
D03*
X22609D02*
D03*
X21050D02*
D03*
D29*
X17400Y23650D02*
D03*
Y22500D02*
D03*
X15300Y7900D02*
D03*
X15700Y9100D02*
D03*
X10625Y5049D02*
D03*
X8400Y7750D02*
D03*
X11700Y11800D02*
D03*
X20550Y11550D02*
D03*
X15175Y18725D02*
D03*
X18450Y19115D02*
D03*
X17750Y20050D02*
D03*
X12680Y22650D02*
D03*
M02*
