G04*
G04 #@! TF.GenerationSoftware,Altium Limited,Altium Designer,22.9.1 (49)*
G04*
G04 Layer_Color=32896*
%FSLAX24Y24*%
%MOIN*%
G70*
G04*
G04 #@! TF.SameCoordinates,10C0EDED-7795-41B1-8CC0-87200EC90710*
G04*
G04*
G04 #@! TF.FilePolarity,Positive*
G04*
G01*
G75*
%ADD12C,0.0100*%
%ADD13C,0.0079*%
%ADD14C,0.0300*%
%ADD15C,0.0060*%
G36*
X5463Y8403D02*
X5470Y8402D01*
X5475Y8401D01*
X5481Y8400D01*
X5486Y8399D01*
X5491Y8397D01*
X5495Y8395D01*
X5499Y8394D01*
X5503Y8392D01*
X5506Y8390D01*
X5508Y8388D01*
X5510Y8387D01*
X5512Y8386D01*
X5513Y8385D01*
X5514Y8384D01*
X5514Y8384D01*
X5518Y8380D01*
X5521Y8376D01*
X5525Y8372D01*
X5527Y8368D01*
X5532Y8359D01*
X5534Y8350D01*
X5536Y8346D01*
X5537Y8342D01*
X5537Y8339D01*
X5538Y8336D01*
X5538Y8333D01*
Y8332D01*
X5539Y8331D01*
Y8330D01*
X5507Y8327D01*
X5506Y8335D01*
X5505Y8343D01*
X5503Y8349D01*
X5500Y8354D01*
X5498Y8359D01*
X5496Y8361D01*
X5494Y8363D01*
X5494Y8364D01*
X5488Y8368D01*
X5482Y8372D01*
X5476Y8374D01*
X5471Y8376D01*
X5466Y8377D01*
X5461Y8377D01*
X5460Y8378D01*
X5458D01*
X5450Y8377D01*
X5443Y8376D01*
X5437Y8373D01*
X5432Y8371D01*
X5428Y8369D01*
X5426Y8367D01*
X5424Y8365D01*
X5423Y8365D01*
X5419Y8360D01*
X5415Y8355D01*
X5413Y8349D01*
X5411Y8344D01*
X5410Y8340D01*
X5410Y8337D01*
X5410Y8335D01*
Y8334D01*
Y8334D01*
X5410Y8327D01*
X5412Y8320D01*
X5414Y8314D01*
X5417Y8308D01*
X5420Y8304D01*
X5422Y8300D01*
X5423Y8298D01*
X5424Y8297D01*
X5425Y8297D01*
Y8296D01*
X5427Y8292D01*
X5431Y8288D01*
X5435Y8284D01*
X5439Y8280D01*
X5449Y8271D01*
X5458Y8262D01*
X5462Y8258D01*
X5466Y8254D01*
X5470Y8251D01*
X5474Y8248D01*
X5476Y8246D01*
X5478Y8244D01*
X5480Y8243D01*
X5480Y8243D01*
X5489Y8235D01*
X5498Y8228D01*
X5505Y8221D01*
X5510Y8216D01*
X5515Y8211D01*
X5518Y8208D01*
X5520Y8206D01*
X5521Y8205D01*
Y8205D01*
X5526Y8199D01*
X5530Y8193D01*
X5533Y8187D01*
X5536Y8182D01*
X5538Y8178D01*
X5540Y8174D01*
X5541Y8172D01*
X5541Y8172D01*
Y8171D01*
X5542Y8167D01*
X5543Y8164D01*
X5544Y8160D01*
X5544Y8157D01*
X5545Y8154D01*
Y8152D01*
Y8150D01*
Y8150D01*
X5378D01*
Y8180D01*
X5502D01*
X5497Y8186D01*
X5495Y8189D01*
X5493Y8191D01*
X5491Y8193D01*
X5490Y8195D01*
X5489Y8196D01*
X5489Y8196D01*
X5487Y8198D01*
X5485Y8200D01*
X5479Y8205D01*
X5474Y8210D01*
X5467Y8216D01*
X5462Y8220D01*
X5459Y8222D01*
X5457Y8225D01*
X5455Y8226D01*
X5454Y8227D01*
X5453Y8228D01*
X5453Y8228D01*
X5447Y8233D01*
X5441Y8238D01*
X5436Y8243D01*
X5431Y8247D01*
X5427Y8251D01*
X5423Y8254D01*
X5419Y8258D01*
X5416Y8261D01*
X5414Y8264D01*
X5411Y8266D01*
X5410Y8268D01*
X5408Y8269D01*
X5406Y8272D01*
X5405Y8272D01*
X5400Y8278D01*
X5396Y8284D01*
X5392Y8289D01*
X5389Y8294D01*
X5387Y8298D01*
X5386Y8301D01*
X5385Y8303D01*
X5384Y8303D01*
X5382Y8309D01*
X5381Y8314D01*
X5379Y8319D01*
X5379Y8324D01*
X5378Y8328D01*
X5378Y8331D01*
Y8332D01*
Y8333D01*
X5378Y8339D01*
X5379Y8344D01*
X5380Y8349D01*
X5381Y8353D01*
X5385Y8362D01*
X5388Y8369D01*
X5391Y8372D01*
X5392Y8375D01*
X5394Y8377D01*
X5396Y8379D01*
X5398Y8380D01*
X5398Y8382D01*
X5399Y8382D01*
X5399Y8383D01*
X5403Y8386D01*
X5408Y8390D01*
X5412Y8392D01*
X5417Y8394D01*
X5427Y8398D01*
X5436Y8400D01*
X5440Y8401D01*
X5444Y8402D01*
X5448Y8402D01*
X5451Y8403D01*
X5453Y8403D01*
X5457D01*
X5463Y8403D01*
D02*
G37*
G36*
X5725Y8150D02*
X5567D01*
Y8180D01*
X5691D01*
Y8402D01*
X5725D01*
Y8150D01*
D02*
G37*
G36*
X13981Y8699D02*
X13994Y8698D01*
X14005Y8696D01*
X14010Y8695D01*
X14015Y8693D01*
X14020Y8692D01*
X14024Y8691D01*
X14027Y8690D01*
X14030Y8689D01*
X14032Y8688D01*
X14034Y8688D01*
X14035Y8687D01*
X14036D01*
X14046Y8681D01*
X14056Y8675D01*
X14065Y8669D01*
X14068Y8665D01*
X14071Y8663D01*
X14074Y8660D01*
X14077Y8657D01*
X14079Y8654D01*
X14080Y8652D01*
X14082Y8651D01*
X14083Y8649D01*
X14083Y8648D01*
X14084Y8648D01*
X14087Y8643D01*
X14089Y8638D01*
X14093Y8627D01*
X14096Y8616D01*
X14098Y8605D01*
X14099Y8600D01*
X14099Y8596D01*
X14100Y8592D01*
Y8589D01*
X14100Y8586D01*
Y8582D01*
X14100Y8574D01*
X14099Y8568D01*
X14098Y8561D01*
X14097Y8555D01*
X14095Y8549D01*
X14093Y8543D01*
X14091Y8538D01*
X14089Y8534D01*
X14087Y8530D01*
X14085Y8526D01*
X14084Y8523D01*
X14082Y8520D01*
X14080Y8518D01*
X14080Y8516D01*
X14079Y8515D01*
X14079Y8515D01*
X14074Y8510D01*
X14070Y8506D01*
X14065Y8502D01*
X14060Y8498D01*
X14049Y8491D01*
X14039Y8486D01*
X14034Y8484D01*
X14030Y8482D01*
X14026Y8481D01*
X14023Y8479D01*
X14020Y8478D01*
X14018Y8478D01*
X14016Y8477D01*
X14016D01*
X14008Y8511D01*
X14013Y8512D01*
X14019Y8514D01*
X14024Y8516D01*
X14029Y8518D01*
X14033Y8520D01*
X14037Y8522D01*
X14040Y8525D01*
X14044Y8527D01*
X14046Y8529D01*
X14049Y8531D01*
X14051Y8533D01*
X14053Y8534D01*
X14054Y8535D01*
X14055Y8537D01*
X14055Y8537D01*
X14056Y8537D01*
X14059Y8541D01*
X14061Y8545D01*
X14065Y8553D01*
X14068Y8561D01*
X14069Y8568D01*
X14071Y8575D01*
X14071Y8577D01*
Y8580D01*
X14072Y8582D01*
Y8585D01*
X14071Y8593D01*
X14070Y8601D01*
X14068Y8608D01*
X14066Y8615D01*
X14064Y8620D01*
X14063Y8622D01*
X14062Y8624D01*
X14061Y8625D01*
X14060Y8626D01*
X14060Y8627D01*
Y8628D01*
X14055Y8634D01*
X14049Y8640D01*
X14043Y8645D01*
X14037Y8649D01*
X14032Y8653D01*
X14028Y8655D01*
X14026Y8656D01*
X14025Y8656D01*
X14024Y8657D01*
X14024D01*
X14014Y8660D01*
X14005Y8662D01*
X13996Y8664D01*
X13987Y8665D01*
X13983Y8665D01*
X13979Y8665D01*
X13976D01*
X13973Y8666D01*
X13971D01*
X13969D01*
X13968D01*
X13968D01*
X13958Y8665D01*
X13950Y8665D01*
X13942Y8663D01*
X13934Y8662D01*
X13928Y8661D01*
X13926Y8660D01*
X13923Y8659D01*
X13922Y8659D01*
X13921Y8659D01*
X13920Y8658D01*
X13919D01*
X13911Y8655D01*
X13903Y8651D01*
X13897Y8646D01*
X13892Y8641D01*
X13887Y8637D01*
X13885Y8634D01*
X13883Y8632D01*
X13882Y8631D01*
Y8631D01*
X13877Y8623D01*
X13874Y8615D01*
X13871Y8607D01*
X13870Y8599D01*
X13868Y8592D01*
X13868Y8589D01*
Y8587D01*
X13868Y8585D01*
Y8582D01*
X13868Y8573D01*
X13870Y8565D01*
X13872Y8558D01*
X13874Y8551D01*
X13877Y8547D01*
X13878Y8543D01*
X13880Y8541D01*
X13881Y8540D01*
X13886Y8534D01*
X13892Y8529D01*
X13899Y8525D01*
X13905Y8521D01*
X13911Y8518D01*
X13914Y8517D01*
X13916Y8516D01*
X13918Y8515D01*
X13919Y8515D01*
X13920Y8514D01*
X13921D01*
X13913Y8482D01*
X13906Y8484D01*
X13901Y8486D01*
X13895Y8489D01*
X13890Y8491D01*
X13885Y8494D01*
X13881Y8498D01*
X13876Y8501D01*
X13872Y8503D01*
X13870Y8506D01*
X13867Y8509D01*
X13864Y8511D01*
X13862Y8513D01*
X13860Y8515D01*
X13859Y8517D01*
X13859Y8517D01*
X13859Y8518D01*
X13855Y8523D01*
X13852Y8528D01*
X13850Y8533D01*
X13847Y8538D01*
X13844Y8549D01*
X13842Y8559D01*
X13841Y8564D01*
X13840Y8568D01*
X13840Y8572D01*
X13840Y8575D01*
X13839Y8578D01*
Y8581D01*
X13840Y8593D01*
X13842Y8605D01*
X13844Y8615D01*
X13846Y8620D01*
X13847Y8624D01*
X13848Y8628D01*
X13850Y8632D01*
X13851Y8635D01*
X13852Y8638D01*
X13853Y8640D01*
X13854Y8641D01*
X13854Y8642D01*
X13855Y8642D01*
X13861Y8652D01*
X13868Y8661D01*
X13875Y8668D01*
X13883Y8674D01*
X13889Y8679D01*
X13892Y8681D01*
X13895Y8682D01*
X13897Y8684D01*
X13898Y8684D01*
X13899Y8685D01*
X13899Y8685D01*
X13911Y8690D01*
X13922Y8694D01*
X13934Y8696D01*
X13945Y8698D01*
X13949Y8699D01*
X13954Y8699D01*
X13958Y8700D01*
X13961D01*
X13964Y8700D01*
X13966D01*
X13968D01*
X13968D01*
X13981Y8699D01*
D02*
G37*
G36*
X14035Y8448D02*
X14040Y8447D01*
X14051Y8443D01*
X14059Y8439D01*
X14063Y8437D01*
X14067Y8435D01*
X14070Y8433D01*
X14072Y8431D01*
X14075Y8429D01*
X14077Y8427D01*
X14078Y8426D01*
X14079Y8425D01*
X14080Y8424D01*
X14080Y8424D01*
X14084Y8419D01*
X14087Y8415D01*
X14089Y8411D01*
X14092Y8406D01*
X14095Y8397D01*
X14097Y8388D01*
X14098Y8384D01*
X14099Y8380D01*
X14099Y8377D01*
X14100Y8374D01*
X14100Y8372D01*
Y8369D01*
X14100Y8362D01*
X14099Y8356D01*
X14098Y8349D01*
X14096Y8344D01*
X14095Y8338D01*
X14093Y8333D01*
X14091Y8329D01*
X14088Y8325D01*
X14087Y8321D01*
X14084Y8317D01*
X14083Y8315D01*
X14081Y8312D01*
X14079Y8311D01*
X14078Y8309D01*
X14077Y8308D01*
X14077Y8308D01*
X14073Y8304D01*
X14068Y8300D01*
X14063Y8297D01*
X14059Y8294D01*
X14054Y8292D01*
X14049Y8289D01*
X14041Y8286D01*
X14037Y8286D01*
X14033Y8285D01*
X14030Y8284D01*
X14027Y8284D01*
X14025Y8284D01*
X14023D01*
X14022D01*
X14021D01*
X14013Y8284D01*
X14005Y8285D01*
X13998Y8288D01*
X13992Y8290D01*
X13987Y8292D01*
X13984Y8294D01*
X13981Y8296D01*
X13981Y8296D01*
X13975Y8301D01*
X13970Y8307D01*
X13967Y8312D01*
X13964Y8318D01*
X13962Y8323D01*
X13960Y8327D01*
X13960Y8329D01*
X13959Y8330D01*
X13959Y8331D01*
Y8331D01*
X13956Y8325D01*
X13953Y8320D01*
X13949Y8315D01*
X13946Y8312D01*
X13943Y8309D01*
X13940Y8307D01*
X13939Y8305D01*
X13938Y8305D01*
X13933Y8302D01*
X13928Y8300D01*
X13923Y8298D01*
X13918Y8297D01*
X13914Y8296D01*
X13911Y8296D01*
X13909D01*
X13908D01*
X13902Y8296D01*
X13896Y8297D01*
X13890Y8299D01*
X13886Y8301D01*
X13882Y8303D01*
X13878Y8304D01*
X13877Y8305D01*
X13876Y8305D01*
X13870Y8309D01*
X13866Y8313D01*
X13862Y8318D01*
X13858Y8322D01*
X13855Y8326D01*
X13853Y8329D01*
X13852Y8331D01*
X13852Y8332D01*
Y8332D01*
X13849Y8339D01*
X13847Y8345D01*
X13845Y8352D01*
X13844Y8357D01*
X13843Y8362D01*
X13843Y8366D01*
Y8375D01*
X13843Y8380D01*
X13845Y8390D01*
X13848Y8399D01*
X13851Y8406D01*
X13853Y8409D01*
X13854Y8412D01*
X13856Y8414D01*
X13857Y8416D01*
X13858Y8418D01*
X13859Y8419D01*
X13859Y8419D01*
X13860Y8420D01*
X13867Y8427D01*
X13874Y8432D01*
X13882Y8436D01*
X13890Y8440D01*
X13897Y8442D01*
X13900Y8443D01*
X13903Y8444D01*
X13905Y8444D01*
X13906Y8445D01*
X13907Y8445D01*
X13908D01*
X13913Y8414D01*
X13905Y8413D01*
X13898Y8411D01*
X13893Y8408D01*
X13888Y8406D01*
X13884Y8403D01*
X13882Y8401D01*
X13880Y8399D01*
X13879Y8399D01*
X13876Y8394D01*
X13873Y8389D01*
X13871Y8384D01*
X13870Y8380D01*
X13869Y8375D01*
X13868Y8372D01*
Y8369D01*
X13868Y8363D01*
X13870Y8357D01*
X13872Y8352D01*
X13874Y8347D01*
X13876Y8344D01*
X13878Y8341D01*
X13879Y8340D01*
X13879Y8339D01*
X13884Y8335D01*
X13889Y8332D01*
X13893Y8331D01*
X13898Y8329D01*
X13902Y8328D01*
X13905Y8328D01*
X13907D01*
X13907D01*
X13907D01*
X13911D01*
X13915Y8328D01*
X13921Y8330D01*
X13927Y8333D01*
X13931Y8336D01*
X13935Y8339D01*
X13937Y8341D01*
X13939Y8343D01*
X13939Y8343D01*
Y8344D01*
X13942Y8350D01*
X13945Y8356D01*
X13947Y8362D01*
X13948Y8367D01*
X13949Y8372D01*
X13949Y8376D01*
Y8381D01*
X13949Y8382D01*
Y8384D01*
X13976Y8388D01*
X13975Y8383D01*
X13974Y8379D01*
X13974Y8375D01*
X13973Y8372D01*
X13973Y8369D01*
Y8366D01*
X13974Y8358D01*
X13975Y8351D01*
X13977Y8345D01*
X13980Y8340D01*
X13982Y8336D01*
X13985Y8333D01*
X13986Y8331D01*
X13987Y8331D01*
X13992Y8326D01*
X13998Y8322D01*
X14004Y8320D01*
X14010Y8318D01*
X14014Y8317D01*
X14018Y8317D01*
X14020Y8316D01*
X14021D01*
X14022D01*
X14022D01*
X14030Y8317D01*
X14037Y8319D01*
X14044Y8321D01*
X14049Y8324D01*
X14053Y8327D01*
X14057Y8329D01*
X14059Y8331D01*
X14060Y8332D01*
X14065Y8337D01*
X14068Y8344D01*
X14071Y8350D01*
X14073Y8356D01*
X14074Y8361D01*
X14074Y8365D01*
X14075Y8366D01*
Y8368D01*
X14074Y8375D01*
X14073Y8381D01*
X14071Y8387D01*
X14069Y8391D01*
X14067Y8395D01*
X14065Y8398D01*
X14064Y8399D01*
X14063Y8400D01*
X14058Y8404D01*
X14052Y8408D01*
X14046Y8411D01*
X14040Y8414D01*
X14034Y8415D01*
X14032Y8416D01*
X14029Y8416D01*
X14028Y8417D01*
X14026Y8417D01*
X14025Y8418D01*
X14025D01*
X14029Y8448D01*
X14035Y8448D01*
D02*
G37*
G36*
X14036Y8252D02*
X14041Y8251D01*
X14051Y8248D01*
X14060Y8244D01*
X14064Y8242D01*
X14067Y8240D01*
X14071Y8238D01*
X14073Y8236D01*
X14076Y8234D01*
X14077Y8232D01*
X14079Y8230D01*
X14080Y8230D01*
X14081Y8229D01*
X14081Y8229D01*
X14084Y8224D01*
X14087Y8220D01*
X14090Y8215D01*
X14092Y8210D01*
X14095Y8201D01*
X14097Y8192D01*
X14099Y8188D01*
X14099Y8184D01*
X14099Y8181D01*
X14100Y8178D01*
X14100Y8175D01*
Y8172D01*
X14100Y8165D01*
X14099Y8157D01*
X14097Y8150D01*
X14095Y8144D01*
X14093Y8138D01*
X14090Y8133D01*
X14088Y8128D01*
X14085Y8123D01*
X14082Y8119D01*
X14079Y8116D01*
X14076Y8113D01*
X14074Y8110D01*
X14072Y8109D01*
X14071Y8107D01*
X14070Y8106D01*
X14069Y8106D01*
X14065Y8102D01*
X14060Y8099D01*
X14055Y8096D01*
X14050Y8094D01*
X14040Y8091D01*
X14030Y8088D01*
X14026Y8088D01*
X14022Y8087D01*
X14019Y8087D01*
X14016Y8086D01*
X14014Y8086D01*
X14012D01*
X14011D01*
X14010D01*
X14004Y8086D01*
X13998Y8087D01*
X13992Y8088D01*
X13986Y8090D01*
X13981Y8091D01*
X13976Y8093D01*
X13972Y8095D01*
X13968Y8097D01*
X13964Y8099D01*
X13961Y8102D01*
X13958Y8103D01*
X13956Y8105D01*
X13954Y8107D01*
X13953Y8108D01*
X13952Y8109D01*
X13951Y8109D01*
X13947Y8113D01*
X13944Y8118D01*
X13941Y8122D01*
X13938Y8127D01*
X13936Y8132D01*
X13934Y8137D01*
X13931Y8145D01*
X13930Y8149D01*
X13930Y8153D01*
X13929Y8156D01*
X13929Y8159D01*
X13929Y8161D01*
Y8169D01*
X13929Y8174D01*
X13931Y8182D01*
X13934Y8190D01*
X13937Y8198D01*
X13939Y8204D01*
X13941Y8206D01*
X13942Y8208D01*
X13943Y8210D01*
X13944Y8211D01*
X13944Y8212D01*
X13945Y8212D01*
X13877Y8199D01*
Y8098D01*
X13847D01*
Y8223D01*
X13977Y8248D01*
X13981Y8218D01*
X13977Y8216D01*
X13973Y8213D01*
X13970Y8210D01*
X13968Y8207D01*
X13966Y8204D01*
X13964Y8202D01*
X13963Y8200D01*
X13963Y8200D01*
X13961Y8195D01*
X13959Y8190D01*
X13958Y8186D01*
X13957Y8182D01*
X13956Y8178D01*
X13956Y8175D01*
Y8168D01*
X13957Y8164D01*
X13958Y8156D01*
X13961Y8150D01*
X13964Y8144D01*
X13966Y8139D01*
X13969Y8136D01*
X13971Y8134D01*
X13971Y8134D01*
X13972D01*
X13978Y8129D01*
X13984Y8125D01*
X13991Y8122D01*
X13998Y8121D01*
X14004Y8119D01*
X14006Y8119D01*
X14009D01*
X14010Y8119D01*
X14012D01*
X14013D01*
X14013D01*
X14018D01*
X14023Y8119D01*
X14032Y8121D01*
X14040Y8124D01*
X14046Y8126D01*
X14051Y8129D01*
X14055Y8132D01*
X14056Y8133D01*
X14057Y8134D01*
X14057Y8134D01*
X14058Y8134D01*
X14061Y8137D01*
X14063Y8140D01*
X14068Y8147D01*
X14071Y8153D01*
X14072Y8159D01*
X14074Y8164D01*
X14074Y8169D01*
X14075Y8170D01*
Y8172D01*
X14074Y8179D01*
X14073Y8185D01*
X14071Y8191D01*
X14069Y8195D01*
X14067Y8199D01*
X14065Y8202D01*
X14063Y8204D01*
X14063Y8204D01*
X14058Y8209D01*
X14052Y8212D01*
X14046Y8215D01*
X14041Y8217D01*
X14035Y8219D01*
X14031Y8220D01*
X14029Y8220D01*
X14028Y8221D01*
X14028D01*
X14027D01*
X14030Y8253D01*
X14036Y8252D01*
D02*
G37*
G36*
X8597Y23097D02*
X8601Y23091D01*
X8606Y23085D01*
X8611Y23080D01*
X8615Y23076D01*
X8618Y23072D01*
X8620Y23071D01*
X8621Y23070D01*
X8621Y23069D01*
X8621Y23069D01*
X8629Y23063D01*
X8637Y23057D01*
X8644Y23052D01*
X8651Y23048D01*
X8658Y23044D01*
X8660Y23043D01*
X8662Y23042D01*
X8664Y23041D01*
X8666Y23040D01*
X8666Y23040D01*
X8667D01*
Y23010D01*
X8661Y23012D01*
X8656Y23015D01*
X8650Y23017D01*
X8645Y23020D01*
X8641Y23022D01*
X8637Y23024D01*
X8635Y23025D01*
X8635Y23025D01*
X8634D01*
X8628Y23029D01*
X8622Y23033D01*
X8617Y23037D01*
X8613Y23040D01*
X8609Y23043D01*
X8607Y23045D01*
X8605Y23047D01*
X8605Y23047D01*
Y22850D01*
X8574D01*
Y23103D01*
X8594D01*
X8597Y23097D01*
D02*
G37*
G36*
X8875Y22850D02*
X8717D01*
Y22880D01*
X8841D01*
Y23102D01*
X8875D01*
Y22850D01*
D02*
G37*
G36*
X16431Y23299D02*
X16444Y23298D01*
X16455Y23296D01*
X16460Y23295D01*
X16465Y23293D01*
X16470Y23292D01*
X16474Y23291D01*
X16477Y23290D01*
X16480Y23289D01*
X16482Y23288D01*
X16484Y23288D01*
X16485Y23287D01*
X16486D01*
X16496Y23281D01*
X16506Y23275D01*
X16515Y23269D01*
X16518Y23265D01*
X16521Y23263D01*
X16524Y23260D01*
X16527Y23257D01*
X16529Y23254D01*
X16530Y23252D01*
X16532Y23251D01*
X16533Y23249D01*
X16533Y23248D01*
X16534Y23248D01*
X16537Y23243D01*
X16539Y23238D01*
X16543Y23227D01*
X16546Y23216D01*
X16548Y23205D01*
X16549Y23200D01*
X16549Y23196D01*
X16550Y23192D01*
Y23189D01*
X16550Y23186D01*
Y23182D01*
X16550Y23174D01*
X16549Y23168D01*
X16548Y23161D01*
X16547Y23155D01*
X16545Y23149D01*
X16543Y23143D01*
X16541Y23138D01*
X16539Y23134D01*
X16537Y23130D01*
X16535Y23126D01*
X16534Y23123D01*
X16532Y23120D01*
X16530Y23118D01*
X16530Y23116D01*
X16529Y23115D01*
X16529Y23115D01*
X16524Y23110D01*
X16520Y23106D01*
X16515Y23102D01*
X16510Y23098D01*
X16499Y23091D01*
X16489Y23086D01*
X16484Y23084D01*
X16480Y23082D01*
X16476Y23081D01*
X16473Y23079D01*
X16470Y23078D01*
X16468Y23078D01*
X16466Y23077D01*
X16466D01*
X16458Y23111D01*
X16463Y23112D01*
X16469Y23114D01*
X16474Y23116D01*
X16479Y23118D01*
X16483Y23120D01*
X16487Y23122D01*
X16490Y23125D01*
X16494Y23127D01*
X16496Y23129D01*
X16499Y23131D01*
X16501Y23133D01*
X16503Y23134D01*
X16504Y23135D01*
X16505Y23137D01*
X16505Y23137D01*
X16506Y23137D01*
X16509Y23141D01*
X16511Y23145D01*
X16515Y23153D01*
X16518Y23161D01*
X16519Y23168D01*
X16521Y23175D01*
X16521Y23177D01*
Y23180D01*
X16522Y23182D01*
Y23185D01*
X16521Y23193D01*
X16520Y23201D01*
X16518Y23208D01*
X16516Y23215D01*
X16514Y23220D01*
X16513Y23222D01*
X16512Y23224D01*
X16511Y23225D01*
X16510Y23226D01*
X16510Y23227D01*
Y23228D01*
X16505Y23234D01*
X16499Y23240D01*
X16493Y23245D01*
X16487Y23249D01*
X16482Y23253D01*
X16478Y23255D01*
X16476Y23256D01*
X16475Y23256D01*
X16474Y23257D01*
X16474D01*
X16464Y23260D01*
X16455Y23262D01*
X16446Y23264D01*
X16437Y23265D01*
X16433Y23265D01*
X16429Y23265D01*
X16426D01*
X16423Y23266D01*
X16421D01*
X16419D01*
X16418D01*
X16418D01*
X16408Y23265D01*
X16400Y23265D01*
X16392Y23263D01*
X16384Y23262D01*
X16378Y23261D01*
X16376Y23260D01*
X16373Y23259D01*
X16372Y23259D01*
X16371Y23259D01*
X16370Y23258D01*
X16369D01*
X16361Y23254D01*
X16353Y23251D01*
X16347Y23246D01*
X16342Y23241D01*
X16337Y23237D01*
X16335Y23234D01*
X16333Y23232D01*
X16332Y23231D01*
Y23231D01*
X16327Y23223D01*
X16324Y23215D01*
X16321Y23207D01*
X16320Y23199D01*
X16319Y23192D01*
X16318Y23189D01*
Y23187D01*
X16318Y23185D01*
Y23182D01*
X16318Y23173D01*
X16320Y23165D01*
X16322Y23158D01*
X16324Y23151D01*
X16327Y23147D01*
X16328Y23143D01*
X16330Y23141D01*
X16331Y23140D01*
X16336Y23134D01*
X16342Y23129D01*
X16349Y23125D01*
X16355Y23121D01*
X16361Y23118D01*
X16364Y23117D01*
X16366Y23116D01*
X16368Y23115D01*
X16369Y23115D01*
X16370Y23114D01*
X16371D01*
X16363Y23082D01*
X16356Y23084D01*
X16351Y23086D01*
X16345Y23089D01*
X16340Y23091D01*
X16335Y23094D01*
X16331Y23098D01*
X16326Y23101D01*
X16322Y23103D01*
X16320Y23106D01*
X16317Y23109D01*
X16314Y23111D01*
X16312Y23113D01*
X16310Y23115D01*
X16309Y23117D01*
X16309Y23117D01*
X16309Y23118D01*
X16305Y23123D01*
X16302Y23128D01*
X16300Y23133D01*
X16297Y23138D01*
X16294Y23149D01*
X16292Y23159D01*
X16291Y23164D01*
X16290Y23168D01*
X16290Y23172D01*
X16290Y23175D01*
X16289Y23178D01*
Y23181D01*
X16290Y23193D01*
X16292Y23205D01*
X16294Y23215D01*
X16296Y23220D01*
X16297Y23224D01*
X16298Y23228D01*
X16300Y23232D01*
X16301Y23235D01*
X16302Y23238D01*
X16303Y23240D01*
X16304Y23241D01*
X16304Y23242D01*
X16305Y23242D01*
X16311Y23252D01*
X16318Y23261D01*
X16325Y23268D01*
X16333Y23274D01*
X16339Y23279D01*
X16342Y23281D01*
X16345Y23282D01*
X16347Y23284D01*
X16348Y23284D01*
X16349Y23285D01*
X16349Y23285D01*
X16361Y23290D01*
X16372Y23294D01*
X16384Y23296D01*
X16395Y23298D01*
X16399Y23299D01*
X16404Y23299D01*
X16408Y23300D01*
X16411D01*
X16414Y23300D01*
X16416D01*
X16418D01*
X16418D01*
X16431Y23299D01*
D02*
G37*
G36*
X16485Y23048D02*
X16490Y23047D01*
X16501Y23043D01*
X16509Y23039D01*
X16513Y23037D01*
X16517Y23035D01*
X16520Y23033D01*
X16522Y23031D01*
X16525Y23029D01*
X16527Y23027D01*
X16528Y23026D01*
X16529Y23025D01*
X16530Y23024D01*
X16530Y23024D01*
X16534Y23019D01*
X16537Y23015D01*
X16539Y23011D01*
X16542Y23006D01*
X16545Y22997D01*
X16547Y22988D01*
X16548Y22984D01*
X16549Y22980D01*
X16549Y22977D01*
X16550Y22974D01*
X16550Y22972D01*
Y22969D01*
X16550Y22962D01*
X16549Y22956D01*
X16548Y22949D01*
X16546Y22944D01*
X16545Y22938D01*
X16543Y22933D01*
X16541Y22929D01*
X16538Y22925D01*
X16537Y22921D01*
X16534Y22917D01*
X16533Y22915D01*
X16531Y22912D01*
X16529Y22911D01*
X16528Y22909D01*
X16527Y22908D01*
X16527Y22908D01*
X16523Y22904D01*
X16518Y22900D01*
X16513Y22897D01*
X16509Y22894D01*
X16504Y22892D01*
X16499Y22889D01*
X16491Y22887D01*
X16487Y22886D01*
X16483Y22885D01*
X16480Y22884D01*
X16477Y22884D01*
X16475Y22884D01*
X16473D01*
X16472D01*
X16471D01*
X16463Y22884D01*
X16455Y22885D01*
X16448Y22888D01*
X16442Y22890D01*
X16437Y22892D01*
X16434Y22894D01*
X16431Y22896D01*
X16431Y22896D01*
X16425Y22901D01*
X16420Y22907D01*
X16417Y22912D01*
X16414Y22918D01*
X16412Y22923D01*
X16410Y22927D01*
X16410Y22929D01*
X16409Y22930D01*
X16409Y22931D01*
Y22931D01*
X16406Y22925D01*
X16403Y22920D01*
X16399Y22915D01*
X16396Y22912D01*
X16393Y22909D01*
X16390Y22907D01*
X16389Y22905D01*
X16388Y22905D01*
X16383Y22902D01*
X16378Y22900D01*
X16373Y22898D01*
X16368Y22897D01*
X16364Y22896D01*
X16361Y22896D01*
X16359D01*
X16358D01*
X16352Y22896D01*
X16346Y22897D01*
X16340Y22899D01*
X16336Y22901D01*
X16332Y22903D01*
X16328Y22904D01*
X16327Y22905D01*
X16326Y22905D01*
X16320Y22909D01*
X16316Y22913D01*
X16312Y22918D01*
X16308Y22922D01*
X16305Y22926D01*
X16303Y22929D01*
X16302Y22931D01*
X16302Y22932D01*
Y22932D01*
X16299Y22939D01*
X16297Y22945D01*
X16295Y22952D01*
X16294Y22957D01*
X16293Y22962D01*
X16293Y22966D01*
Y22975D01*
X16293Y22980D01*
X16295Y22990D01*
X16298Y22999D01*
X16301Y23006D01*
X16303Y23009D01*
X16304Y23012D01*
X16306Y23014D01*
X16307Y23016D01*
X16308Y23018D01*
X16309Y23019D01*
X16309Y23019D01*
X16310Y23020D01*
X16317Y23027D01*
X16324Y23032D01*
X16332Y23036D01*
X16340Y23040D01*
X16347Y23042D01*
X16350Y23043D01*
X16353Y23044D01*
X16355Y23044D01*
X16356Y23045D01*
X16357Y23045D01*
X16358D01*
X16363Y23014D01*
X16355Y23013D01*
X16348Y23011D01*
X16343Y23008D01*
X16338Y23006D01*
X16334Y23003D01*
X16332Y23001D01*
X16330Y22999D01*
X16329Y22999D01*
X16326Y22994D01*
X16323Y22989D01*
X16321Y22984D01*
X16320Y22980D01*
X16319Y22975D01*
X16318Y22972D01*
Y22969D01*
X16319Y22963D01*
X16320Y22957D01*
X16322Y22952D01*
X16324Y22947D01*
X16326Y22944D01*
X16328Y22941D01*
X16329Y22940D01*
X16329Y22939D01*
X16334Y22935D01*
X16339Y22932D01*
X16343Y22931D01*
X16348Y22929D01*
X16352Y22928D01*
X16355Y22928D01*
X16357D01*
X16357D01*
X16357D01*
X16361D01*
X16365Y22928D01*
X16371Y22930D01*
X16377Y22933D01*
X16381Y22936D01*
X16385Y22939D01*
X16387Y22941D01*
X16389Y22943D01*
X16389Y22943D01*
Y22944D01*
X16392Y22950D01*
X16395Y22956D01*
X16397Y22962D01*
X16398Y22967D01*
X16399Y22972D01*
X16399Y22976D01*
Y22981D01*
X16399Y22982D01*
Y22984D01*
X16426Y22988D01*
X16425Y22983D01*
X16424Y22979D01*
X16424Y22975D01*
X16423Y22972D01*
X16423Y22969D01*
Y22966D01*
X16424Y22958D01*
X16425Y22951D01*
X16427Y22945D01*
X16430Y22940D01*
X16432Y22936D01*
X16435Y22933D01*
X16436Y22931D01*
X16437Y22931D01*
X16442Y22926D01*
X16448Y22922D01*
X16454Y22920D01*
X16460Y22918D01*
X16464Y22917D01*
X16468Y22917D01*
X16470Y22916D01*
X16471D01*
X16472D01*
X16472D01*
X16480Y22917D01*
X16487Y22919D01*
X16494Y22921D01*
X16499Y22924D01*
X16503Y22927D01*
X16507Y22929D01*
X16509Y22931D01*
X16510Y22932D01*
X16515Y22937D01*
X16518Y22944D01*
X16521Y22950D01*
X16523Y22956D01*
X16524Y22961D01*
X16524Y22965D01*
X16525Y22966D01*
Y22968D01*
X16524Y22975D01*
X16523Y22981D01*
X16521Y22987D01*
X16519Y22991D01*
X16517Y22995D01*
X16515Y22998D01*
X16514Y22999D01*
X16513Y23000D01*
X16508Y23004D01*
X16502Y23008D01*
X16496Y23011D01*
X16490Y23014D01*
X16484Y23015D01*
X16482Y23016D01*
X16479Y23016D01*
X16478Y23017D01*
X16476Y23017D01*
X16475Y23018D01*
X16475D01*
X16479Y23048D01*
X16485Y23048D01*
D02*
G37*
G36*
X16384Y22824D02*
X16381Y22818D01*
X16379Y22813D01*
X16376Y22808D01*
X16374Y22804D01*
X16372Y22800D01*
X16371Y22798D01*
X16370Y22797D01*
Y22797D01*
X16366Y22790D01*
X16362Y22785D01*
X16359Y22779D01*
X16355Y22775D01*
X16353Y22772D01*
X16351Y22770D01*
X16349Y22768D01*
X16349Y22767D01*
X16546D01*
Y22737D01*
X16293D01*
Y22757D01*
X16299Y22760D01*
X16305Y22764D01*
X16310Y22769D01*
X16316Y22773D01*
X16320Y22778D01*
X16324Y22781D01*
X16325Y22782D01*
X16326Y22783D01*
X16326Y22784D01*
X16327Y22784D01*
X16333Y22792D01*
X16339Y22799D01*
X16344Y22807D01*
X16348Y22814D01*
X16351Y22820D01*
X16353Y22823D01*
X16354Y22825D01*
X16355Y22827D01*
X16355Y22828D01*
X16356Y22829D01*
Y22829D01*
X16386D01*
X16384Y22824D01*
D02*
G37*
D12*
X29250Y2000D02*
G03*
X29250Y2000I-500J0D01*
G01*
Y27500D02*
G03*
X29250Y27500I-500J0D01*
G01*
X1750Y2000D02*
G03*
X1750Y2000I-500J0D01*
G01*
Y27500D02*
G03*
X1750Y27500I-500J0D01*
G01*
X2250Y1550D02*
X10250D01*
Y2550D01*
X2250D02*
X10250D01*
X2250Y1550D02*
Y2550D01*
X10250Y12550D02*
Y14550D01*
X3250D02*
X10250D01*
X2250Y13550D02*
Y14550D01*
X3250D01*
X2250Y29050D02*
X3250D01*
X2250Y28050D02*
Y29050D01*
X3250D02*
X10250D01*
Y27050D02*
Y29050D01*
X2250Y16050D02*
Y17050D01*
X10250D01*
Y16050D02*
Y17050D01*
X2250Y16050D02*
X10250D01*
X11400Y1550D02*
X19400D01*
Y2550D01*
X11400D02*
X19400D01*
X11400Y1550D02*
Y2550D01*
X19400Y12550D02*
Y14550D01*
X12400D02*
X19400D01*
X11400Y13550D02*
Y14550D01*
X12400D01*
X11350Y16050D02*
X19350D01*
Y17050D01*
X11350D02*
X19350D01*
X11350Y16050D02*
Y17050D01*
X19350Y27050D02*
Y29050D01*
X12350D02*
X19350D01*
X11350Y28050D02*
Y29050D01*
X12350D01*
X0Y34850D02*
X600Y35050D01*
X0Y34850D02*
X600Y34650D01*
X29400D02*
X30000Y34850D01*
X29400Y35050D02*
X30000Y34850D01*
X0D02*
X12731D01*
X16949D02*
X30000D01*
X0Y33900D02*
Y34950D01*
X30000Y33800D02*
Y34950D01*
X36400Y600D02*
X36600Y0D01*
X36800Y600D01*
X36600Y31500D02*
X36800Y30900D01*
X36400D02*
X36600Y31500D01*
Y0D02*
Y13531D01*
Y17649D02*
Y31500D01*
X33200Y0D02*
X36700D01*
X34300Y31500D02*
X36700D01*
D13*
X4445Y9410D02*
X7004D01*
X4445Y6890D02*
Y9410D01*
Y6890D02*
X7004D01*
Y9410D01*
X13704Y7950D02*
Y9450D01*
Y7950D02*
X14496D01*
Y9450D01*
X13704D02*
X14496D01*
X7595Y24110D02*
X10154D01*
X7595Y21590D02*
Y24110D01*
Y21590D02*
X10154D01*
Y24110D01*
X16154Y22550D02*
Y24050D01*
Y22550D02*
X16946D01*
Y24050D01*
X16154D02*
X16946D01*
D14*
X30000Y1500D02*
Y30000D01*
X1500Y31500D02*
X28500D01*
X30000Y30000D01*
X-0D02*
X0Y1500D01*
Y30000D02*
X1500Y31500D01*
X28500Y0D02*
X30000Y1500D01*
X0D02*
X1500Y0D01*
X28500D01*
D15*
X12891Y34990D02*
X12991Y35090D01*
X13191D01*
X13290Y34990D01*
Y34890D01*
X13191Y34790D01*
X13091D01*
X13191D01*
X13290Y34690D01*
Y34590D01*
X13191Y34490D01*
X12991D01*
X12891Y34590D01*
X13490Y34990D02*
X13590Y35090D01*
X13790D01*
X13890Y34990D01*
Y34590D01*
X13790Y34490D01*
X13590D01*
X13490Y34590D01*
Y34990D01*
X14090D02*
X14190Y35090D01*
X14390D01*
X14490Y34990D01*
Y34590D01*
X14390Y34490D01*
X14190D01*
X14090Y34590D01*
Y34990D01*
X14690D02*
X14790Y35090D01*
X14990D01*
X15090Y34990D01*
Y34590D01*
X14990Y34490D01*
X14790D01*
X14690Y34590D01*
Y34990D01*
X15290Y34490D02*
Y34590D01*
X15390D01*
Y34490D01*
X15290D01*
X15790Y34990D02*
X15890Y35090D01*
X16090D01*
X16190Y34990D01*
Y34590D01*
X16090Y34490D01*
X15890D01*
X15790Y34590D01*
Y34990D01*
X16389D02*
X16489Y35090D01*
X16689D01*
X16789Y34990D01*
Y34590D01*
X16689Y34490D01*
X16489D01*
X16389Y34590D01*
Y34990D01*
X36460Y13691D02*
X36360Y13791D01*
Y13991D01*
X36460Y14090D01*
X36560D01*
X36660Y13991D01*
Y13891D01*
Y13991D01*
X36760Y14090D01*
X36860D01*
X36960Y13991D01*
Y13791D01*
X36860Y13691D01*
X36960Y14290D02*
Y14490D01*
Y14390D01*
X36360D01*
X36460Y14290D01*
X36360Y15190D02*
Y14790D01*
X36660D01*
X36560Y14990D01*
Y15090D01*
X36660Y15190D01*
X36860D01*
X36960Y15090D01*
Y14890D01*
X36860Y14790D01*
X36460Y15390D02*
X36360Y15490D01*
Y15690D01*
X36460Y15790D01*
X36860D01*
X36960Y15690D01*
Y15490D01*
X36860Y15390D01*
X36460D01*
X36960Y15990D02*
X36860D01*
Y16090D01*
X36960D01*
Y15990D01*
X36460Y16490D02*
X36360Y16590D01*
Y16790D01*
X36460Y16890D01*
X36860D01*
X36960Y16790D01*
Y16590D01*
X36860Y16490D01*
X36460D01*
Y17090D02*
X36360Y17189D01*
Y17389D01*
X36460Y17489D01*
X36860D01*
X36960Y17389D01*
Y17189D01*
X36860Y17090D01*
X36460D01*
M02*
