G04*
G04 #@! TF.GenerationSoftware,Altium Limited,Altium Designer,22.9.1 (49)*
G04*
G04 Layer_Color=128*
%FSLAX24Y24*%
%MOIN*%
G70*
G04*
G04 #@! TF.SameCoordinates,10C0EDED-7795-41B1-8CC0-87200EC90710*
G04*
G04*
G04 #@! TF.FilePolarity,Positive*
G04*
G01*
G75*
%ADD12C,0.0100*%
%ADD14C,0.0300*%
%ADD15C,0.0060*%
%ADD51C,0.0020*%
D12*
X29250Y2000D02*
G03*
X29250Y2000I-500J0D01*
G01*
Y27500D02*
G03*
X29250Y27500I-500J0D01*
G01*
X1750Y2000D02*
G03*
X1750Y2000I-500J0D01*
G01*
Y27500D02*
G03*
X1750Y27500I-500J0D01*
G01*
X2250Y1550D02*
X10250D01*
Y2550D01*
X2250D02*
X10250D01*
X2250Y1550D02*
Y2550D01*
X10250Y12550D02*
Y14550D01*
X3250D02*
X10250D01*
X2250Y13550D02*
Y14550D01*
X3250D01*
X2250Y29050D02*
X3250D01*
X2250Y28050D02*
Y29050D01*
X3250D02*
X10250D01*
Y27050D02*
Y29050D01*
X2250Y16050D02*
Y17050D01*
X10250D01*
Y16050D02*
Y17050D01*
X2250Y16050D02*
X10250D01*
X11400Y1550D02*
X19400D01*
Y2550D01*
X11400D02*
X19400D01*
X11400Y1550D02*
Y2550D01*
X19400Y12550D02*
Y14550D01*
X12400D02*
X19400D01*
X11400Y13550D02*
Y14550D01*
X12400D01*
X11350Y16050D02*
X19350D01*
Y17050D01*
X11350D02*
X19350D01*
X11350Y16050D02*
Y17050D01*
X19350Y27050D02*
Y29050D01*
X12350D02*
X19350D01*
X11350Y28050D02*
Y29050D01*
X12350D01*
X0Y34850D02*
X600Y35050D01*
X0Y34850D02*
X600Y34650D01*
X29400D02*
X30000Y34850D01*
X29400Y35050D02*
X30000Y34850D01*
X0D02*
X12731D01*
X16949D02*
X30000D01*
X0Y33900D02*
Y34950D01*
X30000Y33800D02*
Y34950D01*
X36400Y600D02*
X36600Y0D01*
X36800Y600D01*
X36600Y31500D02*
X36800Y30900D01*
X36400D02*
X36600Y31500D01*
Y0D02*
Y13531D01*
Y17649D02*
Y31500D01*
X33200Y0D02*
X36700D01*
X34300Y31500D02*
X36700D01*
D14*
X30000Y1500D02*
Y30000D01*
X1500Y31500D02*
X28500D01*
X30000Y30000D01*
X-0D02*
X0Y1500D01*
Y30000D02*
X1500Y31500D01*
X28500Y0D02*
X30000Y1500D01*
X0D02*
X1500Y0D01*
X28500D01*
D15*
X12891Y34990D02*
X12991Y35090D01*
X13191D01*
X13290Y34990D01*
Y34890D01*
X13191Y34790D01*
X13091D01*
X13191D01*
X13290Y34690D01*
Y34590D01*
X13191Y34490D01*
X12991D01*
X12891Y34590D01*
X13490Y34990D02*
X13590Y35090D01*
X13790D01*
X13890Y34990D01*
Y34590D01*
X13790Y34490D01*
X13590D01*
X13490Y34590D01*
Y34990D01*
X14090D02*
X14190Y35090D01*
X14390D01*
X14490Y34990D01*
Y34590D01*
X14390Y34490D01*
X14190D01*
X14090Y34590D01*
Y34990D01*
X14690D02*
X14790Y35090D01*
X14990D01*
X15090Y34990D01*
Y34590D01*
X14990Y34490D01*
X14790D01*
X14690Y34590D01*
Y34990D01*
X15290Y34490D02*
Y34590D01*
X15390D01*
Y34490D01*
X15290D01*
X15790Y34990D02*
X15890Y35090D01*
X16090D01*
X16190Y34990D01*
Y34590D01*
X16090Y34490D01*
X15890D01*
X15790Y34590D01*
Y34990D01*
X16389D02*
X16489Y35090D01*
X16689D01*
X16789Y34990D01*
Y34590D01*
X16689Y34490D01*
X16489D01*
X16389Y34590D01*
Y34990D01*
X36460Y13691D02*
X36360Y13791D01*
Y13991D01*
X36460Y14090D01*
X36560D01*
X36660Y13991D01*
Y13891D01*
Y13991D01*
X36760Y14090D01*
X36860D01*
X36960Y13991D01*
Y13791D01*
X36860Y13691D01*
X36960Y14290D02*
Y14490D01*
Y14390D01*
X36360D01*
X36460Y14290D01*
X36360Y15190D02*
Y14790D01*
X36660D01*
X36560Y14990D01*
Y15090D01*
X36660Y15190D01*
X36860D01*
X36960Y15090D01*
Y14890D01*
X36860Y14790D01*
X36460Y15390D02*
X36360Y15490D01*
Y15690D01*
X36460Y15790D01*
X36860D01*
X36960Y15690D01*
Y15490D01*
X36860Y15390D01*
X36460D01*
X36960Y15990D02*
X36860D01*
Y16090D01*
X36960D01*
Y15990D01*
X36460Y16490D02*
X36360Y16590D01*
Y16790D01*
X36460Y16890D01*
X36860D01*
X36960Y16790D01*
Y16590D01*
X36860Y16490D01*
X36460D01*
Y17090D02*
X36360Y17189D01*
Y17389D01*
X36460Y17489D01*
X36860D01*
X36960Y17389D01*
Y17189D01*
X36860Y17090D01*
X36460D01*
D51*
X3533Y2050D02*
X3967D01*
X3750Y1833D02*
Y2267D01*
X9533Y13050D02*
X9967D01*
X9750Y12833D02*
Y13267D01*
X8533Y13050D02*
X8967D01*
X8750Y12833D02*
Y13267D01*
X7533Y13050D02*
X7967D01*
X7750Y12833D02*
Y13267D01*
X6533Y13050D02*
X6967D01*
X6750Y12833D02*
Y13267D01*
X5533Y13050D02*
X5967D01*
X5750Y12833D02*
Y13267D01*
X4533Y13050D02*
X4967D01*
X4750Y12833D02*
Y13267D01*
X3533Y13050D02*
X3967D01*
X3750Y12833D02*
Y13267D01*
X2533Y13050D02*
X2967D01*
X2750Y12833D02*
Y13267D01*
X2533Y2050D02*
X2967D01*
X2750Y1833D02*
Y2267D01*
X9533Y2050D02*
X9967D01*
X9750Y1833D02*
Y2267D01*
X8533Y2050D02*
X8967D01*
X8750Y1833D02*
Y2267D01*
X7533Y2050D02*
X7967D01*
X7750Y1833D02*
Y2267D01*
X6533Y2050D02*
X6967D01*
X6750Y1833D02*
Y2267D01*
X5533Y2050D02*
X5967D01*
X5750Y1833D02*
Y2267D01*
X4533Y2050D02*
X4967D01*
X4750Y1833D02*
Y2267D01*
X4533Y16550D02*
X4967D01*
X4750Y16333D02*
Y16767D01*
X5533Y16550D02*
X5967D01*
X5750Y16333D02*
Y16767D01*
X6533Y16550D02*
X6967D01*
X6750Y16333D02*
Y16767D01*
X7533Y16550D02*
X7967D01*
X7750Y16333D02*
Y16767D01*
X8533Y16550D02*
X8967D01*
X8750Y16333D02*
Y16767D01*
X9533Y16550D02*
X9967D01*
X9750Y16333D02*
Y16767D01*
X2533Y16550D02*
X2967D01*
X2750Y16333D02*
Y16767D01*
X2533Y27550D02*
X2967D01*
X2750Y27333D02*
Y27767D01*
X3533Y27550D02*
X3967D01*
X3750Y27333D02*
Y27767D01*
X4533Y27550D02*
X4967D01*
X4750Y27333D02*
Y27767D01*
X5533Y27550D02*
X5967D01*
X5750Y27333D02*
Y27767D01*
X6533Y27550D02*
X6967D01*
X6750Y27333D02*
Y27767D01*
X7533Y27550D02*
X7967D01*
X7750Y27333D02*
Y27767D01*
X8533Y27550D02*
X8967D01*
X8750Y27333D02*
Y27767D01*
X9533Y27550D02*
X9967D01*
X9750Y27333D02*
Y27767D01*
X3533Y16550D02*
X3967D01*
X3750Y16333D02*
Y16767D01*
X12683Y2050D02*
X13117D01*
X12900Y1833D02*
Y2267D01*
X18683Y13050D02*
X19117D01*
X18900Y12833D02*
Y13267D01*
X17683Y13050D02*
X18117D01*
X17900Y12833D02*
Y13267D01*
X16683Y13050D02*
X17117D01*
X16900Y12833D02*
Y13267D01*
X15683Y13050D02*
X16117D01*
X15900Y12833D02*
Y13267D01*
X14683Y13050D02*
X15117D01*
X14900Y12833D02*
Y13267D01*
X13683Y13050D02*
X14117D01*
X13900Y12833D02*
Y13267D01*
X12683Y13050D02*
X13117D01*
X12900Y12833D02*
Y13267D01*
X11683Y13050D02*
X12117D01*
X11900Y12833D02*
Y13267D01*
X11683Y2050D02*
X12117D01*
X11900Y1833D02*
Y2267D01*
X18683Y2050D02*
X19117D01*
X18900Y1833D02*
Y2267D01*
X17683Y2050D02*
X18117D01*
X17900Y1833D02*
Y2267D01*
X16683Y2050D02*
X17117D01*
X16900Y1833D02*
Y2267D01*
X15683Y2050D02*
X16117D01*
X15900Y1833D02*
Y2267D01*
X14683Y2050D02*
X15117D01*
X14900Y1833D02*
Y2267D01*
X13683Y2050D02*
X14117D01*
X13900Y1833D02*
Y2267D01*
X20765Y6850D02*
X21435D01*
X21100Y6515D02*
Y7185D01*
X22324Y6850D02*
X22994D01*
X22659Y6515D02*
Y7185D01*
X24665Y6850D02*
X25335D01*
X25000Y6515D02*
Y7185D01*
X26224Y6850D02*
X26894D01*
X26559Y6515D02*
Y7185D01*
X21915Y8941D02*
X22585D01*
X22250Y8606D02*
Y9276D01*
X21915Y10500D02*
X22585D01*
X22250Y10165D02*
Y10835D01*
X21915Y12841D02*
X22585D01*
X22250Y12506D02*
Y13176D01*
X21915Y14400D02*
X22585D01*
X22250Y14065D02*
Y14735D01*
X12633Y16550D02*
X13067D01*
X12850Y16333D02*
Y16767D01*
X18633Y27550D02*
X19067D01*
X18850Y27333D02*
Y27767D01*
X17633Y27550D02*
X18067D01*
X17850Y27333D02*
Y27767D01*
X16633Y27550D02*
X17067D01*
X16850Y27333D02*
Y27767D01*
X15633Y27550D02*
X16067D01*
X15850Y27333D02*
Y27767D01*
X14633Y27550D02*
X15067D01*
X14850Y27333D02*
Y27767D01*
X13633Y27550D02*
X14067D01*
X13850Y27333D02*
Y27767D01*
X12633Y27550D02*
X13067D01*
X12850Y27333D02*
Y27767D01*
X11633Y27550D02*
X12067D01*
X11850Y27333D02*
Y27767D01*
X11633Y16550D02*
X12067D01*
X11850Y16333D02*
Y16767D01*
X18633Y16550D02*
X19067D01*
X18850Y16333D02*
Y16767D01*
X17633Y16550D02*
X18067D01*
X17850Y16333D02*
Y16767D01*
X16633Y16550D02*
X17067D01*
X16850Y16333D02*
Y16767D01*
X15633Y16550D02*
X16067D01*
X15850Y16333D02*
Y16767D01*
X14633Y16550D02*
X15067D01*
X14850Y16333D02*
Y16767D01*
X13633Y16550D02*
X14067D01*
X13850Y16333D02*
Y16767D01*
X21915Y16750D02*
X22585D01*
X22250Y16415D02*
Y17085D01*
X21915Y18309D02*
X22585D01*
X22250Y17974D02*
Y18644D01*
X21915Y22209D02*
X22585D01*
X22250Y21874D02*
Y22544D01*
X21915Y20650D02*
X22585D01*
X22250Y20315D02*
Y20985D01*
X26615Y24300D02*
X27285D01*
X26950Y23965D02*
Y24635D01*
X25056Y24300D02*
X25726D01*
X25391Y23965D02*
Y24635D01*
X22274Y24300D02*
X22944D01*
X22609Y23965D02*
Y24635D01*
X20715Y24300D02*
X21385D01*
X21050Y23965D02*
Y24635D01*
X17325Y23650D02*
X17475D01*
X17400Y23575D02*
Y23725D01*
X17325Y22500D02*
X17475D01*
X17400Y22425D02*
Y22575D01*
X15225Y7900D02*
X15375D01*
X15300Y7825D02*
Y7975D01*
X15625Y9100D02*
X15775D01*
X15700Y9025D02*
Y9175D01*
X10550Y5049D02*
X10700D01*
X10625Y4974D02*
Y5124D01*
X8325Y7750D02*
X8475D01*
X8400Y7675D02*
Y7825D01*
X11625Y11800D02*
X11775D01*
X11700Y11725D02*
Y11875D01*
X20475Y11550D02*
X20625D01*
X20550Y11475D02*
Y11625D01*
X15100Y18725D02*
X15250D01*
X15175Y18650D02*
Y18800D01*
X18375Y19115D02*
X18525D01*
X18450Y19040D02*
Y19190D01*
X17675Y20050D02*
X17825D01*
X17750Y19975D02*
Y20125D01*
X12605Y22650D02*
X12755D01*
X12680Y22575D02*
Y22725D01*
M02*
