G04*
G04 #@! TF.GenerationSoftware,Altium Limited,Altium Designer,22.9.1 (49)*
G04*
G04 Layer_Physical_Order=4*
G04 Layer_Color=16711680*
%FSLAX24Y24*%
%MOIN*%
G70*
G04*
G04 #@! TF.SameCoordinates,10C0EDED-7795-41B1-8CC0-87200EC90710*
G04*
G04*
G04 #@! TF.FilePolarity,Positive*
G04*
G01*
G75*
%ADD12C,0.0100*%
%ADD14C,0.0300*%
%ADD15C,0.0060*%
%ADD17R,0.0354X0.0374*%
%ADD24C,0.0750*%
%ADD25C,0.0200*%
%ADD26C,0.0150*%
%ADD27C,0.0650*%
%ADD28C,0.1004*%
%ADD29C,0.0250*%
%ADD37R,0.1417X0.1055*%
%ADD38R,0.0787X0.0240*%
%ADD39R,0.0276X0.0276*%
%ADD40R,0.0453X0.0236*%
%ADD41R,0.0630X0.2244*%
%ADD42R,0.0390X0.0307*%
%ADD43R,0.0398X0.0339*%
%ADD44C,0.1000*%
D12*
X1500Y4600D02*
Y21376D01*
X2788Y22664D01*
X4240D01*
X1300Y4517D02*
X2517Y3300D01*
X1500Y4600D02*
X2600Y3500D01*
X1700Y4683D02*
X2683Y3700D01*
X1900Y4766D02*
X2766Y3900D01*
X2517Y3300D02*
X3550D01*
X2600Y3500D02*
X4200D01*
X3550Y3300D02*
X3750Y3100D01*
Y2050D02*
Y3100D01*
X4200Y3500D02*
X4750Y2950D01*
Y2050D02*
Y2950D01*
X2683Y3700D02*
X12417D01*
X2766Y3900D02*
X12500D01*
X1300Y4517D02*
Y21459D01*
X1900Y4766D02*
Y21210D01*
X1700Y4683D02*
Y21293D01*
X3750Y16550D02*
Y18218D01*
X4066Y18534D01*
Y19734D01*
X3666Y20134D02*
X4066Y19734D01*
X3666Y20134D02*
Y20579D01*
X3783Y20696D01*
X4240D01*
X4260Y20716D01*
X1900Y21210D02*
X2587Y21897D01*
X1700Y21293D02*
X2678Y22270D01*
X2587Y21897D02*
X4260D01*
X1300Y21459D02*
X2899Y23058D01*
X2678Y22270D02*
X4240D01*
X4750Y16550D02*
Y19496D01*
X6593Y19600D02*
X10717D01*
X4260Y19986D02*
X4750Y19496D01*
X6676Y19800D02*
X10800D01*
X4260Y19986D02*
Y20322D01*
X5083Y21109D02*
X6593Y19600D01*
X4973Y21503D02*
X6676Y19800D01*
X4260Y21109D02*
X5083D01*
X4260Y21503D02*
X4973D01*
X12900Y2050D02*
Y3217D01*
X12417Y3700D02*
X12900Y3217D01*
X13850Y2100D02*
Y2550D01*
X12500Y3900D02*
X13850Y2550D01*
X14084Y9100D02*
X14100Y9084D01*
X10717Y19600D02*
X11100Y19217D01*
X10800Y19800D02*
X12850Y17750D01*
X11450Y15850D02*
X13150D01*
X11100Y16200D02*
X11450Y15850D01*
X13150D02*
X13850Y16550D01*
X12850D02*
Y17750D01*
X11100Y16200D02*
Y19217D01*
X9800Y22850D02*
Y23059D01*
X2899Y23058D02*
X4240D01*
X9800Y23059D02*
X10065Y23324D01*
X11500Y23876D02*
X11502Y23874D01*
X29250Y2000D02*
G03*
X29250Y2000I-500J0D01*
G01*
Y27500D02*
G03*
X29250Y27500I-500J0D01*
G01*
X1750Y2000D02*
G03*
X1750Y2000I-500J0D01*
G01*
Y27500D02*
G03*
X1750Y27500I-500J0D01*
G01*
X2250Y1550D02*
X10250D01*
Y2550D01*
X2250D02*
X10250D01*
X2250Y1550D02*
Y2550D01*
X10250Y12550D02*
Y14550D01*
X3250D02*
X10250D01*
X2250Y13550D02*
Y14550D01*
X3250D01*
X2250Y29050D02*
X3250D01*
X2250Y28050D02*
Y29050D01*
X3250D02*
X10250D01*
Y27050D02*
Y29050D01*
X2250Y16050D02*
Y17050D01*
X10250D01*
Y16050D02*
Y17050D01*
X2250Y16050D02*
X10250D01*
X11400Y1550D02*
X19400D01*
Y2550D01*
X11400D02*
X19400D01*
X11400Y1550D02*
Y2550D01*
X19400Y12550D02*
Y14550D01*
X12400D02*
X19400D01*
X11400Y13550D02*
Y14550D01*
X12400D01*
X11350Y16050D02*
X19350D01*
Y17050D01*
X11350D02*
X19350D01*
X11350Y16050D02*
Y17050D01*
X19350Y27050D02*
Y29050D01*
X12350D02*
X19350D01*
X11350Y28050D02*
Y29050D01*
X12350D01*
X0Y34850D02*
X600Y35050D01*
X0Y34850D02*
X600Y34650D01*
X29400D02*
X30000Y34850D01*
X29400Y35050D02*
X30000Y34850D01*
X0D02*
X12731D01*
X16949D02*
X30000D01*
X0Y33900D02*
Y34950D01*
X30000Y33800D02*
Y34950D01*
X36400Y600D02*
X36600Y0D01*
X36800Y600D01*
X36600Y31500D02*
X36800Y30900D01*
X36400D02*
X36600Y31500D01*
Y0D02*
Y13531D01*
Y17649D02*
Y31500D01*
X33200Y0D02*
X36700D01*
X34300Y31500D02*
X36700D01*
D14*
X30000Y1500D02*
Y30000D01*
X1500Y31500D02*
X28500D01*
X30000Y30000D01*
X-0D02*
X0Y1500D01*
Y30000D02*
X1500Y31500D01*
X28500Y0D02*
X30000Y1500D01*
X0D02*
X1500Y0D01*
X28500D01*
D15*
X12891Y34990D02*
X12991Y35090D01*
X13191D01*
X13290Y34990D01*
Y34890D01*
X13191Y34790D01*
X13091D01*
X13191D01*
X13290Y34690D01*
Y34590D01*
X13191Y34490D01*
X12991D01*
X12891Y34590D01*
X13490Y34990D02*
X13590Y35090D01*
X13790D01*
X13890Y34990D01*
Y34590D01*
X13790Y34490D01*
X13590D01*
X13490Y34590D01*
Y34990D01*
X14090D02*
X14190Y35090D01*
X14390D01*
X14490Y34990D01*
Y34590D01*
X14390Y34490D01*
X14190D01*
X14090Y34590D01*
Y34990D01*
X14690D02*
X14790Y35090D01*
X14990D01*
X15090Y34990D01*
Y34590D01*
X14990Y34490D01*
X14790D01*
X14690Y34590D01*
Y34990D01*
X15290Y34490D02*
Y34590D01*
X15390D01*
Y34490D01*
X15290D01*
X15790Y34990D02*
X15890Y35090D01*
X16090D01*
X16190Y34990D01*
Y34590D01*
X16090Y34490D01*
X15890D01*
X15790Y34590D01*
Y34990D01*
X16389D02*
X16489Y35090D01*
X16689D01*
X16789Y34990D01*
Y34590D01*
X16689Y34490D01*
X16489D01*
X16389Y34590D01*
Y34990D01*
X36460Y13691D02*
X36360Y13791D01*
Y13991D01*
X36460Y14090D01*
X36560D01*
X36660Y13991D01*
Y13891D01*
Y13991D01*
X36760Y14090D01*
X36860D01*
X36960Y13991D01*
Y13791D01*
X36860Y13691D01*
X36960Y14290D02*
Y14490D01*
Y14390D01*
X36360D01*
X36460Y14290D01*
X36360Y15190D02*
Y14790D01*
X36660D01*
X36560Y14990D01*
Y15090D01*
X36660Y15190D01*
X36860D01*
X36960Y15090D01*
Y14890D01*
X36860Y14790D01*
X36460Y15390D02*
X36360Y15490D01*
Y15690D01*
X36460Y15790D01*
X36860D01*
X36960Y15690D01*
Y15490D01*
X36860Y15390D01*
X36460D01*
X36960Y15990D02*
X36860D01*
Y16090D01*
X36960D01*
Y15990D01*
X36460Y16490D02*
X36360Y16590D01*
Y16790D01*
X36460Y16890D01*
X36860D01*
X36960Y16790D01*
Y16590D01*
X36860Y16490D01*
X36460D01*
Y17090D02*
X36360Y17189D01*
Y17389D01*
X36460Y17489D01*
X36860D01*
X36960Y17389D01*
Y17189D01*
X36860Y17090D01*
X36460D01*
D17*
X16235Y18500D02*
D03*
X16865D02*
D03*
D24*
X26490Y6850D02*
X26559D01*
X25342Y24251D02*
X25391Y24300D01*
D25*
X16550Y23684D02*
X16574Y23660D01*
X17390D01*
X17400Y23650D01*
X16558Y22908D02*
X16992D01*
X17400Y22500D01*
X16550Y22916D02*
X16558Y22908D01*
X10625Y5049D02*
X12150D01*
X14100Y8316D02*
X14884D01*
X14108Y9092D02*
X15692D01*
X9100Y5049D02*
X10625D01*
X15692Y9092D02*
X15700Y9100D01*
X14884Y8316D02*
X15300Y7900D01*
X4805Y8155D02*
Y9455D01*
X5350Y10000D01*
X4800Y8150D02*
X4805Y8155D01*
X5350Y10000D02*
X12150D01*
X12450Y9700D01*
Y9400D02*
Y9700D01*
Y11050D01*
X11700Y11800D02*
X12450Y11050D01*
X8400Y7750D02*
X9249D01*
X9925Y8426D01*
X6650Y8150D02*
X7650D01*
X8174Y8674D01*
X9925Y8426D02*
X10650D01*
X8174Y8674D02*
X8550D01*
X9674D01*
X9800Y8800D01*
X10650D01*
X8550Y9226D02*
X10490D01*
X4240Y22270D02*
X4260Y22291D01*
X4240Y22664D02*
X4260Y22684D01*
X6800Y20100D02*
X12700D01*
X6300Y20600D02*
X6800Y20100D01*
X6300Y20600D02*
Y22450D01*
X6800Y22950D01*
X11674Y8426D02*
X12476D01*
X12850Y8800D01*
X11674D02*
X12850D01*
X13150Y9100D01*
X11674Y9174D02*
X12224D01*
X12450Y9400D01*
X13850Y2100D02*
X13900Y2050D01*
X14100Y9084D02*
X14108Y9092D01*
X13150Y9100D02*
X14084D01*
X12712Y20088D02*
X14938D01*
X9800Y22850D02*
X10984D01*
X16865Y18500D02*
X17835D01*
X18450Y19115D01*
X14963Y20063D02*
X17737D01*
X6800Y22950D02*
X7850D01*
X4240Y23058D02*
X4260Y23078D01*
X10984Y22850D02*
X11459Y23324D01*
X11500D02*
X12550D01*
X6800Y22950D02*
Y23800D01*
X12550Y23324D02*
X12725Y23500D01*
X13738D01*
X11502Y23874D02*
X13738D01*
X6800Y23800D02*
X7250Y24250D01*
X14278D01*
X14762Y23126D02*
X15176D01*
X15550Y23500D01*
X14762D02*
X15550D01*
X15734Y23684D01*
X16550D01*
X14278Y24250D02*
X14654Y23874D01*
D26*
X5850Y5600D02*
X9100D01*
X4800Y6650D02*
Y8150D01*
Y6650D02*
X5850Y5600D01*
X9100D02*
X12150D01*
X7850Y22950D02*
X7950Y22850D01*
X10542Y9174D02*
X10650D01*
X10490Y9226D02*
X10542Y9174D01*
X14950Y18950D02*
Y19524D01*
X14938Y19537D02*
X14950Y19524D01*
X12712Y19537D02*
X14938D01*
X12700Y19549D02*
X12712Y19537D01*
X14950Y20076D02*
X14963Y20063D01*
X14938Y20088D02*
X14950Y20076D01*
X12700Y20100D02*
X12712Y20088D01*
X12680Y22650D02*
X13156Y23126D01*
X15400Y18500D02*
X16235D01*
X17737Y20063D02*
X17750Y20050D01*
X14950Y18950D02*
X15400Y18500D01*
X13156Y23126D02*
X13738D01*
X11459Y23324D02*
X11500D01*
X14654Y23874D02*
X14762D01*
X14876D01*
D27*
X3750Y2050D02*
D03*
X9750Y13050D02*
D03*
X8750D02*
D03*
X7750D02*
D03*
X6750D02*
D03*
X5750D02*
D03*
X4750D02*
D03*
X3750D02*
D03*
X2750D02*
D03*
Y2050D02*
D03*
X9750D02*
D03*
X8750D02*
D03*
X7750D02*
D03*
X6750D02*
D03*
X5750D02*
D03*
X4750D02*
D03*
Y16550D02*
D03*
X5750D02*
D03*
X6750D02*
D03*
X7750D02*
D03*
X8750D02*
D03*
X9750D02*
D03*
X2750D02*
D03*
Y27550D02*
D03*
X3750D02*
D03*
X4750D02*
D03*
X5750D02*
D03*
X6750D02*
D03*
X7750D02*
D03*
X8750D02*
D03*
X9750D02*
D03*
X3750Y16550D02*
D03*
X12900Y2050D02*
D03*
X18900Y13050D02*
D03*
X17900D02*
D03*
X16900D02*
D03*
X15900D02*
D03*
X14900D02*
D03*
X13900D02*
D03*
X12900D02*
D03*
X11900D02*
D03*
Y2050D02*
D03*
X18900D02*
D03*
X17900D02*
D03*
X16900D02*
D03*
X15900D02*
D03*
X14900D02*
D03*
X13900D02*
D03*
X12850Y16550D02*
D03*
X18850Y27550D02*
D03*
X17850D02*
D03*
X16850D02*
D03*
X15850D02*
D03*
X14850D02*
D03*
X13850D02*
D03*
X12850D02*
D03*
X11850D02*
D03*
Y16550D02*
D03*
X18850D02*
D03*
X17850D02*
D03*
X16850D02*
D03*
X15850D02*
D03*
X14850D02*
D03*
X13850D02*
D03*
D28*
X21100Y6850D02*
D03*
X22659D02*
D03*
X25000D02*
D03*
X26559D02*
D03*
X22250Y8941D02*
D03*
Y10500D02*
D03*
Y12841D02*
D03*
Y14400D02*
D03*
Y16750D02*
D03*
Y18309D02*
D03*
Y22209D02*
D03*
Y20650D02*
D03*
X26950Y24300D02*
D03*
X25391D02*
D03*
X22609D02*
D03*
X21050D02*
D03*
D29*
X17400Y23650D02*
D03*
Y22500D02*
D03*
X15300Y7900D02*
D03*
X15700Y9100D02*
D03*
X10625Y5049D02*
D03*
X8400Y7750D02*
D03*
X11700Y11800D02*
D03*
X20550Y11550D02*
D03*
X15175Y18725D02*
D03*
X18450Y19115D02*
D03*
X17750Y20050D02*
D03*
X12680Y22650D02*
D03*
D37*
X3157Y24255D02*
D03*
Y19145D02*
D03*
D38*
X4260Y23078D02*
D03*
Y22684D02*
D03*
Y22291D02*
D03*
Y21897D02*
D03*
Y21503D02*
D03*
Y21109D02*
D03*
Y20716D02*
D03*
Y20322D02*
D03*
D39*
X9100Y5049D02*
D03*
Y5600D02*
D03*
X12150Y5049D02*
D03*
Y5600D02*
D03*
X12700Y19549D02*
D03*
Y20100D02*
D03*
X14950Y19524D02*
D03*
Y20076D02*
D03*
D40*
X10650Y9174D02*
D03*
Y8800D02*
D03*
Y8426D02*
D03*
X11674D02*
D03*
Y8800D02*
D03*
Y9174D02*
D03*
X13738Y23874D02*
D03*
Y23500D02*
D03*
Y23126D02*
D03*
X14762D02*
D03*
Y23500D02*
D03*
Y23874D02*
D03*
D41*
X6650Y8150D02*
D03*
X4800D02*
D03*
X9800Y22850D02*
D03*
X7950D02*
D03*
D42*
X8550Y8674D02*
D03*
Y9226D02*
D03*
X11500Y23324D02*
D03*
Y23876D02*
D03*
D43*
X14100Y9084D02*
D03*
Y8316D02*
D03*
X16550Y23684D02*
D03*
Y22916D02*
D03*
D44*
X22249Y12841D02*
X22250D01*
M02*
