M48
;Layer_Color=9474304
;FILE_FORMAT=2:5
INCH,LZ
;TYPE=PLATED
T1F00S00C0.01500
T2F00S00C0.04331
T3F00S00C0.06693
%
T01
X010625Y0050488
X0084Y00775
X0153Y0079
X0117Y0118
X0157Y0091
X02055Y01155
X01845Y019115
X01775Y02005
X0174Y0225
Y02365
X0126804Y02265
X015175Y018725
T02
X00275Y00205
X00375
X00475
X00575
X00675
X00775
X00875
X00975
X0119
X0129
X0139
X0149
Y01305
X0139
X0129
X0119
X00975
X00875
X00775
X00675
X00575
X00475
X00375
X00275
X0159
X0169
X0179
X0189
Y00205
X0179
X0169
X0159
X01585Y01655
X01685
X01785
X01885
Y02755
X01785
X01685
X01585
X01485
X01385
X01285
X01185
X00975
X00875
X00775
X00675
X00575
X00475
X00375
X00275
Y01655
X00375
X00475
X00575
X00675
X00775
X00875
X00975
X01185
X01285
X01385
X01485
T03
X0211Y00685
X022659
X025
X0265591
X02225Y008941
Y0105
Y0128409
Y0144
Y01675
Y0183091
Y02065
Y0222091
X0226091Y0243
X02105
X0253909
X02695
M30
