G04*
G04 #@! TF.GenerationSoftware,Altium Limited,Altium Designer,22.9.1 (49)*
G04*
G04 Layer_Physical_Order=2*
G04 Layer_Color=32768*
%FSLAX24Y24*%
%MOIN*%
G70*
G04*
G04 #@! TF.SameCoordinates,10C0EDED-7795-41B1-8CC0-87200EC90710*
G04*
G04*
G04 #@! TF.FilePolarity,Negative*
G04*
G01*
G75*
%ADD12C,0.0100*%
%ADD14C,0.0300*%
%ADD15C,0.0060*%
%ADD30C,0.0400*%
%ADD31C,0.0833*%
G04:AMPARAMS|DCode=32|XSize=103.307mil|YSize=103.307mil|CornerRadius=0mil|HoleSize=0mil|Usage=FLASHONLY|Rotation=0.000|XOffset=0mil|YOffset=0mil|HoleType=Round|Shape=Relief|Width=10mil|Gap=10mil|Entries=4|*
%AMTHD32*
7,0,0,0.1033,0.0833,0.0100,45*
%
%ADD32THD32*%
%ADD33C,0.1069*%
G04:AMPARAMS|DCode=34|XSize=126.929mil|YSize=126.929mil|CornerRadius=0mil|HoleSize=0mil|Usage=FLASHONLY|Rotation=0.000|XOffset=0mil|YOffset=0mil|HoleType=Round|Shape=Relief|Width=10mil|Gap=10mil|Entries=4|*
%AMTHD34*
7,0,0,0.1269,0.1069,0.0100,45*
%
%ADD34THD34*%
G04:AMPARAMS|DCode=35|XSize=75mil|YSize=75mil|CornerRadius=0mil|HoleSize=0mil|Usage=FLASHONLY|Rotation=0.000|XOffset=0mil|YOffset=0mil|HoleType=Round|Shape=Relief|Width=10mil|Gap=10mil|Entries=4|*
%AMTHD35*
7,0,0,0.0750,0.0550,0.0100,45*
%
%ADD35THD35*%
%ADD36C,0.0550*%
G36*
X28896Y27981D02*
X28987Y27943D01*
X29069Y27888D01*
X29138Y27819D01*
X29193Y27737D01*
X29231Y27646D01*
X29250Y27549D01*
Y27500D01*
Y27451D01*
X29231Y27354D01*
X29193Y27263D01*
X29138Y27181D01*
X29069Y27112D01*
X28987Y27057D01*
X28896Y27019D01*
X28799Y27000D01*
X28701D01*
X28604Y27019D01*
X28513Y27057D01*
X28431Y27112D01*
X28362Y27181D01*
X28307Y27263D01*
X28269Y27354D01*
X28250Y27451D01*
Y27500D01*
Y27549D01*
X28269Y27646D01*
X28307Y27737D01*
X28362Y27819D01*
X28431Y27888D01*
X28513Y27943D01*
X28604Y27981D01*
X28701Y28000D01*
X28799D01*
X28896Y27981D01*
D02*
G37*
G36*
X1396D02*
X1487Y27943D01*
X1569Y27888D01*
X1638Y27819D01*
X1693Y27737D01*
X1731Y27646D01*
X1750Y27549D01*
Y27500D01*
Y27451D01*
X1731Y27354D01*
X1693Y27263D01*
X1638Y27181D01*
X1569Y27112D01*
X1487Y27057D01*
X1396Y27019D01*
X1299Y27000D01*
X1201D01*
X1104Y27019D01*
X1013Y27057D01*
X931Y27112D01*
X862Y27181D01*
X807Y27263D01*
X769Y27354D01*
X750Y27451D01*
Y27500D01*
Y27549D01*
X769Y27646D01*
X807Y27737D01*
X862Y27819D01*
X931Y27888D01*
X1013Y27943D01*
X1104Y27981D01*
X1201Y28000D01*
X1299D01*
X1396Y27981D01*
D02*
G37*
G36*
X28896Y2481D02*
X28987Y2443D01*
X29069Y2388D01*
X29138Y2319D01*
X29193Y2237D01*
X29231Y2146D01*
X29250Y2049D01*
Y2000D01*
Y1951D01*
X29231Y1854D01*
X29193Y1763D01*
X29138Y1681D01*
X29069Y1612D01*
X28987Y1557D01*
X28896Y1519D01*
X28799Y1500D01*
X28701D01*
X28604Y1519D01*
X28513Y1557D01*
X28431Y1612D01*
X28362Y1681D01*
X28307Y1763D01*
X28269Y1854D01*
X28250Y1951D01*
Y2000D01*
Y2049D01*
X28269Y2146D01*
X28307Y2237D01*
X28362Y2319D01*
X28431Y2388D01*
X28513Y2443D01*
X28604Y2481D01*
X28701Y2500D01*
X28799D01*
X28896Y2481D01*
D02*
G37*
G36*
X1396D02*
X1487Y2443D01*
X1569Y2388D01*
X1638Y2319D01*
X1693Y2237D01*
X1731Y2146D01*
X1750Y2049D01*
Y2000D01*
Y1951D01*
X1731Y1854D01*
X1693Y1763D01*
X1638Y1681D01*
X1569Y1612D01*
X1487Y1557D01*
X1396Y1519D01*
X1299Y1500D01*
X1201D01*
X1104Y1519D01*
X1013Y1557D01*
X931Y1612D01*
X862Y1681D01*
X807Y1763D01*
X769Y1854D01*
X750Y1951D01*
Y2000D01*
Y2049D01*
X769Y2146D01*
X807Y2237D01*
X862Y2319D01*
X931Y2388D01*
X1013Y2443D01*
X1104Y2481D01*
X1201Y2500D01*
X1299D01*
X1396Y2481D01*
D02*
G37*
D12*
X11100Y7400D02*
X12700D01*
X10400Y8100D02*
X11100Y7400D01*
X10400Y8100D02*
Y10750D01*
X10850Y11200D01*
X8300Y14300D02*
Y14350D01*
X12700Y7400D02*
X22300D01*
X23250Y8350D01*
Y11350D01*
X10850Y11200D02*
X19150D01*
X19700Y11750D01*
X22900Y11700D02*
X23250Y11350D01*
X21900Y11700D02*
X22900D01*
X21000Y12600D02*
X21900Y11700D01*
X19700Y11750D02*
Y17150D01*
X11750Y17750D02*
X12150Y17350D01*
X11750Y17750D02*
Y17800D01*
Y23600D01*
X12350Y24200D01*
X19300D02*
X21000Y22500D01*
X12350Y24200D02*
X19300D01*
X19500Y17350D02*
X19700Y17150D01*
X21000Y12600D02*
Y22500D01*
X12150Y17350D02*
X19500D01*
X29250Y2000D02*
G03*
X29250Y2000I-500J0D01*
G01*
Y27500D02*
G03*
X29250Y27500I-500J0D01*
G01*
X1750Y2000D02*
G03*
X1750Y2000I-500J0D01*
G01*
Y27500D02*
G03*
X1750Y27500I-500J0D01*
G01*
X2250Y1550D02*
X10250D01*
Y2550D01*
X2250D02*
X10250D01*
X2250Y1550D02*
Y2550D01*
X10250Y12550D02*
Y14550D01*
X3250D02*
X10250D01*
X2250Y13550D02*
Y14550D01*
X3250D01*
X2250Y29050D02*
X3250D01*
X2250Y28050D02*
Y29050D01*
X3250D02*
X10250D01*
Y27050D02*
Y29050D01*
X2250Y16050D02*
Y17050D01*
X10250D01*
Y16050D02*
Y17050D01*
X2250Y16050D02*
X10250D01*
X11400Y1550D02*
X19400D01*
Y2550D01*
X11400D02*
X19400D01*
X11400Y1550D02*
Y2550D01*
X19400Y12550D02*
Y14550D01*
X12400D02*
X19400D01*
X11400Y13550D02*
Y14550D01*
X12400D01*
X11350Y16050D02*
X19350D01*
Y17050D01*
X11350D02*
X19350D01*
X11350Y16050D02*
Y17050D01*
X19350Y27050D02*
Y29050D01*
X12350D02*
X19350D01*
X11350Y28050D02*
Y29050D01*
X12350D01*
X0Y34850D02*
X600Y35050D01*
X0Y34850D02*
X600Y34650D01*
X29400D02*
X30000Y34850D01*
X29400Y35050D02*
X30000Y34850D01*
X0D02*
X12731D01*
X16949D02*
X30000D01*
X0Y33900D02*
Y34950D01*
X30000Y33800D02*
Y34950D01*
X36400Y600D02*
X36600Y0D01*
X36800Y600D01*
X36600Y31500D02*
X36800Y30900D01*
X36400D02*
X36600Y31500D01*
Y0D02*
Y13531D01*
Y17649D02*
Y31500D01*
X33200Y0D02*
X36700D01*
X34300Y31500D02*
X36700D01*
D14*
X30000Y1500D02*
Y30000D01*
X1500Y31500D02*
X28500D01*
X30000Y30000D01*
X-0D02*
X0Y1500D01*
Y30000D02*
X1500Y31500D01*
X28500Y0D02*
X30000Y1500D01*
X0D02*
X1500Y0D01*
X28500D01*
D15*
X12891Y34990D02*
X12991Y35090D01*
X13191D01*
X13290Y34990D01*
Y34890D01*
X13191Y34790D01*
X13091D01*
X13191D01*
X13290Y34690D01*
Y34590D01*
X13191Y34490D01*
X12991D01*
X12891Y34590D01*
X13490Y34990D02*
X13590Y35090D01*
X13790D01*
X13890Y34990D01*
Y34590D01*
X13790Y34490D01*
X13590D01*
X13490Y34590D01*
Y34990D01*
X14090D02*
X14190Y35090D01*
X14390D01*
X14490Y34990D01*
Y34590D01*
X14390Y34490D01*
X14190D01*
X14090Y34590D01*
Y34990D01*
X14690D02*
X14790Y35090D01*
X14990D01*
X15090Y34990D01*
Y34590D01*
X14990Y34490D01*
X14790D01*
X14690Y34590D01*
Y34990D01*
X15290Y34490D02*
Y34590D01*
X15390D01*
Y34490D01*
X15290D01*
X15790Y34990D02*
X15890Y35090D01*
X16090D01*
X16190Y34990D01*
Y34590D01*
X16090Y34490D01*
X15890D01*
X15790Y34590D01*
Y34990D01*
X16389D02*
X16489Y35090D01*
X16689D01*
X16789Y34990D01*
Y34590D01*
X16689Y34490D01*
X16489D01*
X16389Y34590D01*
Y34990D01*
X36460Y13691D02*
X36360Y13791D01*
Y13991D01*
X36460Y14090D01*
X36560D01*
X36660Y13991D01*
Y13891D01*
Y13991D01*
X36760Y14090D01*
X36860D01*
X36960Y13991D01*
Y13791D01*
X36860Y13691D01*
X36960Y14290D02*
Y14490D01*
Y14390D01*
X36360D01*
X36460Y14290D01*
X36360Y15190D02*
Y14790D01*
X36660D01*
X36560Y14990D01*
Y15090D01*
X36660Y15190D01*
X36860D01*
X36960Y15090D01*
Y14890D01*
X36860Y14790D01*
X36460Y15390D02*
X36360Y15490D01*
Y15690D01*
X36460Y15790D01*
X36860D01*
X36960Y15690D01*
Y15490D01*
X36860Y15390D01*
X36460D01*
X36960Y15990D02*
X36860D01*
Y16090D01*
X36960D01*
Y15990D01*
X36460Y16490D02*
X36360Y16590D01*
Y16790D01*
X36460Y16890D01*
X36860D01*
X36960Y16790D01*
Y16590D01*
X36860Y16490D01*
X36460D01*
Y17090D02*
X36360Y17189D01*
Y17389D01*
X36460Y17489D01*
X36860D01*
X36960Y17389D01*
Y17189D01*
X36860Y17090D01*
X36460D01*
D30*
X28799Y2500D02*
X28896Y2481D01*
X28987Y2443D01*
X29069Y2388D01*
X29138Y2319D01*
X29193Y2237D01*
X29231Y2146D01*
X29250Y2049D01*
Y2000D02*
Y2049D01*
Y1951D02*
Y2000D01*
X29231Y1854D02*
X29250Y1951D01*
X29193Y1763D02*
X29231Y1854D01*
X29138Y1681D02*
X29193Y1763D01*
X29069Y1612D02*
X29138Y1681D01*
X28987Y1557D02*
X29069Y1612D01*
X28896Y1519D02*
X28987Y1557D01*
X28799Y1500D02*
X28896Y1519D01*
X28701Y1500D02*
X28799D01*
X28604Y1519D02*
X28701Y1500D01*
X28513Y1557D02*
X28604Y1519D01*
X28431Y1612D02*
X28513Y1557D01*
X28362Y1681D02*
X28431Y1612D01*
X28307Y1763D02*
X28362Y1681D01*
X28269Y1854D02*
X28307Y1763D01*
X28250Y1951D02*
X28269Y1854D01*
X28250Y1951D02*
Y2000D01*
Y2049D01*
X28269Y2146D01*
X28307Y2237D01*
X28362Y2319D01*
X28431Y2388D01*
X28513Y2443D01*
X28604Y2481D01*
X28701Y2500D01*
X28799D01*
Y28000D02*
X28896Y27981D01*
X28987Y27943D01*
X29069Y27888D01*
X29138Y27819D01*
X29193Y27737D01*
X29231Y27646D01*
X29250Y27549D01*
Y27500D02*
Y27549D01*
Y27451D02*
Y27500D01*
X29231Y27354D02*
X29250Y27451D01*
X29193Y27263D02*
X29231Y27354D01*
X29138Y27181D02*
X29193Y27263D01*
X29069Y27112D02*
X29138Y27181D01*
X28987Y27057D02*
X29069Y27112D01*
X28896Y27019D02*
X28987Y27057D01*
X28799Y27000D02*
X28896Y27019D01*
X28701Y27000D02*
X28799D01*
X28604Y27019D02*
X28701Y27000D01*
X28513Y27057D02*
X28604Y27019D01*
X28431Y27112D02*
X28513Y27057D01*
X28362Y27181D02*
X28431Y27112D01*
X28307Y27263D02*
X28362Y27181D01*
X28269Y27354D02*
X28307Y27263D01*
X28250Y27451D02*
X28269Y27354D01*
X28250Y27451D02*
Y27500D01*
Y27549D01*
X28269Y27646D01*
X28307Y27737D01*
X28362Y27819D01*
X28431Y27888D01*
X28513Y27943D01*
X28604Y27981D01*
X28701Y28000D01*
X28799D01*
X1299D02*
X1396Y27981D01*
X1487Y27943D01*
X1569Y27888D01*
X1638Y27819D01*
X1693Y27737D01*
X1731Y27646D01*
X1750Y27549D01*
Y27500D02*
Y27549D01*
Y27451D02*
Y27500D01*
X1731Y27354D02*
X1750Y27451D01*
X1693Y27263D02*
X1731Y27354D01*
X1638Y27181D02*
X1693Y27263D01*
X1569Y27112D02*
X1638Y27181D01*
X1487Y27057D02*
X1569Y27112D01*
X1396Y27019D02*
X1487Y27057D01*
X1299Y27000D02*
X1396Y27019D01*
X1201Y27000D02*
X1299D01*
X1104Y27019D02*
X1201Y27000D01*
X1013Y27057D02*
X1104Y27019D01*
X931Y27112D02*
X1013Y27057D01*
X862Y27181D02*
X931Y27112D01*
X807Y27263D02*
X862Y27181D01*
X769Y27354D02*
X807Y27263D01*
X750Y27451D02*
X769Y27354D01*
X750Y27451D02*
Y27500D01*
Y27549D01*
X769Y27646D01*
X807Y27737D01*
X862Y27819D01*
X931Y27888D01*
X1013Y27943D01*
X1104Y27981D01*
X1201Y28000D01*
X1299D01*
Y2500D02*
X1396Y2481D01*
X1487Y2443D01*
X1569Y2388D01*
X1638Y2319D01*
X1693Y2237D01*
X1731Y2146D01*
X1750Y2049D01*
Y2000D02*
Y2049D01*
Y1951D02*
Y2000D01*
X1731Y1854D02*
X1750Y1951D01*
X1693Y1763D02*
X1731Y1854D01*
X1638Y1681D02*
X1693Y1763D01*
X1569Y1612D02*
X1638Y1681D01*
X1487Y1557D02*
X1569Y1612D01*
X1396Y1519D02*
X1487Y1557D01*
X1299Y1500D02*
X1396Y1519D01*
X1201Y1500D02*
X1299D01*
X1104Y1519D02*
X1201Y1500D01*
X1013Y1557D02*
X1104Y1519D01*
X931Y1612D02*
X1013Y1557D01*
X862Y1681D02*
X931Y1612D01*
X807Y1763D02*
X862Y1681D01*
X769Y1854D02*
X807Y1763D01*
X750Y1951D02*
X769Y1854D01*
X750Y1951D02*
Y2000D01*
Y2049D01*
X769Y2146D01*
X807Y2237D01*
X862Y2319D01*
X931Y2388D01*
X1013Y2443D01*
X1104Y2481D01*
X1201Y2500D01*
X1299D01*
X1500Y0D02*
X28500D01*
X30000Y1500D01*
Y30000D01*
X28500Y31500D02*
X30000Y30000D01*
X1500Y31500D02*
X28500D01*
X-0Y30000D02*
X1500Y31500D01*
X-0Y30000D02*
X0Y1500D01*
X1500Y0D01*
D31*
X3750Y2050D02*
D03*
X7750Y13050D02*
D03*
X6750D02*
D03*
X5750D02*
D03*
X4750D02*
D03*
X3750D02*
D03*
X2750D02*
D03*
Y2050D02*
D03*
X9750D02*
D03*
X8750D02*
D03*
X7750D02*
D03*
X6750D02*
D03*
X5750D02*
D03*
X4750D02*
D03*
Y16550D02*
D03*
X5750D02*
D03*
X6750D02*
D03*
X7750D02*
D03*
X8750D02*
D03*
X9750D02*
D03*
X2750D02*
D03*
Y27550D02*
D03*
X3750D02*
D03*
X4750D02*
D03*
X5750D02*
D03*
X6750D02*
D03*
X7750D02*
D03*
X3750Y16550D02*
D03*
X12900Y2050D02*
D03*
X16900Y13050D02*
D03*
X15900D02*
D03*
X14900D02*
D03*
X13900D02*
D03*
X12900D02*
D03*
X11900D02*
D03*
Y2050D02*
D03*
X18900D02*
D03*
X17900D02*
D03*
X16900D02*
D03*
X15900D02*
D03*
X14900D02*
D03*
X13900D02*
D03*
X12850Y16550D02*
D03*
X16850Y27550D02*
D03*
X15850D02*
D03*
X14850D02*
D03*
X13850D02*
D03*
X12850D02*
D03*
X11850D02*
D03*
Y16550D02*
D03*
X18850D02*
D03*
X17850D02*
D03*
X16850D02*
D03*
X15850D02*
D03*
X14850D02*
D03*
X13850D02*
D03*
D32*
X9750Y13050D02*
D03*
X8750D02*
D03*
Y27550D02*
D03*
X9750D02*
D03*
X18900Y13050D02*
D03*
X17900D02*
D03*
X18850Y27550D02*
D03*
X17850D02*
D03*
D33*
X21100Y6850D02*
D03*
X22659D02*
D03*
X25000D02*
D03*
X26559D02*
D03*
X22250Y8941D02*
D03*
Y14400D02*
D03*
Y16750D02*
D03*
Y18309D02*
D03*
Y22209D02*
D03*
Y20650D02*
D03*
X26950Y24300D02*
D03*
X25391D02*
D03*
X22609D02*
D03*
X21050D02*
D03*
D34*
X22250Y10500D02*
D03*
Y12841D02*
D03*
D35*
X17400Y23650D02*
D03*
X15700Y9100D02*
D03*
X20550Y11550D02*
D03*
D36*
X17400Y22500D02*
D03*
X15300Y7900D02*
D03*
X10625Y5049D02*
D03*
X8400Y7750D02*
D03*
X11700Y11800D02*
D03*
X15175Y18725D02*
D03*
X18450Y19115D02*
D03*
X17750Y20050D02*
D03*
X12680Y22650D02*
D03*
M02*
